  0
SECTION
  2
HEADER
  9
$ACADVER
  1
AC1012
  9
$DWGCODEPAGE
  3
ansi_1252
  9
$INSBASE
 10
0.0
 20
0.0
 30
0.0
  9
$EXTMIN
 10
1.000000000000000E+20
 20
1.000000000000000E+20
 30
1.000000000000000E+20
  9
$EXTMAX
 10
-1.000000000000000E+20
 20
-1.000000000000000E+20
 30
-1.000000000000000E+20
  9
$LIMMIN
 10
0.0
 20
0.0
  9
$LIMMAX
 10
12.0
 20
9.0
  9
$ORTHOMODE
 70
     0
  9
$REGENMODE
 70
     1
  9
$FILLMODE
 70
     1
  9
$QTEXTMODE
 70
     0
  9
$MIRRTEXT
 70
     1
  9
$DRAGMODE
 70
     2
  9
$LTSCALE
 40
1.0
  9
$OSMODE
 70
    37
  9
$ATTMODE
 70
     1
  9
$TEXTSIZE
 40
0.2
  9
$TRACEWID
 40
0.05
  9
$TEXTSTYLE
  7
STANDARD
  9
$CLAYER
  8
0
  9
$CELTYPE
  6
BYLAYER
  9
$CECOLOR
 62
   256
  9
$CELTSCALE
 40
1.0
  9
$DELOBJ
 70
     1
  9
$DISPSILH
 70
     0
  9
$DIMSCALE
 40
1.0
  9
$DIMASZ
 40
0.18
  9
$DIMEXO
 40
0.0625
  9
$DIMDLI
 40
0.38
  9
$DIMRND
 40
0.0
  9
$DIMDLE
 40
0.0
  9
$DIMEXE
 40
0.18
  9
$DIMTP
 40
0.0
  9
$DIMTM
 40
0.0
  9
$DIMTXT
 40
0.18
  9
$DIMCEN
 40
0.09
  9
$DIMTSZ
 40
0.0
  9
$DIMTOL
 70
     0
  9
$DIMLIM
 70
     0
  9
$DIMTIH
 70
     1
  9
$DIMTOH
 70
     1
  9
$DIMSE1
 70
     0
  9
$DIMSE2
 70
     0
  9
$DIMTAD
 70
     0
  9
$DIMZIN
 70
     0
  9
$DIMBLK
  1

  9
$DIMASO
 70
     1
  9
$DIMSHO
 70
     1
  9
$DIMPOST
  1

  9
$DIMAPOST
  1

  9
$DIMALT
 70
     0
  9
$DIMALTD
 70
     2
  9
$DIMALTF
 40
25.4
  9
$DIMLFAC
 40
1.0
  9
$DIMTOFL
 70
     0
  9
$DIMTVP
 40
0.0
  9
$DIMTIX
 70
     0
  9
$DIMSOXD
 70
     0
  9
$DIMSAH
 70
     0
  9
$DIMBLK1
  1

  9
$DIMBLK2
  1

  9
$DIMSTYLE
  2
STANDARD
  9
$DIMCLRD
 70
     0
  9
$DIMCLRE
 70
     0
  9
$DIMCLRT
 70
     0
  9
$DIMTFAC
 40
1.0
  9
$DIMGAP
 40
0.09
  9
$DIMJUST
 70
     0
  9
$DIMSD1
 70
     0
  9
$DIMSD2
 70
     0
  9
$DIMTOLJ
 70
     1
  9
$DIMTZIN
 70
     0
  9
$DIMALTZ
 70
     0
  9
$DIMALTTZ
 70
     0
  9
$DIMFIT
 70
     3
  9
$DIMUPT
 70
     0
  9
$DIMUNIT
 70
     2
  9
$DIMDEC
 70
     4
  9
$DIMTDEC
 70
     4
  9
$DIMALTU
 70
     2
  9
$DIMALTTD
 70
     2
  9
$DIMTXSTY
  7
STANDARD
  9
$DIMAUNIT
 70
     0
  9
$LUNITS
 70
     2
  9
$LUPREC
 70
     4
  9
$SKETCHINC
 40
0.1
  9
$FILLETRAD
 40
0.5
  9
$AUNITS
 70
     0
  9
$AUPREC
 70
     0
  9
$MENU
  1
.
  9
$ELEVATION
 40
0.0
  9
$PELEVATION
 40
0.0
  9
$THICKNESS
 40
0.0
  9
$LIMCHECK
 70
     0
  9
$CHAMFERA
 40
0.5
  9
$CHAMFERB
 40
0.5
  9
$CHAMFERC
 40
1.0
  9
$CHAMFERD
 40
0.0
  9
$SKPOLY
 70
     0
  9
$TDCREATE
 40
2457356.588042535
  9
$TDUPDATE
 40
2457356.588042546
  9
$TDINDWG
 40
0.0000000116
  9
$TDUSRTIMER
 40
0.0000000116
  9
$USRTIMER
 70
     1
  9
$ANGBASE
 50
0.0
  9
$ANGDIR
 70
     0
  9
$PDMODE
 70
     0
  9
$PDSIZE
 40
0.0
  9
$PLINEWID
 40
0.0
  9
$COORDS
 70
     1
  9
$SPLFRAME
 70
     0
  9
$SPLINETYPE
 70
     6
  9
$SPLINESEGS
 70
     8
  9
$ATTDIA
 70
     0
  9
$ATTREQ
 70
     1
  9
$HANDLING
 70
     1
  9
$HANDSEED
  5
98
  9
$SURFTAB1
 70
     6
  9
$SURFTAB2
 70
     6
  9
$SURFTYPE
 70
     6
  9
$SURFU
 70
     6
  9
$SURFV
 70
     6
  9
$UCSNAME
  2

  9
$UCSORG
 10
0.0
 20
0.0
 30
0.0
  9
$UCSXDIR
 10
1.0
 20
0.0
 30
0.0
  9
$UCSYDIR
 10
0.0
 20
1.0
 30
0.0
  9
$PUCSNAME
  2

  9
$PUCSORG
 10
0.0
 20
0.0
 30
0.0
  9
$PUCSXDIR
 10
1.0
 20
0.0
 30
0.0
  9
$PUCSYDIR
 10
0.0
 20
1.0
 30
0.0
  9
$USERI1
 70
     0
  9
$USERI2
 70
     0
  9
$USERI3
 70
     0
  9
$USERI4
 70
     0
  9
$USERI5
 70
     0
  9
$USERR1
 40
0.0
  9
$USERR2
 40
0.0
  9
$USERR3
 40
0.0
  9
$USERR4
 40
0.0
  9
$USERR5
 40
0.0
  9
$WORLDVIEW
 70
     1
  9
$SHADEDGE
 70
     3
  9
$SHADEDIF
 70
    70
  9
$TILEMODE
 70
     1
  9
$MAXACTVP
 70
    64
  9
$PINSBASE
 10
0.0
 20
0.0
 30
0.0
  9
$PLIMCHECK
 70
     0
  9
$PEXTMIN
 10
1.000000000000000E+20
 20
1.000000000000000E+20
 30
1.000000000000000E+20
  9
$PEXTMAX
 10
-1.000000000000000E+20
 20
-1.000000000000000E+20
 30
-1.000000000000000E+20
  9
$PLIMMIN
 10
0.0
 20
0.0
  9
$PLIMMAX
 10
12.0
 20
9.0
  9
$UNITMODE
 70
     0
  9
$VISRETAIN
 70
     1
  9
$PLINEGEN
 70
     0
  9
$PSLTSCALE
 70
     1
  9
$TREEDEPTH
 70
  3020
  9
$PICKSTYLE
 70
     1
  9
$CMLSTYLE
  2
STANDARD
  9
$CMLJUST
 70
     0
  9
$CMLSCALE
 40
1.0
  9
$SAVEIMAGES
 70
     1
  0
ENDSEC
  0
SECTION
  2
CLASSES
  0
CLASS
  1
ACDBDICTIONARYWDFLT
  2
AcDbDictionaryWithDefault
  3
ObjectDBX Classes
 90
    32768
280
     0
281
     0
  0
CLASS
  1
VISUALSTYLE
  2
AcDbVisualStyle
  3
ObjectDBX Classes
 90
     4095
280
     0
281
     0
  0
CLASS
  1
XRECORD
  2
AcDbXrecord
  3
AutoCAD 2000
 90
    32768
280
     0
281
     0
  0
CLASS
  1
LWPOLYLINE
  2
AcDbPolyline
  3
AutoCAD 2000
 90
    32768
280
     0
281
     1
  0
CLASS
  1
HATCH
  2
AcDbHatch
  3
AutoCAD 2000
 90
    32768
280
     0
281
     1
  0
CLASS
  1
ACDBPLACEHOLDER
  2
AcDbPlaceHolder
  3
ObjectDBX Classes
 90
        0
280
     0
281
     0
  0
CLASS
  1
LAYOUT
  2
AcDbLayout
  3
ObjectDBX Classes
 90
        0
280
     0
281
     0
  0
ENDSEC
  0
SECTION
  2
TABLES
  0
TABLE
  2
VPORT
  5
8
330
0
100
AcDbSymbolTable
 70
     1
  0
VPORT
  5
29
330
8
100
AcDbSymbolTableRecord
100
AcDbViewportTableRecord
  2
*ACTIVE
 70
     0
 10
0.0
 20
0.0
 11
1.0
 21
1.0
 12
0.0
 22
0.0
 13
0.0
 23
0.0
 14
0.5
 24
0.5
 15
0.5
 25
0.5
 16
0.0
 26
0.0
 36
1.0
 17
148.5053195158251
 27
105.007802301222
 37
0.0
 40
210.015604602444
 41
1.414231288164926
 42
50.0
 43
0.0
 44
0.0
 50
0.0
 51
0.0
 71
     0
 72
   100
 73
     1
 74
     3
 75
     0
 76
     0
 77
     0
 78
     0
  0
ENDTAB
  0
TABLE
  2
LTYPE
  5
5
330
0
100
AcDbSymbolTable
 70
     1
  0
LTYPE
  5
14
330
5
100
AcDbSymbolTableRecord
100
AcDbLinetypeTableRecord
  2
BYBLOCK
 70
     0
  3

 72
    65
 73
     0
 40
0.0
  0
LTYPE
  5
15
330
5
100
AcDbSymbolTableRecord
100
AcDbLinetypeTableRecord
  2
BYLAYER
 70
     0
  3

 72
    65
 73
     0
 40
0.0
  0
LTYPE
  5
16
330
5
100
AcDbSymbolTableRecord
100
AcDbLinetypeTableRecord
  2
CONTINUOUS
 70
     0
  3
Solid line
 72
    65
 73
     0
 40
0.0
  0
ENDTAB
  0
TABLE
  2
LAYER
  5
2
330
0
100
AcDbSymbolTable
 70
     8
  0
LAYER
  5
10
330
2
100
AcDbSymbolTableRecord
100
AcDbLayerTableRecord
  2
0
 70
     0
 62
     7
  6
CONTINUOUS
  0
LAYER
  5
3B
330
2
100
AcDbSymbolTableRecord
100
AcDbLayerTableRecord
  2
LAYER_1
 70
     0
 62
     7
  6
CONTINUOUS
  0
LAYER
  5
4E
330
2
100
AcDbSymbolTableRecord
100
AcDbLayerTableRecord
  2
LAYER_2
 70
     0
 62
     7
  6
CONTINUOUS
  0
LAYER
  5
5B
330
2
100
AcDbSymbolTableRecord
100
AcDbLayerTableRecord
  2
LAYER_3
 70
     0
 62
     7
  6
CONTINUOUS
  0
LAYER
  5
6F
330
2
100
AcDbSymbolTableRecord
100
AcDbLayerTableRecord
  2
LAYER_4
 70
     0
 62
     7
  6
CONTINUOUS
  0
LAYER
  5
83
330
2
100
AcDbSymbolTableRecord
100
AcDbLayerTableRecord
  2
LAYER_5
 70
     0
 62
     7
  6
CONTINUOUS
  0
LAYER
  5
8B
330
2
100
AcDbSymbolTableRecord
100
AcDbLayerTableRecord
  2
LAYER_6
 70
     0
 62
     7
  6
CONTINUOUS
  0
LAYER
  5
96
330
2
100
AcDbSymbolTableRecord
100
AcDbLayerTableRecord
  2
LAYER_9
 70
     0
 62
     7
  6
CONTINUOUS
  0
ENDTAB
  0
TABLE
  2
STYLE
  5
3
330
0
100
AcDbSymbolTable
 70
     1
  0
STYLE
  5
11
330
3
100
AcDbSymbolTableRecord
100
AcDbTextStyleTableRecord
  2
STANDARD
 70
     0
 40
0.0
 41
1.0
 50
0.0
 71
     0
 42
0.2
  3
txt
  4

  0
ENDTAB
  0
TABLE
  2
VIEW
  5
6
330
0
100
AcDbSymbolTable
 70
     0
  0
ENDTAB
  0
TABLE
  2
UCS
  5
7
330
0
100
AcDbSymbolTable
 70
     0
  0
ENDTAB
  0
TABLE
  2
APPID
  5
9
330
0
100
AcDbSymbolTable
 70
     1
  0
APPID
  5
12
330
9
100
AcDbSymbolTableRecord
100
AcDbRegAppTableRecord
  2
ACAD
 70
     0
  0
ENDTAB
  0
TABLE
  2
DIMSTYLE
  5
A
330
0
100
AcDbSymbolTable
 70
     1
  0
DIMSTYLE
105
27
330
A
100
AcDbSymbolTableRecord
100
AcDbDimStyleTableRecord
  2
STANDARD
 70
     0
  3

  4

  5

  6

  7

 40
1.0
 41
0.18
 42
0.0625
 43
0.38
 44
0.18
 45
0.0
 46
0.0
 47
0.0
 48
0.0
140
0.18
141
0.09
142
0.0
143
25.4
144
1.0
145
0.0
146
1.0
147
0.09
 71
     0
 72
     0
 73
     1
 74
     1
 75
     0
 76
     0
 77
     0
 78
     0
170
     0
171
     2
172
     0
173
     0
174
     0
175
     0
176
     0
177
     0
178
     0
270
     2
271
     4
272
     4
273
     2
274
     2
340
11
275
     0
280
     0
281
     0
282
     0
283
     1
284
     0
285
     0
286
     0
287
     3
288
     0
  0
ENDTAB
  0
TABLE
  2
BLOCK_RECORD
  5
1
330
0
100
AcDbSymbolTable
 70
    14
  0
BLOCK_RECORD
  5
1F
330
1
100
AcDbSymbolTableRecord
100
AcDbBlockTableRecord
  2
*MODEL_SPACE
  0
BLOCK_RECORD
  5
1B
330
1
100
AcDbSymbolTableRecord
100
AcDbBlockTableRecord
  2
*PAPER_SPACE
  0
BLOCK_RECORD
  5
3C
330
1
100
AcDbSymbolTableRecord
100
AcDbBlockTableRecord
  2
BLOCK_2
  0
BLOCK_RECORD
  5
42
330
1
100
AcDbSymbolTableRecord
100
AcDbBlockTableRecord
  2
BLOCK_3
  0
BLOCK_RECORD
  5
48
330
1
100
AcDbSymbolTableRecord
100
AcDbBlockTableRecord
  2
BLOCK_4
  0
BLOCK_RECORD
  5
4F
330
1
100
AcDbSymbolTableRecord
100
AcDbBlockTableRecord
  2
BLOCK_5
  0
BLOCK_RECORD
  5
55
330
1
100
AcDbSymbolTableRecord
100
AcDbBlockTableRecord
  2
BLOCK_6
  0
BLOCK_RECORD
  5
5C
330
1
100
AcDbSymbolTableRecord
100
AcDbBlockTableRecord
  2
BLOCK_7
  0
BLOCK_RECORD
  5
62
330
1
100
AcDbSymbolTableRecord
100
AcDbBlockTableRecord
  2
BLOCK_8
  0
BLOCK_RECORD
  5
68
330
1
100
AcDbSymbolTableRecord
100
AcDbBlockTableRecord
  2
BLOCK_9
  0
BLOCK_RECORD
  5
70
330
1
100
AcDbSymbolTableRecord
100
AcDbBlockTableRecord
  2
BLOCK_10
  0
BLOCK_RECORD
  5
76
330
1
100
AcDbSymbolTableRecord
100
AcDbBlockTableRecord
  2
BLOCK_11
  0
BLOCK_RECORD
  5
7C
330
1
100
AcDbSymbolTableRecord
100
AcDbBlockTableRecord
  2
BLOCK_12
  0
BLOCK_RECORD
  5
84
330
1
100
AcDbSymbolTableRecord
100
AcDbBlockTableRecord
  2
BLOCK_13
  0
BLOCK_RECORD
  5
8C
330
1
100
AcDbSymbolTableRecord
100
AcDbBlockTableRecord
  2
BLOCK_14
  0
ENDTAB
  0
ENDSEC
  0
SECTION
  2
BLOCKS
  0
BLOCK
  5
20
330
1F
100
AcDbEntity
  8
0
100
AcDbBlockBegin
  2
*MODEL_SPACE
 70
     0
 71
     0
 10
0.0
 20
0.0
 30
0.0
  3
*MODEL_SPACE
  1

  0
ENDBLK
  5
21
330
1F
100
AcDbEntity
  8
0
100
AcDbBlockEnd
  0
BLOCK
  5
1C
330
1B
100
AcDbEntity
 67
     1
  8
0
100
AcDbBlockBegin
  2
*PAPER_SPACE
 70
     0
 71
     0
 10
0.0
 20
0.0
 30
0.0
  3
*PAPER_SPACE
  1

  0
ENDBLK
  5
1D
330
1B
100
AcDbEntity
 67
     1
  8
0
100
AcDbBlockEnd
  0
BLOCK
  5
3E
330
3C
100
AcDbEntity
  8
0
100
AcDbBlockBegin
  2
BLOCK_2
 70
     0
 71
     0
 10
0.0
 20
0.0
 30
0.0
  3
BLOCK_2
  1

  0
SPLINE
  5
40
330
3C
100
AcDbEntity
  8
LAYER_1
 62
     7
100
AcDbSpline
210
0.0
220
0.0
230
1.0
 70
    11
 71
     3
 72
    44
 73
    40
 74
     0
 42
0.0000000001
 43
0.0000000001
 40
0.0
 40
0.0
 40
0.0
 40
0.0
 40
1.0
 40
1.0
 40
1.0
 40
2.0
 40
2.0
 40
2.0
 40
3.0
 40
3.0
 40
3.0
 40
4.0
 40
4.0
 40
4.0
 40
5.0
 40
5.0
 40
5.0
 40
6.0
 40
6.0
 40
6.0
 40
7.0
 40
7.0
 40
7.0
 40
8.0
 40
8.0
 40
8.0
 40
9.0
 40
9.0
 40
9.0
 40
10.0
 40
10.0
 40
10.0
 40
11.0
 40
11.0
 40
11.0
 40
12.0
 40
12.0
 40
12.0
 40
13.0
 40
13.0
 40
13.0
 40
13.0
 10
3.124357095573078
 20
225.5815795334484
 30
0.0
 10
3.124357095573078
 20
225.5815795334484
 30
0.0
 10
3.027894421986082
 20
225.6239542079169
 30
0.0
 10
3.027894421986082
 20
225.6239542079169
 30
0.0
 10
3.027894421986082
 20
225.6239542079169
 30
0.0
 10
2.985864257066034
 20
225.6239542079169
 30
0.0
 10
2.985864257066034
 20
225.6239542079169
 30
0.0
 10
1.37424858906616
 20
225.6239542079169
 30
0.0
 10
0.0540879991184225
 20
226.934468530506
 30
0.0
 10
0.043408203114148
 20
228.5450506698603
 30
0.0
 10
0.043408203114148
 20
228.5450506698603
 30
0.0
 10
0.0013780381940999
 20
228.6391017766076
 30
0.0
 10
0.0013780381940999
 20
228.6391017766076
 30
0.0
 10
0.0013780381940999
 20
228.6391017766076
 30
0.0
 10
0.0013780381940999
 20
213.7607679044591
 30
0.0
 10
0.0013780381940999
 20
213.7607679044591
 30
0.0
 10
0.0013780381940999
 20
213.7607679044591
 30
0.0
 10
0.0
 20
213.6567260208046
 30
0.0
 10
0.0
 20
213.6567260208046
 30
0.0
 10
0.0
 20
213.6567260208046
 30
0.0
 10
0.043408203114148
 20
213.5595743281205
 30
0.0
 10
0.043408203114148
 20
213.5595743281205
 30
0.0
 10
0.0540879991184225
 20
211.9493366983148
 30
0.0
 10
1.37424858906616
 20
210.6388223757257
 30
0.0
 10
2.985864257066034
 20
210.6388223757257
 30
0.0
 10
2.985864257066034
 20
210.6388223757257
 30
0.0
 10
3.027894421986082
 20
210.6388223757257
 30
0.0
 10
3.027894421986082
 20
210.6388223757257
 30
0.0
 10
3.027894421986082
 20
210.6388223757257
 30
0.0
 10
3.124357095573078
 20
210.5961031917086
 30
0.0
 10
3.124357095573078
 20
210.5961031917086
 30
0.0
 10
3.124357095573078
 20
210.5961031917086
 30
0.0
 10
44.59434948971947
 20
210.5961031917086
 30
0.0
 10
44.59434948971947
 20
210.5961031917086
 30
0.0
 10
44.59434948971947
 20
210.5961031917086
 30
0.0
 10
44.59434948971947
 20
225.5815795334484
 30
0.0
 10
44.59434948971947
 20
225.5815795334484
 30
0.0
 10
44.59434948971947
 20
225.5815795334484
 30
0.0
 10
3.124357095573078
 20
225.5815795334484
 30
0.0
 10
3.124357095573078
 20
225.5815795334484
 30
0.0
  0
SPLINE
  5
41
330
3C
100
AcDbEntity
  8
LAYER_1
 62
     7
100
AcDbSpline
210
0.0
220
0.0
230
1.0
 70
    11
 71
     3
 72
    17
 73
    13
 74
     0
 42
0.0000000001
 43
0.0000000001
 40
0.0
 40
0.0
 40
0.0
 40
0.0
 40
1.0
 40
1.0
 40
1.0
 40
2.0
 40
2.0
 40
2.0
 40
3.0
 40
3.0
 40
3.0
 40
4.0
 40
4.0
 40
4.0
 40
4.0
 10
16.15853135446731
 20
216.8145005425846
 30
0.0
 10
16.98604329002432
 20
216.8145005425846
 30
0.0
 10
17.65852592874509
 20
217.4842271049172
 30
0.0
 10
17.65852592874509
 20
218.3144951168624
 30
0.0
 10
17.65852592874509
 20
219.1447631288076
 30
0.0
 10
16.98604329002432
 20
219.8144896911401
 30
0.0
 10
16.15853135446731
 20
219.8144896911401
 30
0.0
 10
15.33067490936178
 20
219.8144896911401
 30
0.0
 10
14.65853678018953
 20
219.1447631288076
 30
0.0
 10
14.65853678018953
 20
218.3144951168624
 30
0.0
 10
14.65853678018953
 20
217.4842271049172
 30
0.0
 10
15.33067490936178
 20
216.8145005425846
 30
0.0
 10
16.15853135446731
 20
216.8145005425846
 30
0.0
  0
ENDBLK
  5
3F
330
3C
100
AcDbEntity
  8
0
100
AcDbBlockEnd
  0
BLOCK
  5
44
330
42
100
AcDbEntity
  8
0
100
AcDbBlockBegin
  2
BLOCK_3
 70
     0
 71
     0
 10
0.0
 20
0.0
 30
0.0
  3
BLOCK_3
  1

  0
SPLINE
  5
46
330
42
100
AcDbEntity
  8
LAYER_1
 62
     7
100
AcDbSpline
210
0.0
220
0.0
230
1.0
 70
    11
 71
     3
 72
    17
 73
    13
 74
     0
 42
0.0000000001
 43
0.0000000001
 40
0.0
 40
0.0
 40
0.0
 40
0.0
 40
1.0
 40
1.0
 40
1.0
 40
2.0
 40
2.0
 40
2.0
 40
3.0
 40
3.0
 40
3.0
 40
4.0
 40
4.0
 40
4.0
 40
4.0
 10
16.15715331627321
 20
259.4275756187369
 30
0.0
 10
16.98466525183022
 20
259.4275756187369
 30
0.0
 10
17.65714789055099
 20
260.0973021810694
 30
0.0
 10
17.65714789055099
 20
260.9275701930147
 30
0.0
 10
17.65714789055099
 20
261.7578382049599
 30
0.0
 10
16.98466525183022
 20
262.4275647672924
 30
0.0
 10
16.15715331627321
 20
262.4275647672924
 30
0.0
 10
15.32929687116768
 20
262.4275647672924
 30
0.0
 10
14.65715874199543
 20
261.7578382049599
 30
0.0
 10
14.65715874199543
 20
260.9275701930147
 30
0.0
 10
14.65715874199543
 20
260.0973021810694
 30
0.0
 10
15.32929687116768
 20
259.4275756187369
 30
0.0
 10
16.15715331627321
 20
259.4275756187369
 30
0.0
  0
SPLINE
  5
47
330
42
100
AcDbEntity
  8
LAYER_1
 62
     7
100
AcDbSpline
210
0.0
220
0.0
230
1.0
 70
    11
 71
     3
 72
    29
 73
    25
 74
     0
 42
0.0000000001
 43
0.0000000001
 40
0.0
 40
0.0
 40
0.0
 40
0.0
 40
1.0
 40
1.0
 40
1.0
 40
2.0
 40
2.0
 40
2.0
 40
3.0
 40
3.0
 40
3.0
 40
4.0
 40
4.0
 40
4.0
 40
5.0
 40
5.0
 40
5.0
 40
6.0
 40
6.0
 40
6.0
 40
7.0
 40
7.0
 40
7.0
 40
8.0
 40
8.0
 40
8.0
 40
8.0
 10
2.998266600812933
 20
268.689025811734
 30
0.0
 10
1.368391926741235
 20
268.6652546528858
 30
0.0
 10
0.042719184017098
 20
267.3182223181531
 30
0.0
 10
0.042719184017098
 20
265.6862805867902
 30
0.0
 10
0.042719184017098
 20
265.6862805867902
 30
0.0
 10
0.0
 20
265.5880953654606
 30
0.0
 10
0.0
 20
265.5880953654606
 30
0.0
 10
0.0
 20
265.5880953654606
 30
0.0
 10
0.0
 20
250.5874606035858
 30
0.0
 10
0.0
 20
250.5874606035858
 30
0.0
 10
0.0
 20
250.5874606035858
 30
0.0
 10
0.042719184017098
 20
250.6853013153669
 30
0.0
 10
0.042719184017098
 20
250.6853013153669
 30
0.0
 10
0.042719184017098
 20
252.3172430467297
 30
0.0
 10
1.368391926741235
 20
253.6646198910109
 30
0.0
 10
2.998266600812933
 20
253.6880465403106
 30
0.0
 10
2.998266600812933
 20
253.6880465403106
 30
0.0
 10
59.56294486358149
 20
253.6880465403106
 30
0.0
 10
59.56294486358149
 20
253.6880465403106
 30
0.0
 10
59.56294486358149
 20
253.6880465403106
 30
0.0
 10
59.56294486358149
 20
268.6893703212825
 30
0.0
 10
59.56294486358149
 20
268.6893703212825
 30
0.0
 10
59.56294486358149
 20
268.6893703212825
 30
0.0
 10
2.998266600812933
 20
268.689025811734
 30
0.0
 10
2.998266600812933
 20
268.689025811734
 30
0.0
  0
ENDBLK
  5
45
330
42
100
AcDbEntity
  8
0
100
AcDbBlockEnd
  0
BLOCK
  5
4A
330
48
100
AcDbEntity
  8
0
100
AcDbBlockBegin
  2
BLOCK_4
 70
     0
 71
     0
 10
0.0
 20
0.0
 30
0.0
  3
BLOCK_4
  1

  0
SPLINE
  5
4C
330
48
100
AcDbEntity
  8
LAYER_1
 62
     7
100
AcDbSpline
210
0.0
220
0.0
230
1.0
 70
    11
 71
     3
 72
    17
 73
    13
 74
     0
 42
0.0000000001
 43
0.0000000001
 40
0.0
 40
0.0
 40
0.0
 40
0.0
 40
1.0
 40
1.0
 40
1.0
 40
2.0
 40
2.0
 40
2.0
 40
3.0
 40
3.0
 40
3.0
 40
4.0
 40
4.0
 40
4.0
 40
4.0
 10
15.01441514381584
 20
284.1173691781026
 30
0.0
 10
14.18690320825883
 20
284.1173691781026
 30
0.0
 10
13.51442056953806
 20
283.4476426157701
 30
0.0
 10
13.51442056953806
 20
282.6173746038248
 30
0.0
 10
13.51442056953806
 20
281.7871065918796
 30
0.0
 10
14.18690320825883
 20
281.1173800295471
 30
0.0
 10
15.01441514381584
 20
281.1173800295471
 30
0.0
 10
15.84192707937285
 20
281.1173800295471
 30
0.0
 10
16.51440971809362
 20
281.7871065918796
 30
0.0
 10
16.51440971809362
 20
282.6173746038248
 30
0.0
 10
16.51440971809362
 20
283.4476426157701
 30
0.0
 10
15.84192707937285
 20
284.1173691781026
 30
0.0
 10
15.01441514381584
 20
284.1173691781026
 30
0.0
  0
SPLINE
  5
4D
330
48
100
AcDbEntity
  8
LAYER_1
 62
     7
100
AcDbSpline
210
0.0
220
0.0
230
1.0
 70
    11
 71
     3
 72
    32
 73
    28
 74
     0
 42
0.0000000001
 43
0.0000000001
 40
0.0
 40
0.0
 40
0.0
 40
0.0
 40
1.0
 40
1.0
 40
1.0
 40
2.0
 40
2.0
 40
2.0
 40
3.0
 40
3.0
 40
3.0
 40
4.0
 40
4.0
 40
4.0
 40
5.0
 40
5.0
 40
5.0
 40
6.0
 40
6.0
 40
6.0
 40
7.0
 40
7.0
 40
7.0
 40
8.0
 40
8.0
 40
8.0
 40
9.0
 40
9.0
 40
9.0
 40
9.0
 10
0.0
 20
326.8132988006752
 30
0.0
 10
0.0
 20
326.8132988006752
 30
0.0
 10
0.0
 20
292.8620550483123
 30
0.0
 10
0.0
 20
292.8620550483123
 30
0.0
 10
0.0
 20
292.8620550483123
 30
0.0
 10
0.0
 20
280.4731471738053
 30
0.0
 10
0.0
 20
280.4731471738053
 30
0.0
 10
0.0
 20
280.4731471738053
 30
0.0
 10
0.0
 20
277.8612480316632
 30
0.0
 10
0.0
 20
277.8612480316632
 30
0.0
 10
0.0
 20
276.2143201349395
 30
0.0
 10
1.348410372926786
 20
274.8659097620127
 30
0.0
 10
3.008946396817208
 20
274.855574475557
 30
0.0
 10
3.008946396817208
 20
274.855574475557
 30
0.0
 10
55.83741860583231
 20
274.855574475557
 30
0.0
 10
55.83741860583231
 20
274.855574475557
 30
0.0
 10
55.83741860583231
 20
274.855574475557
 30
0.0
 10
55.83741860583231
 20
289.8565537469803
 30
0.0
 10
55.83741860583231
 20
289.8565537469803
 30
0.0
 10
55.83741860583231
 20
289.8565537469803
 30
0.0
 10
5.999978297111117
 20
289.8563814922061
 30
0.0
 10
5.999978297111117
 20
289.8563814922061
 30
0.0
 10
5.999978297111117
 20
289.8563814922061
 30
0.0
 10
5.999978297111117
 20
326.8132988006752
 30
0.0
 10
5.999978297111117
 20
326.8132988006752
 30
0.0
 10
5.999978297111117
 20
326.8132988006752
 30
0.0
 10
0.0
 20
326.8132988006752
 30
0.0
 10
0.0
 20
326.8132988006752
 30
0.0
  0
ENDBLK
  5
4B
330
48
100
AcDbEntity
  8
0
100
AcDbBlockEnd
  0
BLOCK
  5
51
330
4F
100
AcDbEntity
  8
0
100
AcDbBlockBegin
  2
BLOCK_5
 70
     0
 71
     0
 10
0.0
 20
0.0
 30
0.0
  3
BLOCK_5
  1

  0
SPLINE
  5
53
330
4F
100
AcDbEntity
  8
LAYER_2
 62
     7
100
AcDbSpline
210
0.0
220
0.0
230
1.0
 70
    11
 71
     3
 72
    44
 73
    40
 74
     0
 42
0.0000000001
 43
0.0000000001
 40
0.0
 40
0.0
 40
0.0
 40
0.0
 40
1.0
 40
1.0
 40
1.0
 40
2.0
 40
2.0
 40
2.0
 40
3.0
 40
3.0
 40
3.0
 40
4.0
 40
4.0
 40
4.0
 40
5.0
 40
5.0
 40
5.0
 40
6.0
 40
6.0
 40
6.0
 40
7.0
 40
7.0
 40
7.0
 40
8.0
 40
8.0
 40
8.0
 40
9.0
 40
9.0
 40
9.0
 40
10.0
 40
10.0
 40
10.0
 40
11.0
 40
11.0
 40
11.0
 40
12.0
 40
12.0
 40
12.0
 40
13.0
 40
13.0
 40
13.0
 40
13.0
 10
103.5819634072642
 20
245.7198851924763
 30
0.0
 10
103.5819634072642
 20
245.7198851924763
 30
0.0
 10
103.4855007336772
 20
245.7622598669449
 30
0.0
 10
103.4855007336772
 20
245.7622598669449
 30
0.0
 10
103.4855007336772
 20
245.7622598669449
 30
0.0
 10
103.4434705687572
 20
245.7622598669449
 30
0.0
 10
103.4434705687572
 20
245.7622598669449
 30
0.0
 10
101.8318549007573
 20
245.7622598669449
 30
0.0
 10
100.5116943108096
 20
247.0727741895339
 30
0.0
 10
100.5010145148053
 20
248.6833563288882
 30
0.0
 10
100.5010145148053
 20
248.6833563288882
 30
0.0
 10
100.4589843498853
 20
248.7774074356355
 30
0.0
 10
100.4589843498853
 20
248.7774074356355
 30
0.0
 10
100.4589843498853
 20
248.7774074356355
 30
0.0
 10
100.4589843498853
 20
233.899073563487
 30
0.0
 10
100.4589843498853
 20
233.899073563487
 30
0.0
 10
100.4589843498853
 20
233.899073563487
 30
0.0
 10
100.4576063116912
 20
233.7950316798325
 30
0.0
 10
100.4576063116912
 20
233.7950316798325
 30
0.0
 10
100.4576063116912
 20
233.7950316798325
 30
0.0
 10
100.5010145148053
 20
233.6978799871485
 30
0.0
 10
100.5010145148053
 20
233.6978799871485
 30
0.0
 10
100.5116943108096
 20
232.0876423573427
 30
0.0
 10
101.8318549007573
 20
230.7771280347536
 30
0.0
 10
103.4434705687572
 20
230.7771280347536
 30
0.0
 10
103.4434705687572
 20
230.7771280347536
 30
0.0
 10
103.4855007336772
 20
230.7771280347536
 30
0.0
 10
103.4855007336772
 20
230.7771280347536
 30
0.0
 10
103.4855007336772
 20
230.7771280347536
 30
0.0
 10
103.5819634072642
 20
230.7344088507365
 30
0.0
 10
103.5819634072642
 20
230.7344088507365
 30
0.0
 10
103.5819634072642
 20
230.7344088507365
 30
0.0
 10
145.0519558014106
 20
230.7344088507365
 30
0.0
 10
145.0519558014106
 20
230.7344088507365
 30
0.0
 10
145.0519558014106
 20
230.7344088507365
 30
0.0
 10
145.0519558014106
 20
245.7198851924763
 30
0.0
 10
145.0519558014106
 20
245.7198851924763
 30
0.0
 10
145.0519558014106
 20
245.7198851924763
 30
0.0
 10
103.5819634072642
 20
245.7198851924763
 30
0.0
 10
103.5819634072642
 20
245.7198851924763
 30
0.0
  0
SPLINE
  5
54
330
4F
100
AcDbEntity
  8
LAYER_2
 62
     7
100
AcDbSpline
210
0.0
220
0.0
230
1.0
 70
    11
 71
     3
 72
    17
 73
    13
 74
     0
 42
0.0000000001
 43
0.0000000001
 40
0.0
 40
0.0
 40
0.0
 40
0.0
 40
1.0
 40
1.0
 40
1.0
 40
2.0
 40
2.0
 40
2.0
 40
3.0
 40
3.0
 40
3.0
 40
4.0
 40
4.0
 40
4.0
 40
4.0
 10
116.6161376661585
 20
236.9528062016125
 30
0.0
 10
117.4436496017155
 20
236.9528062016125
 30
0.0
 10
118.1161322404362
 20
237.6225327639451
 30
0.0
 10
118.1161322404362
 20
238.4528007758903
 30
0.0
 10
118.1161322404362
 20
239.2830687878355
 30
0.0
 10
117.4436496017155
 20
239.9527953501681
 30
0.0
 10
116.6161376661585
 20
239.9527953501681
 30
0.0
 10
115.7882812210529
 20
239.9527953501681
 30
0.0
 10
115.1161430918807
 20
239.2830687878355
 30
0.0
 10
115.1161430918807
 20
238.4528007758903
 30
0.0
 10
115.1161430918807
 20
237.6225327639451
 30
0.0
 10
115.7882812210529
 20
236.9528062016125
 30
0.0
 10
116.6161376661585
 20
236.9528062016125
 30
0.0
  0
ENDBLK
  5
52
330
4F
100
AcDbEntity
  8
0
100
AcDbBlockEnd
  0
BLOCK
  5
57
330
55
100
AcDbEntity
  8
0
100
AcDbBlockBegin
  2
BLOCK_6
 70
     0
 71
     0
 10
0.0
 20
0.0
 30
0.0
  3
BLOCK_6
  1

  0
SPLINE
  5
59
330
55
100
AcDbEntity
  8
LAYER_2
 62
     7
100
AcDbSpline
210
0.0
220
0.0
230
1.0
 70
    11
 71
     3
 72
    17
 73
    13
 74
     0
 42
0.0000000001
 43
0.0000000001
 40
0.0
 40
0.0
 40
0.0
 40
0.0
 40
1.0
 40
1.0
 40
1.0
 40
2.0
 40
2.0
 40
2.0
 40
3.0
 40
3.0
 40
3.0
 40
4.0
 40
4.0
 40
4.0
 40
4.0
 10
59.16985946871448
 20
308.7320596558899
 30
0.0
 10
59.99737140427149
 20
308.7320596558899
 30
0.0
 10
60.66985404299226
 20
309.4017862182225
 30
0.0
 10
60.66985404299226
 20
310.2320542301677
 30
0.0
 10
60.66985404299226
 20
311.0623222421129
 30
0.0
 10
59.99737140427149
 20
311.7320488044455
 30
0.0
 10
59.16985946871448
 20
311.7320488044455
 30
0.0
 10
58.34234753315747
 20
311.7320488044455
 30
0.0
 10
57.66986489443671
 20
311.0623222421129
 30
0.0
 10
57.66986489443671
 20
310.2320542301677
 30
0.0
 10
57.66986489443671
 20
309.4017862182225
 30
0.0
 10
58.34234753315747
 20
308.7320596558899
 30
0.0
 10
59.16985946871448
 20
308.7320596558899
 30
0.0
  0
SPLINE
  5
5A
330
55
100
AcDbEntity
  8
LAYER_2
 62
     7
100
AcDbSpline
210
0.0
220
0.0
230
1.0
 70
    11
 71
     3
 72
    32
 73
    28
 74
     0
 42
0.0000000001
 43
0.0000000001
 40
0.0
 40
0.0
 40
0.0
 40
0.0
 40
1.0
 40
1.0
 40
1.0
 40
2.0
 40
2.0
 40
2.0
 40
3.0
 40
3.0
 40
3.0
 40
4.0
 40
4.0
 40
4.0
 40
5.0
 40
5.0
 40
5.0
 40
6.0
 40
6.0
 40
6.0
 40
7.0
 40
7.0
 40
7.0
 40
8.0
 40
8.0
 40
8.0
 40
9.0
 40
9.0
 40
9.0
 40
9.0
 10
74.18427461253033
 20
266.0359577785431
 30
0.0
 10
74.18427461253033
 20
266.0359577785431
 30
0.0
 10
74.18427461253033
 20
299.9873737856802
 30
0.0
 10
74.18427461253033
 20
299.9873737856802
 30
0.0
 10
74.18427461253033
 20
299.9873737856802
 30
0.0
 10
74.18427461253033
 20
312.3762816601872
 30
0.0
 10
74.18427461253033
 20
312.3762816601872
 30
0.0
 10
74.18427461253033
 20
312.3762816601872
 30
0.0
 10
74.18427461253033
 20
314.9881808023293
 30
0.0
 10
74.18427461253033
 20
314.9881808023293
 30
0.0
 10
74.18427461253033
 20
316.635108699053
 30
0.0
 10
72.83586423960354
 20
317.9835190719799
 30
0.0
 10
71.17532821571312
 20
317.9938543584356
 30
0.0
 10
71.17532821571312
 20
317.9938543584356
 30
0.0
 10
18.34685600669801
 20
317.9938543584356
 30
0.0
 10
18.34685600669801
 20
317.9938543584356
 30
0.0
 10
18.34685600669801
 20
317.9938543584356
 30
0.0
 10
18.34685600669801
 20
302.9928750870122
 30
0.0
 10
18.34685600669801
 20
302.9928750870122
 30
0.0
 10
18.34685600669801
 20
302.9928750870122
 30
0.0
 10
68.1842963154192
 20
302.9930473417865
 30
0.0
 10
68.1842963154192
 20
302.9930473417865
 30
0.0
 10
68.1842963154192
 20
302.9930473417865
 30
0.0
 10
68.1842963154192
 20
266.0359577785431
 30
0.0
 10
68.1842963154192
 20
266.0359577785431
 30
0.0
 10
68.1842963154192
 20
266.0359577785431
 30
0.0
 10
74.18427461253033
 20
266.0359577785431
 30
0.0
 10
74.18427461253033
 20
266.0359577785431
 30
0.0
  0
ENDBLK
  5
58
330
55
100
AcDbEntity
  8
0
100
AcDbBlockEnd
  0
BLOCK
  5
5E
330
5C
100
AcDbEntity
  8
0
100
AcDbBlockBegin
  2
BLOCK_7
 70
     0
 71
     0
 10
0.0
 20
0.0
 30
0.0
  3
BLOCK_7
  1

  0
SPLINE
  5
60
330
5C
100
AcDbEntity
  8
LAYER_3
 62
     7
100
AcDbSpline
210
0.0
220
0.0
230
1.0
 70
    11
 71
     3
 72
    35
 73
    31
 74
     0
 42
0.0000000001
 43
0.0000000001
 40
0.0
 40
0.0
 40
0.0
 40
0.0
 40
1.0
 40
1.0
 40
1.0
 40
2.0
 40
2.0
 40
2.0
 40
3.0
 40
3.0
 40
3.0
 40
4.0
 40
4.0
 40
4.0
 40
5.0
 40
5.0
 40
5.0
 40
6.0
 40
6.0
 40
6.0
 40
7.0
 40
7.0
 40
7.0
 40
8.0
 40
8.0
 40
8.0
 40
9.0
 40
9.0
 40
9.0
 40
10.0
 40
10.0
 40
10.0
 40
10.0
 10
61.73680011477413
 20
248.3364352135235
 30
0.0
 10
61.73680011477413
 20
248.3364352135235
 30
0.0
 10
61.68512368249539
 20
248.3364352135235
 30
0.0
 10
61.68512368249539
 20
248.3364352135235
 30
0.0
 10
60.06179468984566
 20
248.3364352135235
 30
0.0
 10
58.73267685163628
 20
247.0266099100316
 30
0.0
 10
58.721997055632
 20
245.4122381656435
 30
0.0
 10
58.721997055632
 20
245.4122381656435
 30
0.0
 10
58.721997055632
 20
230.4271063334523
 30
0.0
 10
58.721997055632
 20
230.4271063334523
 30
0.0
 10
58.73267685163628
 20
232.0411335682918
 30
0.0
 10
60.06179468984566
 20
233.3513033813323
 30
0.0
 10
61.68512368249539
 20
233.3513033813323
 30
0.0
 10
61.68512368249539
 20
233.3513033813323
 30
0.0
 10
61.73680011477413
 20
233.3513033813323
 30
0.0
 10
61.73680011477413
 20
233.3513033813323
 30
0.0
 10
61.73680011477413
 20
233.3513033813323
 30
0.0
 10
61.83326278836113
 20
233.3940225653494
 30
0.0
 10
61.83326278836113
 20
233.3940225653494
 30
0.0
 10
61.83326278836113
 20
233.3940225653494
 30
0.0
 10
78.84617782317041
 20
233.3936780558009
 30
0.0
 10
78.84617782317041
 20
233.3936780558009
 30
0.0
 10
78.84617782317041
 20
233.3936780558009
 30
0.0
 10
78.84617782317041
 20
248.3791543975406
 30
0.0
 10
78.84617782317041
 20
248.3791543975406
 30
0.0
 10
78.84617782317041
 20
248.3791543975406
 30
0.0
 10
61.83326278836113
 20
248.3791543975406
 30
0.0
 10
61.83326278836113
 20
248.3791543975406
 30
0.0
 10
61.83326278836113
 20
248.3791543975406
 30
0.0
 10
61.73680011477413
 20
248.3364352135235
 30
0.0
 10
61.73680011477413
 20
248.3364352135235
 30
0.0
  0
SPLINE
  5
61
330
5C
100
AcDbEntity
  8
LAYER_3
 62
     7
100
AcDbSpline
210
0.0
220
0.0
230
1.0
 70
    11
 71
     3
 72
    17
 73
    13
 74
     0
 42
0.0000000001
 43
0.0000000001
 40
0.0
 40
0.0
 40
0.0
 40
0.0
 40
1.0
 40
1.0
 40
1.0
 40
2.0
 40
2.0
 40
2.0
 40
3.0
 40
3.0
 40
3.0
 40
4.0
 40
4.0
 40
4.0
 40
4.0
 10
73.73606768989931
 20
242.1607570466647
 30
0.0
 10
72.9085557543423
 20
242.1607570466647
 30
0.0
 10
72.23607311562154
 20
241.4910304843321
 30
0.0
 10
72.23607311562154
 20
240.6607624723869
 30
0.0
 10
72.23607311562154
 20
239.8304944604417
 30
0.0
 10
72.9085557543423
 20
239.1607678981091
 30
0.0
 10
73.73606768989931
 20
239.1607678981091
 30
0.0
 10
74.56357962545633
 20
239.1607678981091
 30
0.0
 10
75.2360622641771
 20
239.8304944604417
 30
0.0
 10
75.2360622641771
 20
240.6607624723869
 30
0.0
 10
75.2360622641771
 20
241.4910304843321
 30
0.0
 10
74.56357962545633
 20
242.1607570466647
 30
0.0
 10
73.73606768989931
 20
242.1607570466647
 30
0.0
  0
ENDBLK
  5
5F
330
5C
100
AcDbEntity
  8
0
100
AcDbBlockEnd
  0
BLOCK
  5
64
330
62
100
AcDbEntity
  8
0
100
AcDbBlockBegin
  2
BLOCK_8
 70
     0
 71
     0
 10
0.0
 20
0.0
 30
0.0
  3
BLOCK_8
  1

  0
SPLINE
  5
66
330
62
100
AcDbEntity
  8
LAYER_3
 62
     7
100
AcDbSpline
210
0.0
220
0.0
230
1.0
 70
    11
 71
     3
 72
    44
 73
    40
 74
     0
 42
0.0000000001
 43
0.0000000001
 40
0.0
 40
0.0
 40
0.0
 40
0.0
 40
1.0
 40
1.0
 40
1.0
 40
2.0
 40
2.0
 40
2.0
 40
3.0
 40
3.0
 40
3.0
 40
4.0
 40
4.0
 40
4.0
 40
5.0
 40
5.0
 40
5.0
 40
6.0
 40
6.0
 40
6.0
 40
7.0
 40
7.0
 40
7.0
 40
8.0
 40
8.0
 40
8.0
 40
9.0
 40
9.0
 40
9.0
 40
10.0
 40
10.0
 40
10.0
 40
11.0
 40
11.0
 40
11.0
 40
12.0
 40
12.0
 40
12.0
 40
13.0
 40
13.0
 40
13.0
 40
13.0
 10
157.9069850950719
 20
245.9166001446841
 30
0.0
 10
157.9069850950719
 20
245.9166001446841
 30
0.0
 10
157.8105224214849
 20
245.9593193287012
 30
0.0
 10
157.8105224214849
 20
245.9593193287012
 30
0.0
 10
157.8105224214849
 20
245.9593193287012
 30
0.0
 10
157.7684922565648
 20
245.9593193287012
 30
0.0
 10
157.7684922565648
 20
245.9593193287012
 30
0.0
 10
156.156876588565
 20
245.9593193287012
 30
0.0
 10
154.8367159986172
 20
247.2698336512902
 30
0.0
 10
154.8263807121615
 20
248.880071281096
 30
0.0
 10
154.8263807121615
 20
248.880071281096
 30
0.0
 10
154.7843505472414
 20
248.9744668973918
 30
0.0
 10
154.7843505472414
 20
248.9744668973918
 30
0.0
 10
154.7843505472414
 20
248.9744668973918
 30
0.0
 10
154.7843505472414
 20
234.0957885156948
 30
0.0
 10
154.7843505472414
 20
234.0957885156948
 30
0.0
 10
154.7843505472414
 20
234.0957885156948
 30
0.0
 10
154.7829725090473
 20
233.9917466320403
 30
0.0
 10
154.7829725090473
 20
233.9917466320403
 30
0.0
 10
154.7829725090473
 20
233.9917466320403
 30
0.0
 10
154.8263807121615
 20
233.8945949393562
 30
0.0
 10
154.8263807121615
 20
233.8945949393562
 30
0.0
 10
154.8367159986172
 20
232.2843573095504
 30
0.0
 10
156.156876588565
 20
230.9738429869614
 30
0.0
 10
157.7684922565648
 20
230.9738429869614
 30
0.0
 10
157.7684922565648
 20
230.9738429869614
 30
0.0
 10
157.8105224214849
 20
230.9738429869614
 30
0.0
 10
157.8105224214849
 20
230.9738429869614
 30
0.0
 10
157.8105224214849
 20
230.9738429869614
 30
0.0
 10
157.9069850950719
 20
230.9311238029443
 30
0.0
 10
157.9069850950719
 20
230.9311238029443
 30
0.0
 10
157.9069850950719
 20
230.9311238029443
 30
0.0
 10
199.3769774892183
 20
230.9311238029443
 30
0.0
 10
199.3769774892183
 20
230.9311238029443
 30
0.0
 10
199.3769774892183
 20
230.9311238029443
 30
0.0
 10
199.3769774892183
 20
245.9166001446841
 30
0.0
 10
199.3769774892183
 20
245.9166001446841
 30
0.0
 10
199.3769774892183
 20
245.9166001446841
 30
0.0
 10
157.9069850950719
 20
245.9166001446841
 30
0.0
 10
157.9069850950719
 20
245.9166001446841
 30
0.0
  0
SPLINE
  5
67
330
62
100
AcDbEntity
  8
LAYER_3
 62
     7
100
AcDbSpline
210
0.0
220
0.0
230
1.0
 70
    11
 71
     3
 72
    17
 73
    13
 74
     0
 42
0.0000000001
 43
0.0000000001
 40
0.0
 40
0.0
 40
0.0
 40
0.0
 40
1.0
 40
1.0
 40
1.0
 40
2.0
 40
2.0
 40
2.0
 40
3.0
 40
3.0
 40
3.0
 40
4.0
 40
4.0
 40
4.0
 40
4.0
 10
170.9411593539661
 20
237.1495211538203
 30
0.0
 10
171.7686712895231
 20
237.1495211538203
 30
0.0
 10
172.4411539282439
 20
237.8192477161528
 30
0.0
 10
172.4411539282439
 20
238.649515728098
 30
0.0
 10
172.4411539282439
 20
239.4797837400432
 30
0.0
 10
171.7686712895231
 20
240.1495103023758
 30
0.0
 10
170.9411593539661
 20
240.1495103023758
 30
0.0
 10
170.1136474184091
 20
240.1495103023758
 30
0.0
 10
169.4411647796883
 20
239.4797837400432
 30
0.0
 10
169.4411647796883
 20
238.649515728098
 30
0.0
 10
169.4411647796883
 20
237.8192477161528
 30
0.0
 10
170.1136474184091
 20
237.1495211538203
 30
0.0
 10
170.9411593539661
 20
237.1495211538203
 30
0.0
  0
ENDBLK
  5
65
330
62
100
AcDbEntity
  8
0
100
AcDbBlockEnd
  0
BLOCK
  5
6A
330
68
100
AcDbEntity
  8
0
100
AcDbBlockBegin
  2
BLOCK_9
 70
     0
 71
     0
 10
0.0
 20
0.0
 30
0.0
  3
BLOCK_9
  1

  0
SPLINE
  5
6C
330
68
100
AcDbEntity
  8
LAYER_3
 62
     7
100
AcDbSpline
210
0.0
220
0.0
230
1.0
 70
    11
 71
     3
 72
    17
 73
    13
 74
     0
 42
0.0000000001
 43
0.0000000001
 40
0.0
 40
0.0
 40
0.0
 40
0.0
 40
1.0
 40
1.0
 40
1.0
 40
2.0
 40
2.0
 40
2.0
 40
3.0
 40
3.0
 40
3.0
 40
4.0
 40
4.0
 40
4.0
 40
4.0
 10
98.95761173741337
 20
219.4427638882817
 30
0.0
 10
98.13009980185637
 20
219.4427638882817
 30
0.0
 10
97.4576171631356
 20
218.7730373259491
 30
0.0
 10
97.4576171631356
 20
217.9427693140039
 30
0.0
 10
97.4576171631356
 20
217.1125013020587
 30
0.0
 10
98.13009980185637
 20
216.4427747397261
 30
0.0
 10
98.95761173741337
 20
216.4427747397261
 30
0.0
 10
99.78512367297039
 20
216.4427747397261
 30
0.0
 10
100.4576063116912
 20
217.1125013020587
 30
0.0
 10
100.4576063116912
 20
217.9427693140039
 30
0.0
 10
100.4576063116912
 20
218.7730373259491
 30
0.0
 10
99.78512367297039
 20
219.4427638882817
 30
0.0
 10
98.95761173741337
 20
219.4427638882817
 30
0.0
  0
SPLINE
  5
6D
330
68
100
AcDbEntity
  8
LAYER_3
 62
     7
100
AcDbSpline
210
0.0
220
0.0
230
1.0
 70
    11
 71
     3
 72
    17
 73
    13
 74
     0
 42
0.0000000001
 43
0.0000000001
 40
0.0
 40
0.0
 40
0.0
 40
0.0
 40
1.0
 40
1.0
 40
1.0
 40
2.0
 40
2.0
 40
2.0
 40
3.0
 40
3.0
 40
3.0
 40
4.0
 40
4.0
 40
4.0
 40
4.0
 10
192.7965006028425
 20
219.4424193787331
 30
0.0
 10
191.9689886672855
 20
219.4424193787331
 30
0.0
 10
191.2965060285648
 20
218.7726928164006
 30
0.0
 10
191.2965060285648
 20
217.9424248044554
 30
0.0
 10
191.2965060285648
 20
217.1121567925102
 30
0.0
 10
191.9689886672855
 20
216.4424302301776
 30
0.0
 10
192.7965006028425
 20
216.4424302301776
 30
0.0
 10
193.6243570479481
 20
216.4424302301776
 30
0.0
 10
194.2964951771203
 20
217.1121567925102
 30
0.0
 10
194.2964951771203
 20
217.9424248044554
 30
0.0
 10
194.2964951771203
 20
218.7726928164006
 30
0.0
 10
193.6243570479481
 20
219.4424193787331
 30
0.0
 10
192.7965006028425
 20
219.4424193787331
 30
0.0
  0
SPLINE
  5
6E
330
68
100
AcDbEntity
  8
LAYER_3
 62
     7
100
AcDbSpline
210
0.0
220
0.0
230
1.0
 70
    11
 71
     3
 72
    44
 73
    40
 74
     0
 42
0.0000000001
 43
0.0000000001
 40
0.0
 40
0.0
 40
0.0
 40
0.0
 40
1.0
 40
1.0
 40
1.0
 40
2.0
 40
2.0
 40
2.0
 40
3.0
 40
3.0
 40
3.0
 40
4.0
 40
4.0
 40
4.0
 40
5.0
 40
5.0
 40
5.0
 40
6.0
 40
6.0
 40
6.0
 40
7.0
 40
7.0
 40
7.0
 40
8.0
 40
8.0
 40
8.0
 40
9.0
 40
9.0
 40
9.0
 40
10.0
 40
10.0
 40
10.0
 40
11.0
 40
11.0
 40
11.0
 40
12.0
 40
12.0
 40
12.0
 40
13.0
 40
13.0
 40
13.0
 40
13.0
 10
83.94354110314606
 20
262.13852125608
 30
0.0
 10
83.94354110314606
 20
262.13852125608
 30
0.0
 10
83.94354110314606
 20
228.1871052489428
 30
0.0
 10
83.94354110314606
 20
228.1871052489428
 30
0.0
 10
83.94354110314606
 20
228.1871052489428
 30
0.0
 10
83.94354110314606
 20
215.7985418839844
 30
0.0
 10
83.94354110314606
 20
215.7985418839844
 30
0.0
 10
83.94354110314606
 20
215.7985418839844
 30
0.0
 10
83.94354110314606
 20
213.186470487068
 30
0.0
 10
83.94354110314606
 20
213.186470487068
 30
0.0
 10
83.94354110314606
 20
211.5397148451186
 30
0.0
 10
85.29195147607285
 20
210.1913044721918
 30
0.0
 10
86.95231524518901
 20
210.180969185736
 30
0.0
 10
86.95231524518901
 20
210.180969185736
 30
0.0
 10
205.9553873183028
 20
210.1806246761875
 30
0.0
 10
205.9553873183028
 20
210.1806246761875
 30
0.0
 10
207.5852619923745
 20
210.2040513254872
 30
0.0
 10
208.9109347350987
 20
211.5517726793169
 30
0.0
 10
208.9109347350987
 20
213.1833699011312
 30
0.0
 10
208.9109347350987
 20
213.1833699011312
 30
0.0
 10
208.9536539191158
 20
213.2812106129123
 30
0.0
 10
208.9536539191158
 20
213.2812106129123
 30
0.0
 10
208.9536539191158
 20
213.2812106129123
 30
0.0
 10
208.9536539191158
 20
228.2821898843357
 30
0.0
 10
208.9536539191158
 20
228.2821898843357
 30
0.0
 10
208.9536539191158
 20
228.2821898843357
 30
0.0
 10
208.9109347350987
 20
228.1846936821031
 30
0.0
 10
208.9109347350987
 20
228.1840046630061
 30
0.0
 10
208.9109347350987
 20
226.5524074411918
 30
0.0
 10
207.5852619923745
 20
225.2050305969105
 30
0.0
 10
205.9553873183028
 20
225.1812594380623
 30
0.0
 10
205.9553873183028
 20
225.1812594380623
 30
0.0
 10
89.94351940025717
 20
225.1816039476109
 30
0.0
 10
89.94351940025717
 20
225.1816039476109
 30
0.0
 10
89.94351940025717
 20
225.1816039476109
 30
0.0
 10
89.94351940025717
 20
262.13852125608
 30
0.0
 10
89.94351940025717
 20
262.13852125608
 30
0.0
 10
89.94351940025717
 20
262.13852125608
 30
0.0
 10
83.94354110314606
 20
262.13852125608
 30
0.0
 10
83.94354110314606
 20
262.13852125608
 30
0.0
  0
ENDBLK
  5
6B
330
68
100
AcDbEntity
  8
0
100
AcDbBlockEnd
  0
BLOCK
  5
72
330
70
100
AcDbEntity
  8
0
100
AcDbBlockBegin
  2
BLOCK_10
 70
     0
 71
     0
 10
0.0
 20
0.0
 30
0.0
  3
BLOCK_10
  1

  0
SPLINE
  5
74
330
70
100
AcDbEntity
  8
LAYER_4
 62
     7
100
AcDbSpline
210
0.0
220
0.0
230
1.0
 70
    11
 71
     3
 72
    35
 73
    31
 74
     0
 42
0.0000000001
 43
0.0000000001
 40
0.0
 40
0.0
 40
0.0
 40
0.0
 40
1.0
 40
1.0
 40
1.0
 40
2.0
 40
2.0
 40
2.0
 40
3.0
 40
3.0
 40
3.0
 40
4.0
 40
4.0
 40
4.0
 40
5.0
 40
5.0
 40
5.0
 40
6.0
 40
6.0
 40
6.0
 40
7.0
 40
7.0
 40
7.0
 40
8.0
 40
8.0
 40
8.0
 40
9.0
 40
9.0
 40
9.0
 40
10.0
 40
10.0
 40
10.0
 40
10.0
 10
75.84446612687222
 20
210.0583237864611
 30
0.0
 10
75.84446612687222
 20
210.0583237864611
 30
0.0
 10
75.89614255915097
 20
210.0583237864611
 30
0.0
 10
75.89614255915097
 20
210.0583237864611
 30
0.0
 10
77.51947155180069
 20
210.0583237864611
 30
0.0
 10
78.84858939001008
 20
211.3681490899531
 30
0.0
 10
78.85926918601436
 20
212.9825208343412
 30
0.0
 10
78.85926918601436
 20
212.9825208343412
 30
0.0
 10
78.85926918601436
 20
227.9676526665324
 30
0.0
 10
78.85926918601436
 20
227.9676526665324
 30
0.0
 10
78.84858939001008
 20
226.3536254316928
 30
0.0
 10
77.51947155180069
 20
225.0434556186523
 30
0.0
 10
75.89614255915097
 20
225.0434556186523
 30
0.0
 10
75.89614255915097
 20
225.0434556186523
 30
0.0
 10
75.84446612687222
 20
225.0434556186523
 30
0.0
 10
75.84446612687222
 20
225.0434556186523
 30
0.0
 10
75.84446612687222
 20
225.0434556186523
 30
0.0
 10
75.74800345328522
 20
225.0007364346352
 30
0.0
 10
75.74800345328522
 20
225.0007364346352
 30
0.0
 10
75.74800345328522
 20
225.0007364346352
 30
0.0
 10
58.73508841847595
 20
225.0010809441838
 30
0.0
 10
58.73508841847595
 20
225.0010809441838
 30
0.0
 10
58.73508841847595
 20
225.0010809441838
 30
0.0
 10
58.73508841847595
 20
210.015604602444
 30
0.0
 10
58.73508841847595
 20
210.015604602444
 30
0.0
 10
58.73508841847595
 20
210.015604602444
 30
0.0
 10
75.74800345328522
 20
210.015604602444
 30
0.0
 10
75.74800345328522
 20
210.015604602444
 30
0.0
 10
75.74800345328522
 20
210.015604602444
 30
0.0
 10
75.84446612687222
 20
210.0583237864611
 30
0.0
 10
75.84446612687222
 20
210.0583237864611
 30
0.0
  0
SPLINE
  5
75
330
70
100
AcDbEntity
  8
LAYER_4
 62
     7
100
AcDbSpline
210
0.0
220
0.0
230
1.0
 70
    11
 71
     3
 72
    17
 73
    13
 74
     0
 42
0.0000000001
 43
0.0000000001
 40
0.0
 40
0.0
 40
0.0
 40
0.0
 40
1.0
 40
1.0
 40
1.0
 40
2.0
 40
2.0
 40
2.0
 40
3.0
 40
3.0
 40
3.0
 40
4.0
 40
4.0
 40
4.0
 40
4.0
 10
63.84519855174704
 20
216.23400195332
 30
0.0
 10
64.67271048730404
 20
216.23400195332
 30
0.0
 10
65.34519312602481
 20
216.9037285156525
 30
0.0
 10
65.34519312602481
 20
217.7339965275978
 30
0.0
 10
65.34519312602481
 20
218.564264539543
 30
0.0
 10
64.67271048730404
 20
219.2339911018755
 30
0.0
 10
63.84519855174704
 20
219.2339911018755
 30
0.0
 10
63.01768661619003
 20
219.2339911018755
 30
0.0
 10
62.34520397746926
 20
218.564264539543
 30
0.0
 10
62.34520397746926
 20
217.7339965275978
 30
0.0
 10
62.34520397746926
 20
216.9037285156525
 30
0.0
 10
63.01768661619003
 20
216.23400195332
 30
0.0
 10
63.84519855174704
 20
216.23400195332
 30
0.0
  0
ENDBLK
  5
73
330
70
100
AcDbEntity
  8
0
100
AcDbBlockEnd
  0
BLOCK
  5
78
330
76
100
AcDbEntity
  8
0
100
AcDbBlockBegin
  2
BLOCK_11
 70
     0
 71
     0
 10
0.0
 20
0.0
 30
0.0
  3
BLOCK_11
  1

  0
SPLINE
  5
7A
330
76
100
AcDbEntity
  8
LAYER_4
 62
     7
100
AcDbSpline
210
0.0
220
0.0
230
1.0
 70
    11
 71
     3
 72
    17
 73
    13
 74
     0
 42
0.0000000001
 43
0.0000000001
 40
0.0
 40
0.0
 40
0.0
 40
0.0
 40
1.0
 40
1.0
 40
1.0
 40
2.0
 40
2.0
 40
2.0
 40
3.0
 40
3.0
 40
3.0
 40
4.0
 40
4.0
 40
4.0
 40
4.0
 10
34.05700818376005
 20
240.6414699376695
 30
0.0
 10
33.22949624820304
 20
240.6414699376695
 30
0.0
 10
32.55701360948228
 20
239.9717433753369
 30
0.0
 10
32.55701360948228
 20
239.1414753633917
 30
0.0
 10
32.55701360948228
 20
238.3112073514465
 30
0.0
 10
33.22949624820304
 20
237.641480789114
 30
0.0
 10
34.05700818376005
 20
237.641480789114
 30
0.0
 10
34.88486462886559
 20
237.641480789114
 30
0.0
 10
35.55700275803783
 20
238.3112073514465
 30
0.0
 10
35.55700275803783
 20
239.1414753633917
 30
0.0
 10
35.55700275803783
 20
239.9717433753369
 30
0.0
 10
34.88486462886559
 20
240.6414699376695
 30
0.0
 10
34.05700818376005
 20
240.6414699376695
 30
0.0
  0
SPLINE
  5
7B
330
76
100
AcDbEntity
  8
LAYER_4
 62
     7
100
AcDbSpline
210
0.0
220
0.0
230
1.0
 70
    11
 71
     3
 72
    44
 73
    40
 74
     0
 42
0.0000000001
 43
0.0000000001
 40
0.0
 40
0.0
 40
0.0
 40
0.0
 40
1.0
 40
1.0
 40
1.0
 40
2.0
 40
2.0
 40
2.0
 40
3.0
 40
3.0
 40
3.0
 40
4.0
 40
4.0
 40
4.0
 40
5.0
 40
5.0
 40
5.0
 40
6.0
 40
6.0
 40
6.0
 40
7.0
 40
7.0
 40
7.0
 40
8.0
 40
8.0
 40
8.0
 40
9.0
 40
9.0
 40
9.0
 40
10.0
 40
10.0
 40
10.0
 40
11.0
 40
11.0
 40
11.0
 40
12.0
 40
12.0
 40
12.0
 40
13.0
 40
13.0
 40
13.0
 40
13.0
 10
47.09118244265429
 20
231.8743909468057
 30
0.0
 10
47.09118244265429
 20
231.8743909468057
 30
0.0
 10
47.18764511624128
 20
231.8316717627886
 30
0.0
 10
47.18764511624128
 20
231.8316717627886
 30
0.0
 10
47.18764511624128
 20
231.8316717627886
 30
0.0
 10
47.22967528116133
 20
231.8316717627886
 30
0.0
 10
47.22967528116133
 20
231.8316717627886
 30
0.0
 10
48.84129094916121
 20
231.8316717627886
 30
0.0
 10
50.16145153910895
 20
230.5211574401996
 30
0.0
 10
50.17213133511322
 20
228.9109198103938
 30
0.0
 10
50.17213133511322
 20
228.9109198103938
 30
0.0
 10
50.21416150003327
 20
228.816524194098
 30
0.0
 10
50.21416150003327
 20
228.816524194098
 30
0.0
 10
50.21416150003327
 20
228.816524194098
 30
0.0
 10
50.21416150003327
 20
243.695202575795
 30
0.0
 10
50.21416150003327
 20
243.695202575795
 30
0.0
 10
50.21416150003327
 20
243.695202575795
 30
0.0
 10
50.21553953822737
 20
243.7992444594495
 30
0.0
 10
50.21553953822737
 20
243.7992444594495
 30
0.0
 10
50.21553953822737
 20
243.7992444594495
 30
0.0
 10
50.17213133511322
 20
243.8963961521335
 30
0.0
 10
50.17213133511322
 20
243.8963961521335
 30
0.0
 10
50.16145153910895
 20
245.5066337819393
 30
0.0
 10
48.84129094916121
 20
246.8171481045284
 30
0.0
 10
47.22967528116133
 20
246.8171481045284
 30
0.0
 10
47.22967528116133
 20
246.8171481045284
 30
0.0
 10
47.18764511624128
 20
246.8171481045284
 30
0.0
 10
47.18764511624128
 20
246.8171481045284
 30
0.0
 10
47.18764511624128
 20
246.8171481045284
 30
0.0
 10
47.09118244265429
 20
246.8598672885455
 30
0.0
 10
47.09118244265429
 20
246.8598672885455
 30
0.0
 10
47.09118244265429
 20
246.8598672885455
 30
0.0
 10
5.621190048507898
 20
246.8598672885455
 30
0.0
 10
5.621190048507898
 20
246.8598672885455
 30
0.0
 10
5.621190048507898
 20
246.8598672885455
 30
0.0
 10
5.621190048507898
 20
231.8743909468057
 30
0.0
 10
5.621190048507898
 20
231.8743909468057
 30
0.0
 10
5.621190048507898
 20
231.8743909468057
 30
0.0
 10
47.09118244265429
 20
231.8743909468057
 30
0.0
 10
47.09118244265429
 20
231.8743909468057
 30
0.0
  0
ENDBLK
  5
79
330
76
100
AcDbEntity
  8
0
100
AcDbBlockEnd
  0
BLOCK
  5
7E
330
7C
100
AcDbEntity
  8
0
100
AcDbBlockBegin
  2
BLOCK_12
 70
     0
 71
     0
 10
0.0
 20
0.0
 30
0.0
  3
BLOCK_12
  1

  0
SPLINE
  5
80
330
7C
100
AcDbEntity
  8
LAYER_4
 62
     7
100
AcDbSpline
210
0.0
220
0.0
230
1.0
 70
    11
 71
     3
 72
    17
 73
    13
 74
     0
 42
0.0000000001
 43
0.0000000001
 40
0.0
 40
0.0
 40
0.0
 40
0.0
 40
1.0
 40
1.0
 40
1.0
 40
2.0
 40
2.0
 40
2.0
 40
3.0
 40
3.0
 40
3.0
 40
4.0
 40
4.0
 40
4.0
 40
4.0
 10
98.95761173741337
 20
284.1173691781026
 30
0.0
 10
98.13009980185637
 20
284.1173691781026
 30
0.0
 10
97.45796167268412
 20
283.4476426157701
 30
0.0
 10
97.45796167268412
 20
282.6173746038248
 30
0.0
 10
97.45796167268412
 20
281.7871065918796
 30
0.0
 10
98.13009980185637
 20
281.1173800295471
 30
0.0
 10
98.95761173741337
 20
281.1173800295471
 30
0.0
 10
99.78546818251891
 20
281.1173800295471
 30
0.0
 10
100.4576063116912
 20
281.7871065918796
 30
0.0
 10
100.4576063116912
 20
282.6173746038248
 30
0.0
 10
100.4576063116912
 20
283.4476426157701
 30
0.0
 10
99.78546818251891
 20
284.1173691781026
 30
0.0
 10
98.95761173741337
 20
284.1173691781026
 30
0.0
  0
SPLINE
  5
81
330
7C
100
AcDbEntity
  8
LAYER_4
 62
     7
100
AcDbSpline
210
0.0
220
0.0
230
1.0
 70
    11
 71
     3
 72
    17
 73
    13
 74
     0
 42
0.0000000001
 43
0.0000000001
 40
0.0
 40
0.0
 40
0.0
 40
0.0
 40
1.0
 40
1.0
 40
1.0
 40
2.0
 40
2.0
 40
2.0
 40
3.0
 40
3.0
 40
3.0
 40
4.0
 40
4.0
 40
4.0
 40
4.0
 10
192.7965006028425
 20
284.1173691781026
 30
0.0
 10
191.9689886672855
 20
284.1173691781026
 30
0.0
 10
191.2965060285648
 20
283.4476426157701
 30
0.0
 10
191.2965060285648
 20
282.6173746038248
 30
0.0
 10
191.2965060285648
 20
281.7871065918796
 30
0.0
 10
191.9689886672855
 20
281.1173800295471
 30
0.0
 10
192.7965006028425
 20
281.1173800295471
 30
0.0
 10
193.6243570479481
 20
281.1173800295471
 30
0.0
 10
194.2964951771203
 20
281.7871065918796
 30
0.0
 10
194.2964951771203
 20
282.6173746038248
 30
0.0
 10
194.2964951771203
 20
283.4476426157701
 30
0.0
 10
193.6243570479481
 20
284.1173691781026
 30
0.0
 10
192.7965006028425
 20
284.1173691781026
 30
0.0
  0
SPLINE
  5
82
330
7C
100
AcDbEntity
  8
LAYER_4
 62
     7
100
AcDbSpline
210
0.0
220
0.0
230
1.0
 70
    11
 71
     3
 72
    44
 73
    40
 74
     0
 42
0.0000000001
 43
0.0000000001
 40
0.0
 40
0.0
 40
0.0
 40
0.0
 40
1.0
 40
1.0
 40
1.0
 40
2.0
 40
2.0
 40
2.0
 40
3.0
 40
3.0
 40
3.0
 40
4.0
 40
4.0
 40
4.0
 40
5.0
 40
5.0
 40
5.0
 40
6.0
 40
6.0
 40
6.0
 40
7.0
 40
7.0
 40
7.0
 40
8.0
 40
8.0
 40
8.0
 40
9.0
 40
9.0
 40
9.0
 40
10.0
 40
10.0
 40
10.0
 40
11.0
 40
11.0
 40
11.0
 40
12.0
 40
12.0
 40
12.0
 40
13.0
 40
13.0
 40
13.0
 40
13.0
 10
83.94354110314606
 20
326.8132988006752
 30
0.0
 10
83.94354110314606
 20
326.8132988006752
 30
0.0
 10
83.94354110314606
 20
292.8620550483123
 30
0.0
 10
83.94354110314606
 20
292.8620550483123
 30
0.0
 10
83.94354110314606
 20
292.8620550483123
 30
0.0
 10
83.94354110314606
 20
280.4731471738053
 30
0.0
 10
83.94354110314606
 20
280.4731471738053
 30
0.0
 10
83.94354110314606
 20
280.4731471738053
 30
0.0
 10
83.94354110314606
 20
277.8612480316632
 30
0.0
 10
83.94354110314606
 20
277.8612480316632
 30
0.0
 10
83.94354110314606
 20
276.2143201349395
 30
0.0
 10
85.29195147607285
 20
274.8659097620127
 30
0.0
 10
86.95248749996327
 20
274.855574475557
 30
0.0
 10
86.95248749996327
 20
274.855574475557
 30
0.0
 10
205.9553873183028
 20
274.8557467303312
 30
0.0
 10
205.9553873183028
 20
274.8557467303312
 30
0.0
 10
207.5852619923745
 20
274.8793456344052
 30
0.0
 10
208.9109347350987
 20
276.2267224786864
 30
0.0
 10
208.9109347350987
 20
277.858491955275
 30
0.0
 10
208.9109347350987
 20
277.858491955275
 30
0.0
 10
208.9536539191158
 20
277.9565049218303
 30
0.0
 10
208.9536539191158
 20
277.9565049218303
 30
0.0
 10
208.9536539191158
 20
277.9565049218303
 30
0.0
 10
208.9536539191158
 20
292.9573119384794
 30
0.0
 10
208.9536539191158
 20
292.9573119384794
 30
0.0
 10
208.9536539191158
 20
292.9573119384794
 30
0.0
 10
208.9109347350987
 20
292.8596434814726
 30
0.0
 10
208.9109347350987
 20
292.8592989719241
 30
0.0
 10
208.9109347350987
 20
291.2275294953355
 30
0.0
 10
207.5852619923745
 20
289.8801526510543
 30
0.0
 10
205.9553873183028
 20
289.8565537469803
 30
0.0
 10
205.9553873183028
 20
289.8565537469803
 30
0.0
 10
89.94351940025717
 20
289.8563814922061
 30
0.0
 10
89.94351940025717
 20
289.8563814922061
 30
0.0
 10
89.94351940025717
 20
289.8563814922061
 30
0.0
 10
89.94351940025717
 20
326.8132988006752
 30
0.0
 10
89.94351940025717
 20
326.8132988006752
 30
0.0
 10
89.94351940025717
 20
326.8132988006752
 30
0.0
 10
83.94354110314606
 20
326.8132988006752
 30
0.0
 10
83.94354110314606
 20
326.8132988006752
 30
0.0
  0
ENDBLK
  5
7F
330
7C
100
AcDbEntity
  8
0
100
AcDbBlockEnd
  0
BLOCK
  5
86
330
84
100
AcDbEntity
  8
0
100
AcDbBlockBegin
  2
BLOCK_13
 70
     0
 71
     0
 10
0.0
 20
0.0
 30
0.0
  3
BLOCK_13
  1

  0
SPLINE
  5
88
330
84
100
AcDbEntity
  8
LAYER_5
 62
     7
100
AcDbSpline
210
0.0
220
0.0
230
1.0
 70
    11
 71
     3
 72
    17
 73
    13
 74
     0
 42
0.0000000001
 43
0.0000000001
 40
0.0
 40
0.0
 40
0.0
 40
0.0
 40
1.0
 40
1.0
 40
1.0
 40
2.0
 40
2.0
 40
2.0
 40
3.0
 40
3.0
 40
3.0
 40
4.0
 40
4.0
 40
4.0
 40
4.0
 10
204.986281958302
 20
260.5937404404939
 30
0.0
 10
205.8137938938591
 20
260.5937404404939
 30
0.0
 10
206.4855875134828
 20
261.2634670028265
 30
0.0
 10
206.4855875134828
 20
262.0937350147717
 30
0.0
 10
206.4855875134828
 20
262.9240030267169
 30
0.0
 10
205.8137938938591
 20
263.5937295890495
 30
0.0
 10
204.986281958302
 20
263.5937295890495
 30
0.0
 10
204.158081003648
 20
263.5937295890495
 30
0.0
 10
203.4862873840243
 20
262.9240030267169
 30
0.0
 10
203.4862873840243
 20
262.0937350147717
 30
0.0
 10
203.4862873840243
 20
261.2634670028265
 30
0.0
 10
204.158081003648
 20
260.5937404404939
 30
0.0
 10
204.986281958302
 20
260.5937404404939
 30
0.0
  0
SPLINE
  5
89
330
84
100
AcDbEntity
  8
LAYER_5
 62
     7
100
AcDbSpline
210
0.0
220
0.0
230
1.0
 70
    11
 71
     3
 72
    17
 73
    13
 74
     0
 42
0.0000000001
 43
0.0000000001
 40
0.0
 40
0.0
 40
0.0
 40
0.0
 40
1.0
 40
1.0
 40
1.0
 40
2.0
 40
2.0
 40
2.0
 40
3.0
 40
3.0
 40
3.0
 40
4.0
 40
4.0
 40
4.0
 40
4.0
 10
111.1473930928729
 20
260.5937404404939
 30
0.0
 10
111.9749050284299
 20
260.5937404404939
 30
0.0
 10
112.6473876671507
 20
261.2634670028265
 30
0.0
 10
112.6473876671507
 20
262.0937350147717
 30
0.0
 10
112.6473876671507
 20
262.9240030267169
 30
0.0
 10
111.9749050284299
 20
263.5937295890495
 30
0.0
 10
111.1473930928729
 20
263.5937295890495
 30
0.0
 10
110.3191921382188
 20
263.5937295890495
 30
0.0
 10
109.6473985185951
 20
262.9240030267169
 30
0.0
 10
109.6473985185951
 20
262.0937350147717
 30
0.0
 10
109.6473985185951
 20
261.2634670028265
 30
0.0
 10
110.3191921382188
 20
260.5937404404939
 30
0.0
 10
111.1473930928729
 20
260.5937404404939
 30
0.0
  0
SPLINE
  5
8A
330
84
100
AcDbEntity
  8
LAYER_5
 62
     7
100
AcDbSpline
210
0.0
220
0.0
230
1.0
 70
    11
 71
     3
 72
    44
 73
    40
 74
     0
 42
0.0000000001
 43
0.0000000001
 40
0.0
 40
0.0
 40
0.0
 40
0.0
 40
1.0
 40
1.0
 40
1.0
 40
2.0
 40
2.0
 40
2.0
 40
3.0
 40
3.0
 40
3.0
 40
4.0
 40
4.0
 40
4.0
 40
5.0
 40
5.0
 40
5.0
 40
6.0
 40
6.0
 40
6.0
 40
7.0
 40
7.0
 40
7.0
 40
8.0
 40
8.0
 40
8.0
 40
9.0
 40
9.0
 40
9.0
 40
10.0
 40
10.0
 40
10.0
 40
11.0
 40
11.0
 40
11.0
 40
12.0
 40
12.0
 40
12.0
 40
13.0
 40
13.0
 40
13.0
 40
13.0
 10
220.0000080830208
 20
217.8979830726957
 30
0.0
 10
220.0000080830208
 20
217.8979830726957
 30
0.0
 10
220.0000080830208
 20
251.8490545702843
 30
0.0
 10
220.0000080830208
 20
251.8490545702843
 30
0.0
 10
220.0000080830208
 20
251.8490545702843
 30
0.0
 10
220.0000080830208
 20
264.2379624447912
 30
0.0
 10
220.0000080830208
 20
264.2379624447912
 30
0.0
 10
220.0000080830208
 20
264.2379624447912
 30
0.0
 10
220.0000080830208
 20
266.8500338417077
 30
0.0
 10
220.0000080830208
 20
266.8500338417077
 30
0.0
 10
220.0000080830208
 20
268.496789483657
 30
0.0
 10
218.6515977100941
 20
269.8451998565839
 30
0.0
 10
216.9910616862036
 20
269.8555351430396
 30
0.0
 10
216.9910616862036
 20
269.8555351430396
 30
0.0
 10
97.98833412263834
 20
269.8555351430396
 30
0.0
 10
97.98833412263834
 20
269.8555351430396
 30
0.0
 10
96.35845944856663
 20
269.8317639841914
 30
0.0
 10
95.0327867058425
 20
268.4843871399102
 30
0.0
 10
95.0327867058425
 20
266.8527899180958
 30
0.0
 10
95.0327867058425
 20
266.8527899180958
 30
0.0
 10
94.99006752182541
 20
266.7546046967663
 30
0.0
 10
94.99006752182541
 20
266.7546046967663
 30
0.0
 10
94.99006752182541
 20
266.7546046967663
 30
0.0
 10
94.99006752182541
 20
251.7536254253428
 30
0.0
 10
94.99006752182541
 20
251.7536254253428
 30
0.0
 10
94.99006752182541
 20
251.7536254253428
 30
0.0
 10
95.0327867058425
 20
251.851466137124
 30
0.0
 10
95.0327867058425
 20
251.8518106466725
 30
0.0
 10
95.0327867058425
 20
253.4837523780353
 30
0.0
 10
96.35845944856663
 20
254.830784712768
 30
0.0
 10
97.98833412263834
 20
254.8545558716162
 30
0.0
 10
97.98833412263834
 20
254.8545558716162
 30
0.0
 10
214.0000297859097
 20
254.8549003811648
 30
0.0
 10
214.0000297859097
 20
254.8549003811648
 30
0.0
 10
214.0000297859097
 20
254.8549003811648
 30
0.0
 10
214.0000297859097
 20
217.8979830726957
 30
0.0
 10
214.0000297859097
 20
217.8979830726957
 30
0.0
 10
214.0000297859097
 20
217.8979830726957
 30
0.0
 10
220.0000080830208
 20
217.8979830726957
 30
0.0
 10
220.0000080830208
 20
217.8979830726957
 30
0.0
  0
ENDBLK
  5
87
330
84
100
AcDbEntity
  8
0
100
AcDbBlockEnd
  0
BLOCK
  5
8E
330
8C
100
AcDbEntity
  8
0
100
AcDbBlockBegin
  2
BLOCK_14
 70
     0
 71
     0
 10
0.0
 20
0.0
 30
0.0
  3
BLOCK_14
  1

  0
SPLINE
  5
90
330
8C
100
AcDbEntity
  8
LAYER_6
 62
     7
100
AcDbSpline
210
0.0
220
0.0
230
1.0
 70
    11
 71
     3
 72
    17
 73
    13
 74
     0
 42
0.0000000001
 43
0.0000000001
 40
0.0
 40
0.0
 40
0.0
 40
0.0
 40
1.0
 40
1.0
 40
1.0
 40
2.0
 40
2.0
 40
2.0
 40
3.0
 40
3.0
 40
3.0
 40
4.0
 40
4.0
 40
4.0
 40
4.0
 10
204.986281958302
 20
317.5513318433552
 30
0.0
 10
205.8137938938591
 20
317.5513318433552
 30
0.0
 10
206.4859320230313
 20
318.2210584056878
 30
0.0
 10
206.4859320230313
 20
319.051326417633
 30
0.0
 10
206.4859320230313
 20
319.8815944295782
 30
0.0
 10
205.8137938938591
 20
320.5513209919108
 30
0.0
 10
204.986281958302
 20
320.5513209919108
 30
0.0
 10
204.1584255131965
 20
320.5513209919108
 30
0.0
 10
203.4862873840243
 20
319.8815944295782
 30
0.0
 10
203.4862873840243
 20
319.051326417633
 30
0.0
 10
203.4862873840243
 20
318.2210584056878
 30
0.0
 10
204.1584255131965
 20
317.5513318433552
 30
0.0
 10
204.986281958302
 20
317.5513318433552
 30
0.0
  0
SPLINE
  5
91
330
8C
100
AcDbEntity
  8
LAYER_6
 62
     7
100
AcDbSpline
210
0.0
220
0.0
230
1.0
 70
    11
 71
     3
 72
    17
 73
    13
 74
     0
 42
0.0000000001
 43
0.0000000001
 40
0.0
 40
0.0
 40
0.0
 40
0.0
 40
1.0
 40
1.0
 40
1.0
 40
2.0
 40
2.0
 40
2.0
 40
3.0
 40
3.0
 40
3.0
 40
4.0
 40
4.0
 40
4.0
 40
4.0
 10
204.986281958302
 20
316.0513372690775
 30
0.0
 10
206.6413058294161
 20
316.0513372690775
 30
0.0
 10
207.9859265973091
 20
317.3906181389683
 30
0.0
 10
207.9859265973091
 20
319.051326417633
 30
0.0
 10
207.9859265973091
 20
320.7120346962977
 30
0.0
 10
206.6413058294161
 20
322.0513155661886
 30
0.0
 10
204.986281958302
 20
322.0513155661886
 30
0.0
 10
203.330569068091
 20
322.0513155661886
 30
0.0
 10
201.9862928097465
 20
320.7120346962977
 30
0.0
 10
201.9862928097465
 20
319.051326417633
 30
0.0
 10
201.9862928097465
 20
317.3906181389683
 30
0.0
 10
203.330569068091
 20
316.0513372690775
 30
0.0
 10
204.986281958302
 20
316.0513372690775
 30
0.0
  0
SPLINE
  5
92
330
8C
100
AcDbEntity
  8
LAYER_6
 62
     7
100
AcDbSpline
210
0.0
220
0.0
230
1.0
 70
    11
 71
     3
 72
    17
 73
    13
 74
     0
 42
0.0000000001
 43
0.0000000001
 40
0.0
 40
0.0
 40
0.0
 40
0.0
 40
1.0
 40
1.0
 40
1.0
 40
2.0
 40
2.0
 40
2.0
 40
3.0
 40
3.0
 40
3.0
 40
4.0
 40
4.0
 40
4.0
 40
4.0
 10
111.1473930928729
 20
317.5513318433552
 30
0.0
 10
111.9749050284299
 20
317.5513318433552
 30
0.0
 10
112.6473876671507
 20
318.2210584056878
 30
0.0
 10
112.6473876671507
 20
319.051326417633
 30
0.0
 10
112.6473876671507
 20
319.8815944295782
 30
0.0
 10
111.9749050284299
 20
320.5513209919108
 30
0.0
 10
111.1473930928729
 20
320.5513209919108
 30
0.0
 10
110.3191921382188
 20
320.5513209919108
 30
0.0
 10
109.6473985185951
 20
319.8815944295782
 30
0.0
 10
109.6473985185951
 20
319.051326417633
 30
0.0
 10
109.6473985185951
 20
318.2210584056878
 30
0.0
 10
110.3191921382188
 20
317.5513318433552
 30
0.0
 10
111.1473930928729
 20
317.5513318433552
 30
0.0
  0
SPLINE
  5
93
330
8C
100
AcDbEntity
  8
LAYER_6
 62
     7
100
AcDbSpline
210
0.0
220
0.0
230
1.0
 70
    11
 71
     3
 72
    17
 73
    13
 74
     0
 42
0.0000000001
 43
0.0000000001
 40
0.0
 40
0.0
 40
0.0
 40
0.0
 40
1.0
 40
1.0
 40
1.0
 40
2.0
 40
2.0
 40
2.0
 40
3.0
 40
3.0
 40
3.0
 40
4.0
 40
4.0
 40
4.0
 40
4.0
 10
111.1473930928729
 20
316.0513372690775
 30
0.0
 10
112.8024169639869
 20
316.0513372690775
 30
0.0
 10
114.1466932223314
 20
317.3906181389683
 30
0.0
 10
114.1466932223314
 20
319.051326417633
 30
0.0
 10
114.1466932223314
 20
320.7120346962977
 30
0.0
 10
112.8024169639869
 20
322.0513155661886
 30
0.0
 10
111.1473930928729
 20
322.0513155661886
 30
0.0
 10
109.4916802026618
 20
322.0513155661886
 30
0.0
 10
108.1474039443173
 20
320.7120346962977
 30
0.0
 10
108.1474039443173
 20
319.051326417633
 30
0.0
 10
108.1474039443173
 20
317.3906181389683
 30
0.0
 10
109.4916802026618
 20
316.0513372690775
 30
0.0
 10
111.1473930928729
 20
316.0513372690775
 30
0.0
  0
SPLINE
  5
94
330
8C
100
AcDbEntity
  8
LAYER_6
 62
     7
100
AcDbSpline
210
0.0
220
0.0
230
1.0
 70
    11
 71
     3
 72
    17
 73
    13
 74
     0
 42
0.0000000001
 43
0.0000000001
 40
0.0
 40
0.0
 40
0.0
 40
0.0
 40
1.0
 40
1.0
 40
1.0
 40
2.0
 40
2.0
 40
2.0
 40
3.0
 40
3.0
 40
3.0
 40
4.0
 40
4.0
 40
4.0
 40
4.0
 10
157.0085041925187
 20
317.5513318433552
 30
0.0
 10
157.8360161280757
 20
317.5513318433552
 30
0.0
 10
158.5084987667965
 20
318.2210584056878
 30
0.0
 10
158.5084987667965
 20
319.051326417633
 30
0.0
 10
158.5084987667965
 20
319.8815944295782
 30
0.0
 10
157.8360161280757
 20
320.5513209919108
 30
0.0
 10
157.0085041925187
 20
320.5513209919108
 30
0.0
 10
156.1803032378646
 20
320.5513209919108
 30
0.0
 10
155.5085096182409
 20
319.8815944295782
 30
0.0
 10
155.5085096182409
 20
319.051326417633
 30
0.0
 10
155.5085096182409
 20
318.2210584056878
 30
0.0
 10
156.1803032378646
 20
317.5513318433552
 30
0.0
 10
157.0085041925187
 20
317.5513318433552
 30
0.0
  0
SPLINE
  5
95
330
8C
100
AcDbEntity
  8
LAYER_6
 62
     7
100
AcDbSpline
210
0.0
220
0.0
230
1.0
 70
    11
 71
     3
 72
    44
 73
    40
 74
     0
 42
0.0000000001
 43
0.0000000001
 40
0.0
 40
0.0
 40
0.0
 40
0.0
 40
1.0
 40
1.0
 40
1.0
 40
2.0
 40
2.0
 40
2.0
 40
3.0
 40
3.0
 40
3.0
 40
4.0
 40
4.0
 40
4.0
 40
5.0
 40
5.0
 40
5.0
 40
6.0
 40
6.0
 40
6.0
 40
7.0
 40
7.0
 40
7.0
 40
8.0
 40
8.0
 40
8.0
 40
9.0
 40
9.0
 40
9.0
 40
10.0
 40
10.0
 40
10.0
 40
11.0
 40
11.0
 40
11.0
 40
12.0
 40
12.0
 40
12.0
 40
13.0
 40
13.0
 40
13.0
 40
13.0
 10
220.0000080830208
 20
274.8554022207827
 30
0.0
 10
220.0000080830208
 20
274.8554022207827
 30
0.0
 10
220.0000080830208
 20
308.8066459731456
 30
0.0
 10
220.0000080830208
 20
308.8066459731456
 30
0.0
 10
220.0000080830208
 20
308.8066459731456
 30
0.0
 10
220.0000080830208
 20
321.1955538476525
 30
0.0
 10
220.0000080830208
 20
321.1955538476525
 30
0.0
 10
220.0000080830208
 20
321.1955538476525
 30
0.0
 10
220.0000080830208
 20
323.8074529897947
 30
0.0
 10
220.0000080830208
 20
323.8074529897947
 30
0.0
 10
220.0000080830208
 20
325.4543808865184
 30
0.0
 10
218.6515977100941
 20
326.8027912594451
 30
0.0
 10
216.9914061957521
 20
326.8131265459009
 30
0.0
 10
216.9914061957521
 20
326.8131265459009
 30
0.0
 10
97.98833412263834
 20
326.8129542911266
 30
0.0
 10
97.98833412263834
 20
326.8129542911266
 30
0.0
 10
96.35845944856663
 20
326.7893553870527
 30
0.0
 10
95.0327867058425
 20
325.4419785427714
 30
0.0
 10
95.0327867058425
 20
323.8102090661829
 30
0.0
 10
95.0327867058425
 20
323.8102090661829
 30
0.0
 10
94.99006752182541
 20
323.7121960996275
 30
0.0
 10
94.99006752182541
 20
323.7121960996275
 30
0.0
 10
94.99006752182541
 20
323.7121960996275
 30
0.0
 10
94.99006752182541
 20
308.7113890829784
 30
0.0
 10
94.99006752182541
 20
308.7113890829784
 30
0.0
 10
94.99006752182541
 20
308.7113890829784
 30
0.0
 10
95.0327867058425
 20
308.8090575399852
 30
0.0
 10
95.0327867058425
 20
308.8094020495338
 30
0.0
 10
95.0327867058425
 20
310.4411715261223
 30
0.0
 10
96.35845944856663
 20
311.7885483704036
 30
0.0
 10
97.98833412263834
 20
311.8121472744775
 30
0.0
 10
97.98833412263834
 20
311.8121472744775
 30
0.0
 10
214.0000297859097
 20
311.8123195292518
 30
0.0
 10
214.0000297859097
 20
311.8123195292518
 30
0.0
 10
214.0000297859097
 20
311.8123195292518
 30
0.0
 10
214.0000297859097
 20
274.8554022207827
 30
0.0
 10
214.0000297859097
 20
274.8554022207827
 30
0.0
 10
214.0000297859097
 20
274.8554022207827
 30
0.0
 10
220.0000080830208
 20
274.8554022207827
 30
0.0
 10
220.0000080830208
 20
274.8554022207827
 30
0.0
  0
ENDBLK
  5
8F
330
8C
100
AcDbEntity
  8
0
100
AcDbBlockEnd
  0
ENDSEC
  0
SECTION
  2
ENTITIES
  0
INSERT
  5
3D
330
1F
100
AcDbEntity
  8
LAYER_1
100
AcDbBlockReference
  2
BLOCK_2
 10
0.0
 20
0.0
 30
0.0
  0
INSERT
  5
43
330
1F
100
AcDbEntity
  8
LAYER_1
100
AcDbBlockReference
  2
BLOCK_3
 10
0.0
 20
0.0
 30
0.0
  0
INSERT
  5
49
330
1F
100
AcDbEntity
  8
LAYER_1
100
AcDbBlockReference
  2
BLOCK_4
 10
0.0
 20
0.0
 30
0.0
  0
INSERT
  5
50
330
1F
100
AcDbEntity
  8
LAYER_2
100
AcDbBlockReference
  2
BLOCK_5
 10
0.0
 20
0.0
 30
0.0
  0
INSERT
  5
56
330
1F
100
AcDbEntity
  8
LAYER_2
100
AcDbBlockReference
  2
BLOCK_6
 10
0.0
 20
0.0
 30
0.0
  0
INSERT
  5
5D
330
1F
100
AcDbEntity
  8
LAYER_3
100
AcDbBlockReference
  2
BLOCK_7
 10
0.0
 20
0.0
 30
0.0
  0
INSERT
  5
63
330
1F
100
AcDbEntity
  8
LAYER_3
100
AcDbBlockReference
  2
BLOCK_8
 10
0.0
 20
0.0
 30
0.0
  0
INSERT
  5
69
330
1F
100
AcDbEntity
  8
LAYER_3
100
AcDbBlockReference
  2
BLOCK_9
 10
0.0
 20
0.0
 30
0.0
  0
INSERT
  5
71
330
1F
100
AcDbEntity
  8
LAYER_4
100
AcDbBlockReference
  2
BLOCK_10
 10
0.0
 20
0.0
 30
0.0
  0
INSERT
  5
77
330
1F
100
AcDbEntity
  8
LAYER_4
100
AcDbBlockReference
  2
BLOCK_11
 10
0.0
 20
0.0
 30
0.0
  0
INSERT
  5
7D
330
1F
100
AcDbEntity
  8
LAYER_4
100
AcDbBlockReference
  2
BLOCK_12
 10
0.0
 20
0.0
 30
0.0
  0
INSERT
  5
85
330
1F
100
AcDbEntity
  8
LAYER_5
100
AcDbBlockReference
  2
BLOCK_13
 10
0.0
 20
0.0
 30
0.0
  0
INSERT
  5
8D
330
1F
100
AcDbEntity
  8
LAYER_6
100
AcDbBlockReference
  2
BLOCK_14
 10
0.0
 20
0.0
 30
0.0
  0
ENDSEC
  0
SECTION
  2
OBJECTS
  0
DICTIONARY
  5
C
330
0
100
AcDbDictionary
  3
ACAD_GROUP
350
D
  3
ACAD_LAYOUT
350
1A
  3
ACAD_MLINESTYLE
350
17
  3
ACAD_PLOTSETTINGS
350
19
  3
ACAD_TABLESTYLE
350
97
  3
ACAD_VISUALSTYLE
350
2A
1001
ACAD
1000
TREAT_AS_HARD
1070
     0
  0
DICTIONARY
  5
D
102
{ACAD_REACTORS
330
C
102
}
330
C
100
AcDbDictionary
1001
ACAD
1000
TREAT_AS_HARD
1070
     0
  0
DICTIONARY
  5
1A
102
{ACAD_REACTORS
330
C
102
}
330
C
100
AcDbDictionary
1001
ACAD
1000
TREAT_AS_HARD
1070
     0
  0
DICTIONARY
  5
17
102
{ACAD_REACTORS
330
C
102
}
330
C
100
AcDbDictionary
  3
STANDARD
350
18
1001
ACAD
1000
TREAT_AS_HARD
1070
     0
  0
DICTIONARY
  5
19
102
{ACAD_REACTORS
330
C
102
}
330
C
100
AcDbDictionary
1001
ACAD
1000
TREAT_AS_HARD
1070
     0
  0
DICTIONARY
  5
97
102
{ACAD_REACTORS
330
C
102
}
330
C
100
AcDbDictionary
1001
ACAD
1000
TREAT_AS_HARD
1070
     0
  0
DICTIONARY
  5
2A
102
{ACAD_REACTORS
330
C
102
}
330
C
100
AcDbDictionary
  3
2DWIREFRAME
350
2F
  3
3D_HIDDEN
350
31
  3
3DWIREFRAME
350
30
  3
BASIC
350
32
  3
BRIGHTEN
350
36
  3
COLORCHANGE
350
3A
  3
CONCEPTUAL
350
34
  3
DIM
350
35
  3
FACEPATTERN
350
39
  3
FLAT
350
2B
  3
FLATWITHEDGES
350
2C
  3
GOURAUD
350
2D
  3
GOURAUDWITHEDGES
350
2E
  3
LINEPATTERN
350
38
  3
REALISTIC
350
33
  3
THICKEN
350
37
1001
ACAD
1000
TREAT_AS_HARD
1070
     0
  0
MLINESTYLE
  5
18
102
{ACAD_REACTORS
330
17
102
}
330
17
100
AcDbMlineStyle
  2
Standard
 70
     0
  3

 62
   256
 51
90.0
 52
90.0
 71
     2
 49
0.5
 62
   256
  6
BYLAYER
 49
-0.5
 62
   256
  6
BYLAYER
  0
VISUALSTYLE
  5
2F
102
{ACAD_REACTORS
330
2A
102
}
330
2A
100
AcDbVisualStyle
  2
2dWireframe
 70
     4
 71
     0
 72
     2
 73
     0
 90
        0
 40
-0.6
 41
-30.0
 62
     5
 63
     7
 74
     1
 91
        4
 64
     7
 65
   257
 75
     1
175
     1
 42
1.0
 92
        0
 66
   257
 43
1.0
 76
     1
 77
     6
 78
     2
 67
     7
 79
     5
170
     0
171
     0
290
     0
174
     0
 93
        1
 44
0.0
173
     0
291
     0
 45
0.0
1001
ACAD
1000
AcDbSavedByObjectVersion
1070
     0
  0
VISUALSTYLE
  5
31
102
{ACAD_REACTORS
330
2A
102
}
330
2A
100
AcDbVisualStyle
  2
3D Hidden
 70
     6
 71
     1
 72
     2
 73
     2
 90
        0
 40
-0.6
 41
-30.0
 62
     5
 63
     7
 74
     2
 91
        2
 64
     7
 65
   257
 75
     2
175
     1
 42
40.0
 92
        0
 66
   257
 43
1.0
 76
     1
 77
     6
 78
     2
 67
     7
 79
     3
170
     0
171
     0
290
     0
174
     0
 93
        1
 44
0.0
173
     0
291
     0
 45
0.0
1001
ACAD
1000
AcDbSavedByObjectVersion
1070
     0
  0
VISUALSTYLE
  5
30
102
{ACAD_REACTORS
330
2A
102
}
330
2A
100
AcDbVisualStyle
  2
3dWireframe
 70
     5
 71
     0
 72
     2
 73
     0
 90
        0
 40
-0.6
 41
-30.0
 62
     5
 63
     7
 74
     1
 91
        4
 64
     7
 65
   257
 75
     1
175
     1
 42
1.0
 92
        0
 66
   257
 43
1.0
 76
     1
 77
     6
 78
     2
 67
     7
 79
     5
170
     0
171
     0
290
     0
174
     0
 93
        1
 44
0.0
173
     0
291
     0
 45
0.0
1001
ACAD
1000
AcDbSavedByObjectVersion
1070
     0
  0
VISUALSTYLE
  5
32
102
{ACAD_REACTORS
330
2A
102
}
330
2A
100
AcDbVisualStyle
  2
Basic
 70
     7
 71
     1
 72
     0
 73
     1
 90
        0
 40
-0.6
 41
-30.0
 62
     5
 63
     7
 74
     0
 91
        4
 64
     7
 65
   257
 75
     1
175
     1
 42
1.0
 92
        8
 66
     7
 43
1.0
 76
     1
 77
     6
 78
     2
 67
     7
 79
     5
170
     0
171
     0
290
     0
174
     0
 93
        1
 44
0.0
173
     0
291
     1
 45
0.0
1001
ACAD
1000
AcDbSavedByObjectVersion
1070
     0
  0
VISUALSTYLE
  5
36
102
{ACAD_REACTORS
330
2A
102
}
330
2A
100
AcDbVisualStyle
  2
Brighten
 70
    12
 71
     2
 72
     2
 73
     0
 90
        0
 40
-0.6
 41
-30.0
 62
     5
 63
     7
 74
     1
 91
        4
 64
     7
 65
   257
 75
     1
175
     1
 42
1.0
 92
        8
 66
     7
 43
1.0
 76
     1
 77
     6
 78
     2
 67
     7
 79
     5
170
     0
171
     0
290
     0
174
     0
 93
        1
 44
50.0
173
     0
291
     1
 45
0.0
1001
ACAD
1000
AcDbSavedByObjectVersion
1070
     0
  0
VISUALSTYLE
  5
3A
102
{ACAD_REACTORS
330
2A
102
}
330
2A
100
AcDbVisualStyle
  2
ColorChange
 70
    16
 71
     2
 72
     2
 73
     3
 90
        0
 40
-0.6
 41
-30.0
 62
     5
 63
     8
 74
     1
 91
        4
 64
     7
 65
   257
 75
     1
175
     1
 42
1.0
 92
        8
 66
     8
 43
1.0
 76
     1
 77
     6
 78
     2
 67
     7
 79
     5
170
     0
171
     0
290
     0
174
     0
 93
        1
 44
0.0
173
     0
291
     1
 45
0.0
1001
ACAD
1000
AcDbSavedByObjectVersion
1070
     0
  0
VISUALSTYLE
  5
34
102
{ACAD_REACTORS
330
2A
102
}
330
2A
100
AcDbVisualStyle
  2
Conceptual
 70
     9
 71
     3
 72
     2
 73
     0
 90
        0
 40
-0.6
 41
-30.0
 62
     5
 63
     7
 74
     2
 91
        2
 64
     7
 65
   257
 75
     1
175
     1
 42
40.0
 92
        8
 66
     7
 43
1.0
 76
     1
 77
     6
 78
     2
 67
     7
 79
     3
170
     0
171
     0
290
     0
174
     0
 93
        1
 44
0.0
173
     0
291
     0
 45
0.0
1001
ACAD
1000
AcDbSavedByObjectVersion
1070
     0
  0
VISUALSTYLE
  5
35
102
{ACAD_REACTORS
330
2A
102
}
330
2A
100
AcDbVisualStyle
  2
Dim
 70
    11
 71
     2
 72
     2
 73
     0
 90
        0
 40
-0.6
 41
-30.0
 62
     5
 63
     7
 74
     1
 91
        4
 64
     7
 65
   257
 75
     1
175
     1
 42
1.0
 92
        8
 66
     7
 43
1.0
 76
     1
 77
     6
 78
     2
 67
     7
 79
     5
170
     0
171
     0
290
     0
174
     0
 93
        1
 44
-50.0
173
     0
291
     1
 45
0.0
1001
ACAD
1000
AcDbSavedByObjectVersion
1070
     0
  0
VISUALSTYLE
  5
39
102
{ACAD_REACTORS
330
2A
102
}
330
2A
100
AcDbVisualStyle
  2
Facepattern
 70
    15
 71
     2
 72
     2
 73
     0
 90
        0
 40
-0.6
 41
-30.0
 62
     5
 63
     7
 74
     1
 91
        4
 64
     7
 65
   257
 75
     1
175
     1
 42
1.0
 92
        8
 66
     7
 43
1.0
 76
     1
 77
     6
 78
     2
 67
     7
 79
     5
170
     0
171
     0
290
     0
174
     0
 93
        1
 44
0.0
173
     0
291
     1
 45
0.0
1001
ACAD
1000
AcDbSavedByObjectVersion
1070
     0
  0
VISUALSTYLE
  5
2B
102
{ACAD_REACTORS
330
2A
102
}
330
2A
100
AcDbVisualStyle
  2
Flat
 70
     0
 71
     2
 72
     1
 73
     1
 90
        2
 40
-0.6
 41
30.0
 62
     5
 63
     7
 74
     0
 91
        4
 64
     7
 65
   257
 75
     1
175
     1
 42
1.0
 92
        8
 66
     7
 43
1.0
 76
     1
 77
     6
 78
     2
 67
     7
 79
     5
170
     0
171
     0
290
     0
174
     0
 93
       13
 44
0.0
173
     0
291
     1
 45
0.0
1001
ACAD
1000
AcDbSavedByObjectVersion
1070
     0
  0
VISUALSTYLE
  5
2C
102
{ACAD_REACTORS
330
2A
102
}
330
2A
100
AcDbVisualStyle
  2
FlatWithEdges
 70
     1
 71
     2
 72
     1
 73
     1
 90
        2
 40
-0.6
 41
30.0
 62
     5
 63
     7
 74
     1
 91
        4
 64
     7
 65
   257
 75
     1
175
     1
 42
1.0
 92
        0
 66
   257
 43
1.0
 76
     1
 77
     6
 78
     2
 67
     7
 79
     5
170
     0
171
     0
290
     0
174
     0
 93
       13
 44
0.0
173
     0
291
     1
 45
0.0
1001
ACAD
1000
AcDbSavedByObjectVersion
1070
     0
  0
VISUALSTYLE
  5
2D
102
{ACAD_REACTORS
330
2A
102
}
330
2A
100
AcDbVisualStyle
  2
Gouraud
 70
     2
 71
     2
 72
     2
 73
     1
 90
        2
 40
-0.6
 41
30.0
 62
     5
 63
     7
 74
     0
 91
        4
 64
     7
 65
   257
 75
     1
175
     1
 42
1.0
 92
        0
 66
     7
 43
1.0
 76
     1
 77
     6
 78
     2
 67
     7
 79
     5
170
     0
171
     0
290
     0
174
     0
 93
       13
 44
0.0
173
     0
291
     1
 45
0.0
1001
ACAD
1000
AcDbSavedByObjectVersion
1070
     0
  0
VISUALSTYLE
  5
2E
102
{ACAD_REACTORS
330
2A
102
}
330
2A
100
AcDbVisualStyle
  2
GouraudWithEdges
 70
     3
 71
     2
 72
     2
 73
     1
 90
        2
 40
-0.6
 41
30.0
 62
     5
 63
     7
 74
     1
 91
        4
 64
     7
 65
   257
 75
     1
175
     1
 42
1.0
 92
        0
 66
   257
 43
1.0
 76
     1
 77
     6
 78
     2
 67
     7
 79
     5
170
     0
171
     0
290
     0
174
     0
 93
       13
 44
0.0
173
     0
291
     1
 45
0.0
1001
ACAD
1000
AcDbSavedByObjectVersion
1070
     0
  0
VISUALSTYLE
  5
38
102
{ACAD_REACTORS
330
2A
102
}
330
2A
100
AcDbVisualStyle
  2
Linepattern
 70
    14
 71
     2
 72
     2
 73
     0
 90
        0
 40
-0.6
 41
-30.0
 62
     5
 63
     7
 74
     1
 91
        4
 64
     7
 65
   257
 75
     7
175
     7
 42
1.0
 92
        8
 66
     7
 43
1.0
 76
     1
 77
     6
 78
     2
 67
     7
 79
     5
170
     0
171
     0
290
     0
174
     0
 93
        1
 44
0.0
173
     0
291
     1
 45
0.0
1001
ACAD
1000
AcDbSavedByObjectVersion
1070
     0
  0
VISUALSTYLE
  5
33
102
{ACAD_REACTORS
330
2A
102
}
330
2A
100
AcDbVisualStyle
  2
Realistic
 70
     8
 71
     2
 72
     2
 73
     0
 90
        0
 40
-0.6
 41
-30.0
 62
     5
 63
     7
 74
     1
 91
        0
 64
     7
 65
   257
 75
     1
175
     1
 42
1.0
 92
        8
 66
     8
 43
1.0
 76
     1
 77
     6
 78
     2
 67
     7
 79
     5
170
     0
171
     0
290
     0
174
     0
 93
       13
 44
0.0
173
     0
291
     0
 45
0.0
1001
ACAD
1000
AcDbSavedByObjectVersion
1070
     0
  0
VISUALSTYLE
  5
37
102
{ACAD_REACTORS
330
2A
102
}
330
2A
100
AcDbVisualStyle
  2
Thicken
 70
    13
 71
     2
 72
     2
 73
     0
 90
        0
 40
-0.6
 41
-30.0
 62
     5
 63
     7
 74
     1
 91
        4
 64
     7
 65
   257
 75
     1
175
     1
 42
1.0
 92
       12
 66
     7
 43
1.0
 76
     1
 77
     6
 78
     2
 67
     7
 79
     5
170
     0
171
     0
290
     0
174
     0
 93
        1
 44
0.0
173
     0
291
     1
 45
0.0
1001
ACAD
1000
AcDbSavedByObjectVersion
1070
     0
  0
ENDSEC
  0
EOF
