  0
SECTION
  2
HEADER
  9
$ACADVER
  1
AC1012
  9
$DWGCODEPAGE
  3
ansi_1252
  9
$INSBASE
 10
0.0
 20
0.0
 30
0.0
  9
$EXTMIN
 10
1.000000000000000E+20
 20
1.000000000000000E+20
 30
1.000000000000000E+20
  9
$EXTMAX
 10
-1.000000000000000E+20
 20
-1.000000000000000E+20
 30
-1.000000000000000E+20
  9
$LIMMIN
 10
0.0
 20
0.0
  9
$LIMMAX
 10
12.0
 20
9.0
  9
$ORTHOMODE
 70
     0
  9
$REGENMODE
 70
     1
  9
$FILLMODE
 70
     1
  9
$QTEXTMODE
 70
     0
  9
$MIRRTEXT
 70
     1
  9
$DRAGMODE
 70
     2
  9
$LTSCALE
 40
1.0
  9
$OSMODE
 70
    37
  9
$ATTMODE
 70
     1
  9
$TEXTSIZE
 40
0.2
  9
$TRACEWID
 40
0.05
  9
$TEXTSTYLE
  7
STANDARD
  9
$CLAYER
  8
0
  9
$CELTYPE
  6
BYLAYER
  9
$CECOLOR
 62
   256
  9
$CELTSCALE
 40
1.0
  9
$DELOBJ
 70
     1
  9
$DISPSILH
 70
     0
  9
$DIMSCALE
 40
1.0
  9
$DIMASZ
 40
0.18
  9
$DIMEXO
 40
0.0625
  9
$DIMDLI
 40
0.38
  9
$DIMRND
 40
0.0
  9
$DIMDLE
 40
0.0
  9
$DIMEXE
 40
0.18
  9
$DIMTP
 40
0.0
  9
$DIMTM
 40
0.0
  9
$DIMTXT
 40
0.18
  9
$DIMCEN
 40
0.09
  9
$DIMTSZ
 40
0.0
  9
$DIMTOL
 70
     0
  9
$DIMLIM
 70
     0
  9
$DIMTIH
 70
     1
  9
$DIMTOH
 70
     1
  9
$DIMSE1
 70
     0
  9
$DIMSE2
 70
     0
  9
$DIMTAD
 70
     0
  9
$DIMZIN
 70
     0
  9
$DIMBLK
  1

  9
$DIMASO
 70
     1
  9
$DIMSHO
 70
     1
  9
$DIMPOST
  1

  9
$DIMAPOST
  1

  9
$DIMALT
 70
     0
  9
$DIMALTD
 70
     2
  9
$DIMALTF
 40
25.4
  9
$DIMLFAC
 40
1.0
  9
$DIMTOFL
 70
     0
  9
$DIMTVP
 40
0.0
  9
$DIMTIX
 70
     0
  9
$DIMSOXD
 70
     0
  9
$DIMSAH
 70
     0
  9
$DIMBLK1
  1

  9
$DIMBLK2
  1

  9
$DIMSTYLE
  2
STANDARD
  9
$DIMCLRD
 70
     0
  9
$DIMCLRE
 70
     0
  9
$DIMCLRT
 70
     0
  9
$DIMTFAC
 40
1.0
  9
$DIMGAP
 40
0.09
  9
$DIMJUST
 70
     0
  9
$DIMSD1
 70
     0
  9
$DIMSD2
 70
     0
  9
$DIMTOLJ
 70
     1
  9
$DIMTZIN
 70
     0
  9
$DIMALTZ
 70
     0
  9
$DIMALTTZ
 70
     0
  9
$DIMFIT
 70
     3
  9
$DIMUPT
 70
     0
  9
$DIMUNIT
 70
     2
  9
$DIMDEC
 70
     4
  9
$DIMTDEC
 70
     4
  9
$DIMALTU
 70
     2
  9
$DIMALTTD
 70
     2
  9
$DIMTXSTY
  7
STANDARD
  9
$DIMAUNIT
 70
     0
  9
$LUNITS
 70
     2
  9
$LUPREC
 70
     4
  9
$SKETCHINC
 40
0.1
  9
$FILLETRAD
 40
0.5
  9
$AUNITS
 70
     0
  9
$AUPREC
 70
     0
  9
$MENU
  1
.
  9
$ELEVATION
 40
0.0
  9
$PELEVATION
 40
0.0
  9
$THICKNESS
 40
0.0
  9
$LIMCHECK
 70
     0
  9
$CHAMFERA
 40
0.5
  9
$CHAMFERB
 40
0.5
  9
$CHAMFERC
 40
1.0
  9
$CHAMFERD
 40
0.0
  9
$SKPOLY
 70
     0
  9
$TDCREATE
 40
2457356.585194687
  9
$TDUPDATE
 40
2457356.585194699
  9
$TDINDWG
 40
0.0000000116
  9
$TDUSRTIMER
 40
0.0000000116
  9
$USRTIMER
 70
     1
  9
$ANGBASE
 50
0.0
  9
$ANGDIR
 70
     0
  9
$PDMODE
 70
     0
  9
$PDSIZE
 40
0.0
  9
$PLINEWID
 40
0.0
  9
$COORDS
 70
     1
  9
$SPLFRAME
 70
     0
  9
$SPLINETYPE
 70
     6
  9
$SPLINESEGS
 70
     8
  9
$ATTDIA
 70
     0
  9
$ATTREQ
 70
     1
  9
$HANDLING
 70
     1
  9
$HANDSEED
  5
65
  9
$SURFTAB1
 70
     6
  9
$SURFTAB2
 70
     6
  9
$SURFTYPE
 70
     6
  9
$SURFU
 70
     6
  9
$SURFV
 70
     6
  9
$UCSNAME
  2

  9
$UCSORG
 10
0.0
 20
0.0
 30
0.0
  9
$UCSXDIR
 10
1.0
 20
0.0
 30
0.0
  9
$UCSYDIR
 10
0.0
 20
1.0
 30
0.0
  9
$PUCSNAME
  2

  9
$PUCSORG
 10
0.0
 20
0.0
 30
0.0
  9
$PUCSXDIR
 10
1.0
 20
0.0
 30
0.0
  9
$PUCSYDIR
 10
0.0
 20
1.0
 30
0.0
  9
$USERI1
 70
     0
  9
$USERI2
 70
     0
  9
$USERI3
 70
     0
  9
$USERI4
 70
     0
  9
$USERI5
 70
     0
  9
$USERR1
 40
0.0
  9
$USERR2
 40
0.0
  9
$USERR3
 40
0.0
  9
$USERR4
 40
0.0
  9
$USERR5
 40
0.0
  9
$WORLDVIEW
 70
     1
  9
$SHADEDGE
 70
     3
  9
$SHADEDIF
 70
    70
  9
$TILEMODE
 70
     1
  9
$MAXACTVP
 70
    64
  9
$PINSBASE
 10
0.0
 20
0.0
 30
0.0
  9
$PLIMCHECK
 70
     0
  9
$PEXTMIN
 10
1.000000000000000E+20
 20
1.000000000000000E+20
 30
1.000000000000000E+20
  9
$PEXTMAX
 10
-1.000000000000000E+20
 20
-1.000000000000000E+20
 30
-1.000000000000000E+20
  9
$PLIMMIN
 10
0.0
 20
0.0
  9
$PLIMMAX
 10
12.0
 20
9.0
  9
$UNITMODE
 70
     0
  9
$VISRETAIN
 70
     1
  9
$PLINEGEN
 70
     0
  9
$PSLTSCALE
 70
     1
  9
$TREEDEPTH
 70
  3020
  9
$PICKSTYLE
 70
     1
  9
$CMLSTYLE
  2
STANDARD
  9
$CMLJUST
 70
     0
  9
$CMLSCALE
 40
1.0
  9
$SAVEIMAGES
 70
     1
  0
ENDSEC
  0
SECTION
  2
CLASSES
  0
CLASS
  1
ACDBDICTIONARYWDFLT
  2
AcDbDictionaryWithDefault
  3
ObjectDBX Classes
 90
    32768
280
     0
281
     0
  0
CLASS
  1
VISUALSTYLE
  2
AcDbVisualStyle
  3
ObjectDBX Classes
 90
     4095
280
     0
281
     0
  0
CLASS
  1
XRECORD
  2
AcDbXrecord
  3
AutoCAD 2000
 90
    32768
280
     0
281
     0
  0
CLASS
  1
LWPOLYLINE
  2
AcDbPolyline
  3
AutoCAD 2000
 90
    32768
280
     0
281
     1
  0
CLASS
  1
HATCH
  2
AcDbHatch
  3
AutoCAD 2000
 90
    32768
280
     0
281
     1
  0
CLASS
  1
ACDBPLACEHOLDER
  2
AcDbPlaceHolder
  3
ObjectDBX Classes
 90
        0
280
     0
281
     0
  0
CLASS
  1
LAYOUT
  2
AcDbLayout
  3
ObjectDBX Classes
 90
        0
280
     0
281
     0
  0
ENDSEC
  0
SECTION
  2
TABLES
  0
TABLE
  2
VPORT
  5
8
330
0
100
AcDbSymbolTable
 70
     1
  0
VPORT
  5
29
330
8
100
AcDbSymbolTableRecord
100
AcDbViewportTableRecord
  2
*ACTIVE
 70
     0
 10
0.0
 20
0.0
 11
1.0
 21
1.0
 12
0.0
 22
0.0
 13
0.0
 23
0.0
 14
0.5
 24
0.5
 15
0.5
 25
0.5
 16
0.0
 26
0.0
 36
1.0
 17
148.4999796178229
 27
105.0008259828644
 37
0.0
 40
210.0016519657288
 41
1.414274394775308
 42
50.0
 43
0.0
 44
0.0
 50
0.0
 51
0.0
 71
     0
 72
   100
 73
     1
 74
     3
 75
     0
 76
     0
 77
     0
 78
     0
  0
ENDTAB
  0
TABLE
  2
LTYPE
  5
5
330
0
100
AcDbSymbolTable
 70
     1
  0
LTYPE
  5
14
330
5
100
AcDbSymbolTableRecord
100
AcDbLinetypeTableRecord
  2
BYBLOCK
 70
     0
  3

 72
    65
 73
     0
 40
0.0
  0
LTYPE
  5
15
330
5
100
AcDbSymbolTableRecord
100
AcDbLinetypeTableRecord
  2
BYLAYER
 70
     0
  3

 72
    65
 73
     0
 40
0.0
  0
LTYPE
  5
16
330
5
100
AcDbSymbolTableRecord
100
AcDbLinetypeTableRecord
  2
CONTINUOUS
 70
     0
  3
Solid line
 72
    65
 73
     0
 40
0.0
  0
ENDTAB
  0
TABLE
  2
LAYER
  5
2
330
0
100
AcDbSymbolTable
 70
     2
  0
LAYER
  5
10
330
2
100
AcDbSymbolTableRecord
100
AcDbLayerTableRecord
  2
0
 70
     0
 62
     7
  6
CONTINUOUS
  0
LAYER
  5
3B
330
2
100
AcDbSymbolTableRecord
100
AcDbLayerTableRecord
  2
LAYER_1
 70
     0
 62
     7
  6
CONTINUOUS
  0
ENDTAB
  0
TABLE
  2
STYLE
  5
3
330
0
100
AcDbSymbolTable
 70
     1
  0
STYLE
  5
11
330
3
100
AcDbSymbolTableRecord
100
AcDbTextStyleTableRecord
  2
STANDARD
 70
     0
 40
0.0
 41
1.0
 50
0.0
 71
     0
 42
0.2
  3
txt
  4

  0
ENDTAB
  0
TABLE
  2
VIEW
  5
6
330
0
100
AcDbSymbolTable
 70
     0
  0
ENDTAB
  0
TABLE
  2
UCS
  5
7
330
0
100
AcDbSymbolTable
 70
     0
  0
ENDTAB
  0
TABLE
  2
APPID
  5
9
330
0
100
AcDbSymbolTable
 70
     1
  0
APPID
  5
12
330
9
100
AcDbSymbolTableRecord
100
AcDbRegAppTableRecord
  2
ACAD
 70
     0
  0
ENDTAB
  0
TABLE
  2
DIMSTYLE
  5
A
330
0
100
AcDbSymbolTable
 70
     1
  0
DIMSTYLE
105
27
330
A
100
AcDbSymbolTableRecord
100
AcDbDimStyleTableRecord
  2
STANDARD
 70
     0
  3

  4

  5

  6

  7

 40
1.0
 41
0.18
 42
0.0625
 43
0.38
 44
0.18
 45
0.0
 46
0.0
 47
0.0
 48
0.0
140
0.18
141
0.09
142
0.0
143
25.4
144
1.0
145
0.0
146
1.0
147
0.09
 71
     0
 72
     0
 73
     1
 74
     1
 75
     0
 76
     0
 77
     0
 78
     0
170
     0
171
     2
172
     0
173
     0
174
     0
175
     0
176
     0
177
     0
178
     0
270
     2
271
     4
272
     4
273
     2
274
     2
340
11
275
     0
280
     0
281
     0
282
     0
283
     1
284
     0
285
     0
286
     0
287
     3
288
     0
  0
ENDTAB
  0
TABLE
  2
BLOCK_RECORD
  5
1
330
0
100
AcDbSymbolTable
 70
     7
  0
BLOCK_RECORD
  5
1F
330
1
100
AcDbSymbolTableRecord
100
AcDbBlockTableRecord
  2
*MODEL_SPACE
  0
BLOCK_RECORD
  5
1B
330
1
100
AcDbSymbolTableRecord
100
AcDbBlockTableRecord
  2
*PAPER_SPACE
  0
BLOCK_RECORD
  5
3C
330
1
100
AcDbSymbolTableRecord
100
AcDbBlockTableRecord
  2
BLOCK_2
  0
BLOCK_RECORD
  5
42
330
1
100
AcDbSymbolTableRecord
100
AcDbBlockTableRecord
  2
BLOCK_3
  0
BLOCK_RECORD
  5
48
330
1
100
AcDbSymbolTableRecord
100
AcDbBlockTableRecord
  2
BLOCK_4
  0
BLOCK_RECORD
  5
4E
330
1
100
AcDbSymbolTableRecord
100
AcDbBlockTableRecord
  2
BLOCK_5
  0
BLOCK_RECORD
  5
54
330
1
100
AcDbSymbolTableRecord
100
AcDbBlockTableRecord
  2
BLOCK_6
  0
BLOCK_RECORD
  5
5A
330
1
100
AcDbSymbolTableRecord
100
AcDbBlockTableRecord
  2
BLOCK_7
  0
ENDTAB
  0
ENDSEC
  0
SECTION
  2
BLOCKS
  0
BLOCK
  5
20
330
1F
100
AcDbEntity
  8
0
100
AcDbBlockBegin
  2
*MODEL_SPACE
 70
     0
 71
     0
 10
0.0
 20
0.0
 30
0.0
  3
*MODEL_SPACE
  1

  0
ENDBLK
  5
21
330
1F
100
AcDbEntity
  8
0
100
AcDbBlockEnd
  0
BLOCK
  5
1C
330
1B
100
AcDbEntity
 67
     1
  8
0
100
AcDbBlockBegin
  2
*PAPER_SPACE
 70
     0
 71
     0
 10
0.0
 20
0.0
 30
0.0
  3
*PAPER_SPACE
  1

  0
ENDBLK
  5
1D
330
1B
100
AcDbEntity
 67
     1
  8
0
100
AcDbBlockEnd
  0
BLOCK
  5
3E
330
3C
100
AcDbEntity
  8
0
100
AcDbBlockBegin
  2
BLOCK_2
 70
     0
 71
     0
 10
0.0
 20
0.0
 30
0.0
  3
BLOCK_2
  1

  0
SPLINE
  5
40
330
3C
100
AcDbEntity
  8
LAYER_1
 62
     7
100
AcDbSpline
210
0.0
220
0.0
230
1.0
 70
    11
 71
     3
 72
    35
 73
    31
 74
     0
 42
0.0000000001
 43
0.0000000001
 40
0.0
 40
0.0
 40
0.0
 40
0.0
 40
1.0
 40
1.0
 40
1.0
 40
2.0
 40
2.0
 40
2.0
 40
3.0
 40
3.0
 40
3.0
 40
4.0
 40
4.0
 40
4.0
 40
5.0
 40
5.0
 40
5.0
 40
6.0
 40
6.0
 40
6.0
 40
7.0
 40
7.0
 40
7.0
 40
8.0
 40
8.0
 40
8.0
 40
9.0
 40
9.0
 40
9.0
 40
10.0
 40
10.0
 40
10.0
 40
10.0
 10
161.6356119387578
 20
210.725638781954
 30
0.0
 10
161.6356119387578
 20
210.725638781954
 30
0.0
 10
161.686943861488
 20
210.725638781954
 30
0.0
 10
161.686943861488
 20
210.725638781954
 30
0.0
 10
163.3106173636862
 20
210.725638781954
 30
0.0
 10
164.6400797114441
 20
212.035464085446
 30
0.0
 10
164.6504149978999
 20
213.6498358298341
 30
0.0
 10
164.6504149978999
 20
213.6498358298341
 30
0.0
 10
164.6504149978999
 20
228.6349676620253
 30
0.0
 10
164.6504149978999
 20
228.6349676620253
 30
0.0
 10
164.6400797114441
 20
227.0209404271857
 30
0.0
 10
163.3106173636862
 20
225.7107706141452
 30
0.0
 10
161.686943861488
 20
225.7107706141452
 30
0.0
 10
161.686943861488
 20
225.7107706141452
 30
0.0
 10
161.6356119387578
 20
225.7107706141452
 30
0.0
 10
161.6356119387578
 20
225.7107706141452
 30
0.0
 10
161.6356119387578
 20
225.7107706141452
 30
0.0
 10
161.5391492651708
 20
225.6680514301281
 30
0.0
 10
161.5391492651708
 20
225.6680514301281
 30
0.0
 10
161.5391492651708
 20
225.6680514301281
 30
0.0
 10
144.5262342303615
 20
225.6683959396767
 30
0.0
 10
144.5262342303615
 20
225.6683959396767
 30
0.0
 10
144.5262342303615
 20
225.6683959396767
 30
0.0
 10
144.5262342303615
 20
210.6829195979369
 30
0.0
 10
144.5262342303615
 20
210.6829195979369
 30
0.0
 10
144.5262342303615
 20
210.6829195979369
 30
0.0
 10
161.5391492651708
 20
210.6829195979369
 30
0.0
 10
161.5391492651708
 20
210.6829195979369
 30
0.0
 10
161.5391492651708
 20
210.6829195979369
 30
0.0
 10
161.6356119387578
 20
210.725638781954
 30
0.0
 10
161.6356119387578
 20
210.725638781954
 30
0.0
  0
SPLINE
  5
41
330
3C
100
AcDbEntity
  8
LAYER_1
 62
     7
100
AcDbSpline
210
0.0
220
0.0
230
1.0
 70
    11
 71
     3
 72
    17
 73
    13
 74
     0
 42
0.0000000001
 43
0.0000000001
 40
0.0
 40
0.0
 40
0.0
 40
0.0
 40
1.0
 40
1.0
 40
1.0
 40
2.0
 40
2.0
 40
2.0
 40
3.0
 40
3.0
 40
3.0
 40
4.0
 40
4.0
 40
4.0
 40
4.0
 10
149.6363443636326
 20
216.9013169488129
 30
0.0
 10
150.4638562991896
 20
216.9013169488129
 30
0.0
 10
151.1359944283618
 20
217.5710435111454
 30
0.0
 10
151.1359944283618
 20
218.4013115230906
 30
0.0
 10
151.1359944283618
 20
219.2315795350359
 30
0.0
 10
150.4638562991896
 20
219.9013060973684
 30
0.0
 10
149.6363443636326
 20
219.9013060973684
 30
0.0
 10
148.808487918527
 20
219.9013060973684
 30
0.0
 10
148.1363497893548
 20
219.2315795350359
 30
0.0
 10
148.1363497893548
 20
218.4013115230906
 30
0.0
 10
148.1363497893548
 20
217.5710435111454
 30
0.0
 10
148.808487918527
 20
216.9013169488129
 30
0.0
 10
149.6363443636326
 20
216.9013169488129
 30
0.0
  0
ENDBLK
  5
3F
330
3C
100
AcDbEntity
  8
0
100
AcDbBlockEnd
  0
BLOCK
  5
44
330
42
100
AcDbEntity
  8
0
100
AcDbBlockBegin
  2
BLOCK_3
 70
     0
 71
     0
 10
0.0
 20
0.0
 30
0.0
  3
BLOCK_3
  1

  0
SPLINE
  5
46
330
42
100
AcDbEntity
  8
LAYER_1
 62
     7
100
AcDbSpline
210
0.0
220
0.0
230
1.0
 70
    11
 71
     3
 72
    35
 73
    31
 74
     0
 42
0.0000000001
 43
0.0000000001
 40
0.0
 40
0.0
 40
0.0
 40
0.0
 40
1.0
 40
1.0
 40
1.0
 40
2.0
 40
2.0
 40
2.0
 40
3.0
 40
3.0
 40
3.0
 40
4.0
 40
4.0
 40
4.0
 40
5.0
 40
5.0
 40
5.0
 40
6.0
 40
6.0
 40
6.0
 40
7.0
 40
7.0
 40
7.0
 40
8.0
 40
8.0
 40
8.0
 40
9.0
 40
9.0
 40
9.0
 40
10.0
 40
10.0
 40
10.0
 40
10.0
 10
17.10937770839627
 20
210.0443711497459
 30
0.0
 10
17.10937770839627
 20
210.0443711497459
 30
0.0
 10
17.16070963112649
 20
210.0443711497459
 30
0.0
 10
17.16070963112649
 20
210.0443711497459
 30
0.0
 10
18.78438313332474
 20
210.0443711497459
 30
0.0
 10
20.11384548108265
 20
211.3541964532378
 30
0.0
 10
20.1241807675384
 20
212.9685681976259
 30
0.0
 10
20.1241807675384
 20
212.9685681976259
 30
0.0
 10
20.1241807675384
 20
227.9537000298171
 30
0.0
 10
20.1241807675384
 20
227.9537000298171
 30
0.0
 10
20.11384548108265
 20
226.3396727949776
 30
0.0
 10
18.78438313332474
 20
225.0295029819371
 30
0.0
 10
17.16070963112649
 20
225.0295029819371
 30
0.0
 10
17.16070963112649
 20
225.0295029819371
 30
0.0
 10
17.10937770839627
 20
225.0295029819371
 30
0.0
 10
17.10937770839627
 20
225.0295029819371
 30
0.0
 10
17.10937770839627
 20
225.0295029819371
 30
0.0
 10
17.01291503480927
 20
224.98678379792
 30
0.0
 10
17.01291503480927
 20
224.98678379792
 30
0.0
 10
17.01291503480927
 20
224.98678379792
 30
0.0
 10
0.0
 20
224.9871283074685
 30
0.0
 10
0.0
 20
224.9871283074685
 30
0.0
 10
0.0
 20
224.9871283074685
 30
0.0
 10
0.0
 20
210.0016519657288
 30
0.0
 10
0.0
 20
210.0016519657288
 30
0.0
 10
0.0
 20
210.0016519657288
 30
0.0
 10
17.01291503480927
 20
210.0016519657288
 30
0.0
 10
17.01291503480927
 20
210.0016519657288
 30
0.0
 10
17.01291503480927
 20
210.0016519657288
 30
0.0
 10
17.10937770839627
 20
210.0443711497459
 30
0.0
 10
17.10937770839627
 20
210.0443711497459
 30
0.0
  0
SPLINE
  5
47
330
42
100
AcDbEntity
  8
LAYER_1
 62
     7
100
AcDbSpline
210
0.0
220
0.0
230
1.0
 70
    11
 71
     3
 72
    17
 73
    13
 74
     0
 42
0.0000000001
 43
0.0000000001
 40
0.0
 40
0.0
 40
0.0
 40
0.0
 40
1.0
 40
1.0
 40
1.0
 40
2.0
 40
2.0
 40
2.0
 40
3.0
 40
3.0
 40
3.0
 40
4.0
 40
4.0
 40
4.0
 40
4.0
 10
5.110110133271084
 20
216.2200493166047
 30
0.0
 10
5.937622068828095
 20
216.2200493166047
 30
0.0
 10
6.609760198000338
 20
216.8897758789373
 30
0.0
 10
6.609760198000338
 20
217.7200438908825
 30
0.0
 10
6.609760198000338
 20
218.5503119028277
 30
0.0
 10
5.937622068828095
 20
219.2200384651603
 30
0.0
 10
5.110110133271084
 20
219.2200384651603
 30
0.0
 10
4.282253688165548
 20
219.2200384651603
 30
0.0
 10
3.610115558993304
 20
218.5503119028277
 30
0.0
 10
3.610115558993304
 20
217.7200438908825
 30
0.0
 10
3.610115558993304
 20
216.8897758789373
 30
0.0
 10
4.282253688165548
 20
216.2200493166047
 30
0.0
 10
5.110110133271084
 20
216.2200493166047
 30
0.0
  0
ENDBLK
  5
45
330
42
100
AcDbEntity
  8
0
100
AcDbBlockEnd
  0
BLOCK
  5
4A
330
48
100
AcDbEntity
  8
0
100
AcDbBlockBegin
  2
BLOCK_4
 70
     0
 71
     0
 10
0.0
 20
0.0
 30
0.0
  3
BLOCK_4
  1

  0
SPLINE
  5
4C
330
48
100
AcDbEntity
  8
LAYER_1
 62
     7
100
AcDbSpline
210
0.0
220
0.0
230
1.0
 70
    11
 71
     3
 72
    17
 73
    13
 74
     0
 42
0.0000000001
 43
0.0000000001
 40
0.0
 40
0.0
 40
0.0
 40
0.0
 40
1.0
 40
1.0
 40
1.0
 40
2.0
 40
2.0
 40
2.0
 40
3.0
 40
3.0
 40
3.0
 40
4.0
 40
4.0
 40
4.0
 40
4.0
 10
149.3018255920148
 20
240.8028726611535
 30
0.0
 10
150.1293375275718
 20
240.8028726611535
 30
0.0
 10
150.8018201662926
 20
241.472599223486
 30
0.0
 10
150.8018201662926
 20
242.3028672354313
 30
0.0
 10
150.8018201662926
 20
243.1331352473765
 30
0.0
 10
150.1293375275718
 20
243.802861809709
 30
0.0
 10
149.3018255920148
 20
243.802861809709
 30
0.0
 10
148.4736246373608
 20
243.802861809709
 30
0.0
 10
147.801831017737
 20
243.1331352473765
 30
0.0
 10
147.801831017737
 20
242.3028672354313
 30
0.0
 10
147.801831017737
 20
241.472599223486
 30
0.0
 10
148.4736246373608
 20
240.8028726611535
 30
0.0
 10
149.3018255920148
 20
240.8028726611535
 30
0.0
  0
SPLINE
  5
4D
330
48
100
AcDbEntity
  8
LAYER_1
 62
     7
100
AcDbSpline
210
0.0
220
0.0
230
1.0
 70
    11
 71
     3
 72
    29
 73
    25
 74
     0
 42
0.0000000001
 43
0.0000000001
 40
0.0
 40
0.0
 40
0.0
 40
0.0
 40
1.0
 40
1.0
 40
1.0
 40
2.0
 40
2.0
 40
2.0
 40
3.0
 40
3.0
 40
3.0
 40
4.0
 40
4.0
 40
4.0
 40
5.0
 40
5.0
 40
5.0
 40
6.0
 40
6.0
 40
6.0
 40
7.0
 40
7.0
 40
7.0
 40
8.0
 40
8.0
 40
8.0
 40
8.0
 10
136.1429388765546
 20
250.0643228541506
 30
0.0
 10
134.5127196929343
 20
250.0408962048509
 30
0.0
 10
133.1870469502102
 20
248.6935193605697
 30
0.0
 10
133.1870469502102
 20
247.0615776292069
 30
0.0
 10
133.1870469502102
 20
247.0615776292069
 30
0.0
 10
133.1443277661931
 20
246.9637369174257
 30
0.0
 10
133.1443277661931
 20
246.9637369174257
 30
0.0
 10
133.1443277661931
 20
246.9637369174257
 30
0.0
 10
133.1443277661931
 20
231.9631021555509
 30
0.0
 10
133.1443277661931
 20
231.9631021555509
 30
0.0
 10
133.1443277661931
 20
231.9631021555509
 30
0.0
 10
133.1870469502102
 20
232.0605983577835
 30
0.0
 10
133.1870469502102
 20
232.060942867332
 30
0.0
 10
133.1870469502102
 20
233.6925400891463
 30
0.0
 10
134.5127196929343
 20
235.0402614429761
 30
0.0
 10
136.1429388765546
 20
235.0636880922758
 30
0.0
 10
136.1429388765546
 20
235.0636880922758
 30
0.0
 10
192.7072726297746
 20
235.0636880922758
 30
0.0
 10
192.7072726297746
 20
235.0636880922758
 30
0.0
 10
192.7072726297746
 20
235.0636880922758
 30
0.0
 10
192.7072726297746
 20
250.0646673636991
 30
0.0
 10
192.7072726297746
 20
250.0646673636991
 30
0.0
 10
192.7072726297746
 20
250.0646673636991
 30
0.0
 10
136.1429388765546
 20
250.0643228541506
 30
0.0
 10
136.1429388765546
 20
250.0643228541506
 30
0.0
  0
ENDBLK
  5
4B
330
48
100
AcDbEntity
  8
0
100
AcDbBlockEnd
  0
BLOCK
  5
50
330
4E
100
AcDbEntity
  8
0
100
AcDbBlockBegin
  2
BLOCK_5
 70
     0
 71
     0
 10
0.0
 20
0.0
 30
0.0
  3
BLOCK_5
  1

  0
SPLINE
  5
52
330
4E
100
AcDbEntity
  8
LAYER_1
 62
     7
100
AcDbSpline
210
0.0
220
0.0
230
1.0
 70
    11
 71
     3
 72
    35
 73
    31
 74
     0
 42
0.0000000001
 43
0.0000000001
 40
0.0
 40
0.0
 40
0.0
 40
0.0
 40
1.0
 40
1.0
 40
1.0
 40
2.0
 40
2.0
 40
2.0
 40
3.0
 40
3.0
 40
3.0
 40
4.0
 40
4.0
 40
4.0
 40
5.0
 40
5.0
 40
5.0
 40
6.0
 40
6.0
 40
6.0
 40
7.0
 40
7.0
 40
7.0
 40
8.0
 40
8.0
 40
8.0
 40
9.0
 40
9.0
 40
9.0
 40
10.0
 40
10.0
 40
10.0
 40
10.0
 10
108.2183729113135
 20
210.4832763145667
 30
0.0
 10
108.2183729113135
 20
210.4832763145667
 30
0.0
 10
108.2700493435922
 20
210.4832763145667
 30
0.0
 10
108.2700493435922
 20
210.4832763145667
 30
0.0
 10
109.8933783362419
 20
210.4832763145667
 30
0.0
 10
111.2224961744513
 20
211.7931016180587
 30
0.0
 10
111.2331759704556
 20
213.4074733624468
 30
0.0
 10
111.2331759704556
 20
213.4074733624468
 30
0.0
 10
111.2331759704556
 20
228.3929497041865
 30
0.0
 10
111.2331759704556
 20
228.3929497041865
 30
0.0
 10
111.2224961744513
 20
226.7785779597984
 30
0.0
 10
109.8933783362419
 20
225.4687526563064
 30
0.0
 10
108.2700493435922
 20
225.4687526563064
 30
0.0
 10
108.2700493435922
 20
225.4687526563064
 30
0.0
 10
108.2183729113135
 20
225.4687526563064
 30
0.0
 10
108.2183729113135
 20
225.4687526563064
 30
0.0
 10
108.2183729113135
 20
225.4687526563064
 30
0.0
 10
108.1219102377265
 20
225.4260334722893
 30
0.0
 10
108.1219102377265
 20
225.4260334722893
 30
0.0
 10
108.1219102377265
 20
225.4260334722893
 30
0.0
 10
91.1089952029172
 20
225.4260334722893
 30
0.0
 10
91.1089952029172
 20
225.4260334722893
 30
0.0
 10
91.1089952029172
 20
225.4260334722893
 30
0.0
 10
91.1089952029172
 20
210.4405571305496
 30
0.0
 10
91.1089952029172
 20
210.4405571305496
 30
0.0
 10
91.1089952029172
 20
210.4405571305496
 30
0.0
 10
108.1219102377265
 20
210.4405571305496
 30
0.0
 10
108.1219102377265
 20
210.4405571305496
 30
0.0
 10
108.1219102377265
 20
210.4405571305496
 30
0.0
 10
108.2183729113135
 20
210.4832763145667
 30
0.0
 10
108.2183729113135
 20
210.4832763145667
 30
0.0
  0
SPLINE
  5
53
330
4E
100
AcDbEntity
  8
LAYER_1
 62
     7
100
AcDbSpline
210
0.0
220
0.0
230
1.0
 70
    11
 71
     3
 72
    17
 73
    13
 74
     0
 42
0.0000000001
 43
0.0000000001
 40
0.0
 40
0.0
 40
0.0
 40
0.0
 40
1.0
 40
1.0
 40
1.0
 40
2.0
 40
2.0
 40
2.0
 40
3.0
 40
3.0
 40
3.0
 40
4.0
 40
4.0
 40
4.0
 40
4.0
 10
96.21910533618828
 20
216.6589544814256
 30
0.0
 10
97.04661727174529
 20
216.6589544814256
 30
0.0
 10
97.71909991046606
 20
217.3286810437581
 30
0.0
 10
97.71909991046606
 20
218.1589490557033
 30
0.0
 10
97.71909991046606
 20
218.9892170676485
 30
0.0
 10
97.04661727174529
 20
219.6589436299811
 30
0.0
 10
96.21910533618828
 20
219.6589436299811
 30
0.0
 10
95.39159340063128
 20
219.6589436299811
 30
0.0
 10
94.7191107619105
 20
218.9892170676485
 30
0.0
 10
94.7191107619105
 20
218.1589490557033
 30
0.0
 10
94.7191107619105
 20
217.3286810437581
 30
0.0
 10
95.39159340063128
 20
216.6589544814256
 30
0.0
 10
96.21910533618828
 20
216.6589544814256
 30
0.0
  0
ENDBLK
  5
51
330
4E
100
AcDbEntity
  8
0
100
AcDbBlockEnd
  0
BLOCK
  5
56
330
54
100
AcDbEntity
  8
0
100
AcDbBlockBegin
  2
BLOCK_6
 70
     0
 71
     0
 10
0.0
 20
0.0
 30
0.0
  3
BLOCK_6
  1

  0
SPLINE
  5
58
330
54
100
AcDbEntity
  8
LAYER_1
 62
     7
100
AcDbSpline
210
0.0
220
0.0
230
1.0
 70
    11
 71
     3
 72
    17
 73
    13
 74
     0
 42
0.0000000001
 43
0.0000000001
 40
0.0
 40
0.0
 40
0.0
 40
0.0
 40
1.0
 40
1.0
 40
1.0
 40
2.0
 40
2.0
 40
2.0
 40
3.0
 40
3.0
 40
3.0
 40
4.0
 40
4.0
 40
4.0
 40
4.0
 10
49.58560382874943
 20
216.4167642688125
 30
0.0
 10
50.41311576430645
 20
216.4167642688125
 30
0.0
 10
51.08559840302721
 20
217.0864908311451
 30
0.0
 10
51.08559840302721
 20
217.9167588430903
 30
0.0
 10
51.08559840302721
 20
218.7470268550355
 30
0.0
 10
50.41311576430645
 20
219.4167534173681
 30
0.0
 10
49.58560382874943
 20
219.4167534173681
 30
0.0
 10
48.7577473836439
 20
219.4167534173681
 30
0.0
 10
48.08560925447166
 20
218.7470268550355
 30
0.0
 10
48.08560925447166
 20
217.9167588430903
 30
0.0
 10
48.08560925447166
 20
217.0864908311451
 30
0.0
 10
48.7577473836439
 20
216.4167642688125
 30
0.0
 10
49.58560382874943
 20
216.4167642688125
 30
0.0
  0
SPLINE
  5
59
330
54
100
AcDbEntity
  8
LAYER_1
 62
     7
100
AcDbSpline
210
0.0
220
0.0
230
1.0
 70
    11
 71
     3
 72
    44
 73
    40
 74
     0
 42
0.0000000001
 43
0.0000000001
 40
0.0
 40
0.0
 40
0.0
 40
0.0
 40
1.0
 40
1.0
 40
1.0
 40
2.0
 40
2.0
 40
2.0
 40
3.0
 40
3.0
 40
3.0
 40
4.0
 40
4.0
 40
4.0
 40
5.0
 40
5.0
 40
5.0
 40
6.0
 40
6.0
 40
6.0
 40
7.0
 40
7.0
 40
7.0
 40
8.0
 40
8.0
 40
8.0
 40
9.0
 40
9.0
 40
9.0
 40
10.0
 40
10.0
 40
10.0
 40
11.0
 40
11.0
 40
11.0
 40
12.0
 40
12.0
 40
12.0
 40
13.0
 40
13.0
 40
13.0
 40
13.0
 10
36.5514295698552
 20
225.1838432596763
 30
0.0
 10
36.5514295698552
 20
225.1838432596763
 30
0.0
 10
36.4549668962682
 20
225.2265624436934
 30
0.0
 10
36.4549668962682
 20
225.2265624436934
 30
0.0
 10
36.4549668962682
 20
225.2265624436934
 30
0.0
 10
36.41293673134815
 20
225.2265624436934
 30
0.0
 10
36.41293673134815
 20
225.2265624436934
 30
0.0
 10
34.80132106334828
 20
225.2265624436934
 30
0.0
 10
33.48116047340054
 20
226.5370767662824
 30
0.0
 10
33.47048067739627
 20
228.1473143960882
 30
0.0
 10
33.47048067739627
 20
228.1473143960882
 30
0.0
 10
33.42845051247622
 20
228.241710012384
 30
0.0
 10
33.42845051247622
 20
228.241710012384
 30
0.0
 10
33.42845051247622
 20
228.241710012384
 30
0.0
 10
33.42845051247622
 20
213.363031630687
 30
0.0
 10
33.42845051247622
 20
213.363031630687
 30
0.0
 10
33.42845051247622
 20
213.363031630687
 30
0.0
 10
33.42707247428212
 20
213.2589897470325
 30
0.0
 10
33.42707247428212
 20
213.2589897470325
 30
0.0
 10
33.42707247428212
 20
213.2589897470325
 30
0.0
 10
33.47048067739627
 20
213.1618380543484
 30
0.0
 10
33.47048067739627
 20
213.1618380543484
 30
0.0
 10
33.48116047340054
 20
211.5516004245427
 30
0.0
 10
34.80132106334828
 20
210.2410861019536
 30
0.0
 10
36.41293673134815
 20
210.2410861019536
 30
0.0
 10
36.41293673134815
 20
210.2410861019536
 30
0.0
 10
36.4549668962682
 20
210.2410861019536
 30
0.0
 10
36.4549668962682
 20
210.2410861019536
 30
0.0
 10
36.4549668962682
 20
210.2410861019536
 30
0.0
 10
36.5514295698552
 20
210.1983669179365
 30
0.0
 10
36.5514295698552
 20
210.1983669179365
 30
0.0
 10
36.5514295698552
 20
210.1983669179365
 30
0.0
 10
78.02142196400159
 20
210.1983669179365
 30
0.0
 10
78.02142196400159
 20
210.1983669179365
 30
0.0
 10
78.02142196400159
 20
210.1983669179365
 30
0.0
 10
78.02142196400159
 20
225.1838432596763
 30
0.0
 10
78.02142196400159
 20
225.1838432596763
 30
0.0
 10
78.02142196400159
 20
225.1838432596763
 30
0.0
 10
36.5514295698552
 20
225.1838432596763
 30
0.0
 10
36.5514295698552
 20
225.1838432596763
 30
0.0
  0
ENDBLK
  5
57
330
54
100
AcDbEntity
  8
0
100
AcDbBlockEnd
  0
BLOCK
  5
5C
330
5A
100
AcDbEntity
  8
0
100
AcDbBlockBegin
  2
BLOCK_7
 70
     0
 71
     0
 10
0.0
 20
0.0
 30
0.0
  3
BLOCK_7
  1

  0
SPLINE
  5
5E
330
5A
100
AcDbEntity
  8
LAYER_1
 62
     7
100
AcDbSpline
210
0.0
220
0.0
230
1.0
 70
    11
 71
     3
 72
    17
 73
    13
 74
     0
 42
0.0000000001
 43
0.0000000001
 40
0.0
 40
0.0
 40
0.0
 40
0.0
 40
1.0
 40
1.0
 40
1.0
 40
2.0
 40
2.0
 40
2.0
 40
3.0
 40
3.0
 40
3.0
 40
4.0
 40
4.0
 40
4.0
 40
4.0
 10
15.01389837949305
 20
243.8171589559728
 30
0.0
 10
14.18638644393604
 20
243.8171589559728
 30
0.0
 10
13.5142483147638
 20
243.1474323936402
 30
0.0
 10
13.5142483147638
 20
242.317164381695
 30
0.0
 10
13.5142483147638
 20
241.4868963697498
 30
0.0
 10
14.18638644393604
 20
240.8171698074173
 30
0.0
 10
15.01389837949305
 20
240.8171698074173
 30
0.0
 10
15.84175482459859
 20
240.8171698074173
 30
0.0
 10
16.51389295377083
 20
241.4868963697498
 30
0.0
 10
16.51389295377083
 20
242.317164381695
 30
0.0
 10
16.51389295377083
 20
243.1474323936402
 30
0.0
 10
15.84175482459859
 20
243.8171589559728
 30
0.0
 10
15.01389837949305
 20
243.8171589559728
 30
0.0
  0
SPLINE
  5
5F
330
5A
100
AcDbEntity
  8
LAYER_1
 62
     7
100
AcDbSpline
210
0.0
220
0.0
230
1.0
 70
    11
 71
     3
 72
    17
 73
    13
 74
     0
 42
0.0000000001
 43
0.0000000001
 40
0.0
 40
0.0
 40
0.0
 40
0.0
 40
1.0
 40
1.0
 40
1.0
 40
2.0
 40
2.0
 40
2.0
 40
3.0
 40
3.0
 40
3.0
 40
4.0
 40
4.0
 40
4.0
 40
4.0
 10
15.01389837949305
 20
245.3171535302506
 30
0.0
 10
13.35852999883051
 20
245.3171535302506
 30
0.0
 10
12.01373697616323
 20
243.9770113864884
 30
0.0
 10
12.01373697616323
 20
242.317164381695
 30
0.0
 10
12.01373697616323
 20
240.6566283578046
 30
0.0
 10
13.35852999883051
 20
239.3171752331395
 30
0.0
 10
15.01389837949305
 20
239.3171752331395
 30
0.0
 10
16.6692667601556
 20
239.3171752331395
 30
0.0
 10
18.01423203759714
 20
240.6566283578046
 30
0.0
 10
18.01423203759714
 20
242.317164381695
 30
0.0
 10
18.01423203759714
 20
243.9770113864884
 30
0.0
 10
16.6692667601556
 20
245.3171535302506
 30
0.0
 10
15.01389837949305
 20
245.3171535302506
 30
0.0
  0
SPLINE
  5
60
330
5A
100
AcDbEntity
  8
LAYER_1
 62
     7
100
AcDbSpline
210
0.0
220
0.0
230
1.0
 70
    11
 71
     3
 72
    17
 73
    13
 74
     0
 42
0.0000000001
 43
0.0000000001
 40
0.0
 40
0.0
 40
0.0
 40
0.0
 40
1.0
 40
1.0
 40
1.0
 40
2.0
 40
2.0
 40
2.0
 40
3.0
 40
3.0
 40
3.0
 40
4.0
 40
4.0
 40
4.0
 40
4.0
 10
108.8529594996965
 20
243.8171589559728
 30
0.0
 10
108.0254475641395
 20
243.8171589559728
 30
0.0
 10
107.3529649254187
 20
243.1474323936402
 30
0.0
 10
107.3529649254187
 20
242.317164381695
 30
0.0
 10
107.3529649254187
 20
241.4868963697498
 30
0.0
 10
108.0254475641395
 20
240.8171698074173
 30
0.0
 10
108.8529594996965
 20
240.8171698074173
 30
0.0
 10
109.6804714352535
 20
240.8171698074173
 30
0.0
 10
110.3529540739743
 20
241.4868963697498
 30
0.0
 10
110.3529540739743
 20
242.317164381695
 30
0.0
 10
110.3529540739743
 20
243.1474323936402
 30
0.0
 10
109.6804714352535
 20
243.8171589559728
 30
0.0
 10
108.8529594996965
 20
243.8171589559728
 30
0.0
  0
SPLINE
  5
61
330
5A
100
AcDbEntity
  8
LAYER_1
 62
     7
100
AcDbSpline
210
0.0
220
0.0
230
1.0
 70
    11
 71
     3
 72
    17
 73
    13
 74
     0
 42
0.0000000001
 43
0.0000000001
 40
0.0
 40
0.0
 40
0.0
 40
0.0
 40
1.0
 40
1.0
 40
1.0
 40
2.0
 40
2.0
 40
2.0
 40
3.0
 40
3.0
 40
3.0
 40
4.0
 40
4.0
 40
4.0
 40
4.0
 10
108.8529594996965
 20
245.3171535302506
 30
0.0
 10
107.1972466094854
 20
245.3171535302506
 30
0.0
 10
105.8529703511409
 20
243.9770113864884
 30
0.0
 10
105.8529703511409
 20
242.317164381695
 30
0.0
 10
105.8529703511409
 20
240.6566283578046
 30
0.0
 10
107.1972466094854
 20
239.3171752331395
 30
0.0
 10
108.8529594996965
 20
239.3171752331395
 30
0.0
 10
110.5086723899076
 20
239.3171752331395
 30
0.0
 10
111.8529486482521
 20
240.6566283578046
 30
0.0
 10
111.8529486482521
 20
242.317164381695
 30
0.0
 10
111.8529486482521
 20
243.9770113864884
 30
0.0
 10
110.5086723899076
 20
245.3171535302506
 30
0.0
 10
108.8529594996965
 20
245.3171535302506
 30
0.0
  0
SPLINE
  5
62
330
5A
100
AcDbEntity
  8
LAYER_1
 62
     7
100
AcDbSpline
210
0.0
220
0.0
230
1.0
 70
    11
 71
     3
 72
    17
 73
    13
 74
     0
 42
0.0000000001
 43
0.0000000001
 40
0.0
 40
0.0
 40
0.0
 40
0.0
 40
1.0
 40
1.0
 40
1.0
 40
2.0
 40
2.0
 40
2.0
 40
3.0
 40
3.0
 40
3.0
 40
4.0
 40
4.0
 40
4.0
 40
4.0
 10
62.99184840005065
 20
243.8171589559728
 30
0.0
 10
62.16433646449364
 20
243.8171589559728
 30
0.0
 10
61.49185382577287
 20
243.1474323936402
 30
0.0
 10
61.49185382577287
 20
242.317164381695
 30
0.0
 10
61.49185382577287
 20
241.4868963697498
 30
0.0
 10
62.16433646449364
 20
240.8171698074173
 30
0.0
 10
62.99184840005065
 20
240.8171698074173
 30
0.0
 10
63.81936033560766
 20
240.8171698074173
 30
0.0
 10
64.49184297432843
 20
241.4868963697498
 30
0.0
 10
64.49184297432843
 20
242.317164381695
 30
0.0
 10
64.49184297432843
 20
243.1474323936402
 30
0.0
 10
63.81936033560766
 20
243.8171589559728
 30
0.0
 10
62.99184840005065
 20
243.8171589559728
 30
0.0
  0
SPLINE
  5
63
330
5A
100
AcDbEntity
  8
LAYER_1
 62
     7
100
AcDbSpline
210
0.0
220
0.0
230
1.0
 70
    11
 71
     3
 72
    86
 73
    82
 74
     0
 42
0.0000000001
 43
0.0000000001
 40
0.0
 40
0.0
 40
0.0
 40
0.0
 40
1.0
 40
1.0
 40
1.0
 40
2.0
 40
2.0
 40
2.0
 40
3.0
 40
3.0
 40
3.0
 40
4.0
 40
4.0
 40
4.0
 40
5.0
 40
5.0
 40
5.0
 40
6.0
 40
6.0
 40
6.0
 40
7.0
 40
7.0
 40
7.0
 40
8.0
 40
8.0
 40
8.0
 40
9.0
 40
9.0
 40
9.0
 40
10.0
 40
10.0
 40
10.0
 40
11.0
 40
11.0
 40
11.0
 40
12.0
 40
12.0
 40
12.0
 40
13.0
 40
13.0
 40
13.0
 40
14.0
 40
14.0
 40
14.0
 40
15.0
 40
15.0
 40
15.0
 40
16.0
 40
16.0
 40
16.0
 40
17.0
 40
17.0
 40
17.0
 40
18.0
 40
18.0
 40
18.0
 40
19.0
 40
19.0
 40
19.0
 40
20.0
 40
20.0
 40
20.0
 40
21.0
 40
21.0
 40
21.0
 40
22.0
 40
22.0
 40
22.0
 40
23.0
 40
23.0
 40
23.0
 40
24.0
 40
24.0
 40
24.0
 40
25.0
 40
25.0
 40
25.0
 40
26.0
 40
26.0
 40
26.0
 40
27.0
 40
27.0
 40
27.0
 40
27.0
 10
3.014803059142133
 20
249.9928371228317
 30
0.0
 10
3.014803059142133
 20
249.9928371228317
 30
0.0
 10
2.96347113641191
 20
249.9928371228317
 30
0.0
 10
2.96347113641191
 20
249.9928371228317
 30
0.0
 10
1.339797634213662
 20
249.9928371228317
 30
0.0
 10
0.0103352864557495
 20
248.6830118193397
 30
0.0
 10
0.0
 20
247.0686400749516
 30
0.0
 10
0.0
 20
247.0686400749516
 30
0.0
 10
0.0
 20
232.0831637332118
 30
0.0
 10
0.0
 20
232.0831637332118
 30
0.0
 10
0.0103352864557495
 20
233.6975354775999
 30
0.0
 10
1.339797634213662
 20
235.0073607810919
 30
0.0
 10
2.96347113641191
 20
235.0073607810919
 30
0.0
 10
2.96347113641191
 20
235.0073607810919
 30
0.0
 10
3.014803059142133
 20
235.0073607810919
 30
0.0
 10
3.014803059142133
 20
235.0073607810919
 30
0.0
 10
3.014803059142133
 20
235.0073607810919
 30
0.0
 10
3.111265732729128
 20
235.050079965109
 30
0.0
 10
3.111265732729128
 20
235.050079965109
 30
0.0
 10
3.111265732729128
 20
235.050079965109
 30
0.0
 10
17.90674505845734
 20
235.050079965109
 30
0.0
 10
17.90674505845734
 20
235.050079965109
 30
0.0
 10
17.90674505845734
 20
235.050079965109
 30
0.0
 10
17.90674505845734
 20
235.0073607810919
 30
0.0
 10
17.90674505845734
 20
235.0073607810919
 30
0.0
 10
17.90674505845734
 20
235.0073607810919
 30
0.0
 10
93.746904815973
 20
235.0073607810919
 30
0.0
 10
93.746904815973
 20
235.0073607810919
 30
0.0
 10
93.746904815973
 20
235.0073607810919
 30
0.0
 10
93.746904815973
 20
235.050079965109
 30
0.0
 10
93.746904815973
 20
235.050079965109
 30
0.0
 10
93.746904815973
 20
235.050079965109
 30
0.0
 10
121.8871337585907
 20
235.050079965109
 30
0.0
 10
121.8871337585907
 20
235.050079965109
 30
0.0
 10
121.8871337585907
 20
235.050079965109
 30
0.0
 10
121.9835964321777
 20
235.0073607810919
 30
0.0
 10
121.9835964321777
 20
235.0073607810919
 30
0.0
 10
121.9835964321777
 20
235.0073607810919
 30
0.0
 10
122.0256265970978
 20
235.0073607810919
 30
0.0
 10
122.0256265970978
 20
235.0073607810919
 30
0.0
 10
123.6372422650976
 20
235.0073607810919
 30
0.0
 10
124.9574028550454
 20
233.6968464585029
 30
0.0
 10
124.9677381415011
 20
232.0866088286971
 30
0.0
 10
124.9677381415011
 20
232.0866088286971
 30
0.0
 10
125.0097683064212
 20
231.9922132124013
 30
0.0
 10
125.0097683064212
 20
231.9922132124013
 30
0.0
 10
125.0097683064212
 20
231.9922132124013
 30
0.0
 10
125.0097683064212
 20
246.8708915940983
 30
0.0
 10
125.0097683064212
 20
246.8708915940983
 30
0.0
 10
125.0097683064212
 20
246.8708915940983
 30
0.0
 10
125.0111463446153
 20
246.9749334777528
 30
0.0
 10
125.0111463446153
 20
246.9749334777528
 30
0.0
 10
125.0111463446153
 20
246.9749334777528
 30
0.0
 10
124.9677381415011
 20
247.0720851704368
 30
0.0
 10
124.9677381415011
 20
247.0720851704368
 30
0.0
 10
124.9574028550454
 20
248.6823228002426
 30
0.0
 10
123.6372422650976
 20
249.9928371228317
 30
0.0
 10
122.0256265970978
 20
249.9928371228317
 30
0.0
 10
122.0256265970978
 20
249.9928371228317
 30
0.0
 10
121.9835964321777
 20
249.9928371228317
 30
0.0
 10
121.9835964321777
 20
249.9928371228317
 30
0.0
 10
121.9835964321777
 20
249.9928371228317
 30
0.0
 10
121.8871337585907
 20
250.0355563068488
 30
0.0
 10
121.8871337585907
 20
250.0355563068488
 30
0.0
 10
121.8871337585907
 20
250.0355563068488
 30
0.0
 10
93.746904815973
 20
250.0355563068488
 30
0.0
 10
93.746904815973
 20
250.0355563068488
 30
0.0
 10
93.746904815973
 20
250.0355563068488
 30
0.0
 10
80.41714136444433
 20
250.0355563068488
 30
0.0
 10
80.41714136444433
 20
250.0355563068488
 30
0.0
 10
80.41714136444433
 20
250.0355563068488
 30
0.0
 10
20.12400851276414
 20
250.0355563068488
 30
0.0
 10
20.12400851276414
 20
250.0355563068488
 30
0.0
 10
20.12400851276414
 20
250.0355563068488
 30
0.0
 10
17.90674505845734
 20
250.0355563068488
 30
0.0
 10
17.90674505845734
 20
250.0355563068488
 30
0.0
 10
17.90674505845734
 20
250.0355563068488
 30
0.0
 10
3.111265732729128
 20
250.0355563068488
 30
0.0
 10
3.111265732729128
 20
250.0355563068488
 30
0.0
 10
3.111265732729128
 20
250.0355563068488
 30
0.0
 10
3.014803059142133
 20
249.9928371228317
 30
0.0
 10
3.014803059142133
 20
249.9928371228317
 30
0.0
  0
ENDBLK
  5
5D
330
5A
100
AcDbEntity
  8
0
100
AcDbBlockEnd
  0
ENDSEC
  0
SECTION
  2
ENTITIES
  0
INSERT
  5
3D
330
1F
100
AcDbEntity
  8
LAYER_1
100
AcDbBlockReference
  2
BLOCK_2
 10
0.0
 20
0.0
 30
0.0
  0
INSERT
  5
43
330
1F
100
AcDbEntity
  8
LAYER_1
100
AcDbBlockReference
  2
BLOCK_3
 10
0.0
 20
0.0
 30
0.0
  0
INSERT
  5
49
330
1F
100
AcDbEntity
  8
LAYER_1
100
AcDbBlockReference
  2
BLOCK_4
 10
0.0
 20
0.0
 30
0.0
  0
INSERT
  5
4F
330
1F
100
AcDbEntity
  8
LAYER_1
100
AcDbBlockReference
  2
BLOCK_5
 10
0.0
 20
0.0
 30
0.0
  0
INSERT
  5
55
330
1F
100
AcDbEntity
  8
LAYER_1
100
AcDbBlockReference
  2
BLOCK_6
 10
0.0
 20
0.0
 30
0.0
  0
INSERT
  5
5B
330
1F
100
AcDbEntity
  8
LAYER_1
100
AcDbBlockReference
  2
BLOCK_7
 10
0.0
 20
0.0
 30
0.0
  0
ENDSEC
  0
SECTION
  2
OBJECTS
  0
DICTIONARY
  5
C
330
0
100
AcDbDictionary
  3
ACAD_GROUP
350
D
  3
ACAD_LAYOUT
350
1A
  3
ACAD_MLINESTYLE
350
17
  3
ACAD_PLOTSETTINGS
350
19
  3
ACAD_TABLESTYLE
350
64
  3
ACAD_VISUALSTYLE
350
2A
1001
ACAD
1000
TREAT_AS_HARD
1070
     0
  0
DICTIONARY
  5
D
102
{ACAD_REACTORS
330
C
102
}
330
C
100
AcDbDictionary
1001
ACAD
1000
TREAT_AS_HARD
1070
     0
  0
DICTIONARY
  5
1A
102
{ACAD_REACTORS
330
C
102
}
330
C
100
AcDbDictionary
1001
ACAD
1000
TREAT_AS_HARD
1070
     0
  0
DICTIONARY
  5
17
102
{ACAD_REACTORS
330
C
102
}
330
C
100
AcDbDictionary
  3
STANDARD
350
18
1001
ACAD
1000
TREAT_AS_HARD
1070
     0
  0
DICTIONARY
  5
19
102
{ACAD_REACTORS
330
C
102
}
330
C
100
AcDbDictionary
1001
ACAD
1000
TREAT_AS_HARD
1070
     0
  0
DICTIONARY
  5
64
102
{ACAD_REACTORS
330
C
102
}
330
C
100
AcDbDictionary
1001
ACAD
1000
TREAT_AS_HARD
1070
     0
  0
DICTIONARY
  5
2A
102
{ACAD_REACTORS
330
C
102
}
330
C
100
AcDbDictionary
  3
2DWIREFRAME
350
2F
  3
3D_HIDDEN
350
31
  3
3DWIREFRAME
350
30
  3
BASIC
350
32
  3
BRIGHTEN
350
36
  3
COLORCHANGE
350
3A
  3
CONCEPTUAL
350
34
  3
DIM
350
35
  3
FACEPATTERN
350
39
  3
FLAT
350
2B
  3
FLATWITHEDGES
350
2C
  3
GOURAUD
350
2D
  3
GOURAUDWITHEDGES
350
2E
  3
LINEPATTERN
350
38
  3
REALISTIC
350
33
  3
THICKEN
350
37
1001
ACAD
1000
TREAT_AS_HARD
1070
     0
  0
MLINESTYLE
  5
18
102
{ACAD_REACTORS
330
17
102
}
330
17
100
AcDbMlineStyle
  2
Standard
 70
     0
  3

 62
   256
 51
90.0
 52
90.0
 71
     2
 49
0.5
 62
   256
  6
BYLAYER
 49
-0.5
 62
   256
  6
BYLAYER
  0
VISUALSTYLE
  5
2F
102
{ACAD_REACTORS
330
2A
102
}
330
2A
100
AcDbVisualStyle
  2
2dWireframe
 70
     4
 71
     0
 72
     2
 73
     0
 90
        0
 40
-0.6
 41
-30.0
 62
     5
 63
     7
 74
     1
 91
        4
 64
     7
 65
   257
 75
     1
175
     1
 42
1.0
 92
        0
 66
   257
 43
1.0
 76
     1
 77
     6
 78
     2
 67
     7
 79
     5
170
     0
171
     0
290
     0
174
     0
 93
        1
 44
0.0
173
     0
291
     0
 45
0.0
1001
ACAD
1000
AcDbSavedByObjectVersion
1070
     0
  0
VISUALSTYLE
  5
31
102
{ACAD_REACTORS
330
2A
102
}
330
2A
100
AcDbVisualStyle
  2
3D Hidden
 70
     6
 71
     1
 72
     2
 73
     2
 90
        0
 40
-0.6
 41
-30.0
 62
     5
 63
     7
 74
     2
 91
        2
 64
     7
 65
   257
 75
     2
175
     1
 42
40.0
 92
        0
 66
   257
 43
1.0
 76
     1
 77
     6
 78
     2
 67
     7
 79
     3
170
     0
171
     0
290
     0
174
     0
 93
        1
 44
0.0
173
     0
291
     0
 45
0.0
1001
ACAD
1000
AcDbSavedByObjectVersion
1070
     0
  0
VISUALSTYLE
  5
30
102
{ACAD_REACTORS
330
2A
102
}
330
2A
100
AcDbVisualStyle
  2
3dWireframe
 70
     5
 71
     0
 72
     2
 73
     0
 90
        0
 40
-0.6
 41
-30.0
 62
     5
 63
     7
 74
     1
 91
        4
 64
     7
 65
   257
 75
     1
175
     1
 42
1.0
 92
        0
 66
   257
 43
1.0
 76
     1
 77
     6
 78
     2
 67
     7
 79
     5
170
     0
171
     0
290
     0
174
     0
 93
        1
 44
0.0
173
     0
291
     0
 45
0.0
1001
ACAD
1000
AcDbSavedByObjectVersion
1070
     0
  0
VISUALSTYLE
  5
32
102
{ACAD_REACTORS
330
2A
102
}
330
2A
100
AcDbVisualStyle
  2
Basic
 70
     7
 71
     1
 72
     0
 73
     1
 90
        0
 40
-0.6
 41
-30.0
 62
     5
 63
     7
 74
     0
 91
        4
 64
     7
 65
   257
 75
     1
175
     1
 42
1.0
 92
        8
 66
     7
 43
1.0
 76
     1
 77
     6
 78
     2
 67
     7
 79
     5
170
     0
171
     0
290
     0
174
     0
 93
        1
 44
0.0
173
     0
291
     1
 45
0.0
1001
ACAD
1000
AcDbSavedByObjectVersion
1070
     0
  0
VISUALSTYLE
  5
36
102
{ACAD_REACTORS
330
2A
102
}
330
2A
100
AcDbVisualStyle
  2
Brighten
 70
    12
 71
     2
 72
     2
 73
     0
 90
        0
 40
-0.6
 41
-30.0
 62
     5
 63
     7
 74
     1
 91
        4
 64
     7
 65
   257
 75
     1
175
     1
 42
1.0
 92
        8
 66
     7
 43
1.0
 76
     1
 77
     6
 78
     2
 67
     7
 79
     5
170
     0
171
     0
290
     0
174
     0
 93
        1
 44
50.0
173
     0
291
     1
 45
0.0
1001
ACAD
1000
AcDbSavedByObjectVersion
1070
     0
  0
VISUALSTYLE
  5
3A
102
{ACAD_REACTORS
330
2A
102
}
330
2A
100
AcDbVisualStyle
  2
ColorChange
 70
    16
 71
     2
 72
     2
 73
     3
 90
        0
 40
-0.6
 41
-30.0
 62
     5
 63
     8
 74
     1
 91
        4
 64
     7
 65
   257
 75
     1
175
     1
 42
1.0
 92
        8
 66
     8
 43
1.0
 76
     1
 77
     6
 78
     2
 67
     7
 79
     5
170
     0
171
     0
290
     0
174
     0
 93
        1
 44
0.0
173
     0
291
     1
 45
0.0
1001
ACAD
1000
AcDbSavedByObjectVersion
1070
     0
  0
VISUALSTYLE
  5
34
102
{ACAD_REACTORS
330
2A
102
}
330
2A
100
AcDbVisualStyle
  2
Conceptual
 70
     9
 71
     3
 72
     2
 73
     0
 90
        0
 40
-0.6
 41
-30.0
 62
     5
 63
     7
 74
     2
 91
        2
 64
     7
 65
   257
 75
     1
175
     1
 42
40.0
 92
        8
 66
     7
 43
1.0
 76
     1
 77
     6
 78
     2
 67
     7
 79
     3
170
     0
171
     0
290
     0
174
     0
 93
        1
 44
0.0
173
     0
291
     0
 45
0.0
1001
ACAD
1000
AcDbSavedByObjectVersion
1070
     0
  0
VISUALSTYLE
  5
35
102
{ACAD_REACTORS
330
2A
102
}
330
2A
100
AcDbVisualStyle
  2
Dim
 70
    11
 71
     2
 72
     2
 73
     0
 90
        0
 40
-0.6
 41
-30.0
 62
     5
 63
     7
 74
     1
 91
        4
 64
     7
 65
   257
 75
     1
175
     1
 42
1.0
 92
        8
 66
     7
 43
1.0
 76
     1
 77
     6
 78
     2
 67
     7
 79
     5
170
     0
171
     0
290
     0
174
     0
 93
        1
 44
-50.0
173
     0
291
     1
 45
0.0
1001
ACAD
1000
AcDbSavedByObjectVersion
1070
     0
  0
VISUALSTYLE
  5
39
102
{ACAD_REACTORS
330
2A
102
}
330
2A
100
AcDbVisualStyle
  2
Facepattern
 70
    15
 71
     2
 72
     2
 73
     0
 90
        0
 40
-0.6
 41
-30.0
 62
     5
 63
     7
 74
     1
 91
        4
 64
     7
 65
   257
 75
     1
175
     1
 42
1.0
 92
        8
 66
     7
 43
1.0
 76
     1
 77
     6
 78
     2
 67
     7
 79
     5
170
     0
171
     0
290
     0
174
     0
 93
        1
 44
0.0
173
     0
291
     1
 45
0.0
1001
ACAD
1000
AcDbSavedByObjectVersion
1070
     0
  0
VISUALSTYLE
  5
2B
102
{ACAD_REACTORS
330
2A
102
}
330
2A
100
AcDbVisualStyle
  2
Flat
 70
     0
 71
     2
 72
     1
 73
     1
 90
        2
 40
-0.6
 41
30.0
 62
     5
 63
     7
 74
     0
 91
        4
 64
     7
 65
   257
 75
     1
175
     1
 42
1.0
 92
        8
 66
     7
 43
1.0
 76
     1
 77
     6
 78
     2
 67
     7
 79
     5
170
     0
171
     0
290
     0
174
     0
 93
       13
 44
0.0
173
     0
291
     1
 45
0.0
1001
ACAD
1000
AcDbSavedByObjectVersion
1070
     0
  0
VISUALSTYLE
  5
2C
102
{ACAD_REACTORS
330
2A
102
}
330
2A
100
AcDbVisualStyle
  2
FlatWithEdges
 70
     1
 71
     2
 72
     1
 73
     1
 90
        2
 40
-0.6
 41
30.0
 62
     5
 63
     7
 74
     1
 91
        4
 64
     7
 65
   257
 75
     1
175
     1
 42
1.0
 92
        0
 66
   257
 43
1.0
 76
     1
 77
     6
 78
     2
 67
     7
 79
     5
170
     0
171
     0
290
     0
174
     0
 93
       13
 44
0.0
173
     0
291
     1
 45
0.0
1001
ACAD
1000
AcDbSavedByObjectVersion
1070
     0
  0
VISUALSTYLE
  5
2D
102
{ACAD_REACTORS
330
2A
102
}
330
2A
100
AcDbVisualStyle
  2
Gouraud
 70
     2
 71
     2
 72
     2
 73
     1
 90
        2
 40
-0.6
 41
30.0
 62
     5
 63
     7
 74
     0
 91
        4
 64
     7
 65
   257
 75
     1
175
     1
 42
1.0
 92
        0
 66
     7
 43
1.0
 76
     1
 77
     6
 78
     2
 67
     7
 79
     5
170
     0
171
     0
290
     0
174
     0
 93
       13
 44
0.0
173
     0
291
     1
 45
0.0
1001
ACAD
1000
AcDbSavedByObjectVersion
1070
     0
  0
VISUALSTYLE
  5
2E
102
{ACAD_REACTORS
330
2A
102
}
330
2A
100
AcDbVisualStyle
  2
GouraudWithEdges
 70
     3
 71
     2
 72
     2
 73
     1
 90
        2
 40
-0.6
 41
30.0
 62
     5
 63
     7
 74
     1
 91
        4
 64
     7
 65
   257
 75
     1
175
     1
 42
1.0
 92
        0
 66
   257
 43
1.0
 76
     1
 77
     6
 78
     2
 67
     7
 79
     5
170
     0
171
     0
290
     0
174
     0
 93
       13
 44
0.0
173
     0
291
     1
 45
0.0
1001
ACAD
1000
AcDbSavedByObjectVersion
1070
     0
  0
VISUALSTYLE
  5
38
102
{ACAD_REACTORS
330
2A
102
}
330
2A
100
AcDbVisualStyle
  2
Linepattern
 70
    14
 71
     2
 72
     2
 73
     0
 90
        0
 40
-0.6
 41
-30.0
 62
     5
 63
     7
 74
     1
 91
        4
 64
     7
 65
   257
 75
     7
175
     7
 42
1.0
 92
        8
 66
     7
 43
1.0
 76
     1
 77
     6
 78
     2
 67
     7
 79
     5
170
     0
171
     0
290
     0
174
     0
 93
        1
 44
0.0
173
     0
291
     1
 45
0.0
1001
ACAD
1000
AcDbSavedByObjectVersion
1070
     0
  0
VISUALSTYLE
  5
33
102
{ACAD_REACTORS
330
2A
102
}
330
2A
100
AcDbVisualStyle
  2
Realistic
 70
     8
 71
     2
 72
     2
 73
     0
 90
        0
 40
-0.6
 41
-30.0
 62
     5
 63
     7
 74
     1
 91
        0
 64
     7
 65
   257
 75
     1
175
     1
 42
1.0
 92
        8
 66
     8
 43
1.0
 76
     1
 77
     6
 78
     2
 67
     7
 79
     5
170
     0
171
     0
290
     0
174
     0
 93
       13
 44
0.0
173
     0
291
     0
 45
0.0
1001
ACAD
1000
AcDbSavedByObjectVersion
1070
     0
  0
VISUALSTYLE
  5
37
102
{ACAD_REACTORS
330
2A
102
}
330
2A
100
AcDbVisualStyle
  2
Thicken
 70
    13
 71
     2
 72
     2
 73
     0
 90
        0
 40
-0.6
 41
-30.0
 62
     5
 63
     7
 74
     1
 91
        4
 64
     7
 65
   257
 75
     1
175
     1
 42
1.0
 92
       12
 66
     7
 43
1.0
 76
     1
 77
     6
 78
     2
 67
     7
 79
     5
170
     0
171
     0
290
     0
174
     0
 93
        1
 44
0.0
173
     0
291
     1
 45
0.0
1001
ACAD
1000
AcDbSavedByObjectVersion
1070
     0
  0
ENDSEC
  0
EOF
