  0
SECTION
  2
HEADER
  9
$ACADVER
  1
AC1012
  9
$DWGCODEPAGE
  3
ansi_1252
  9
$INSBASE
 10
0.0
 20
0.0
 30
0.0
  9
$EXTMIN
 10
1.000000000000000E+20
 20
1.000000000000000E+20
 30
1.000000000000000E+20
  9
$EXTMAX
 10
-1.000000000000000E+20
 20
-1.000000000000000E+20
 30
-1.000000000000000E+20
  9
$LIMMIN
 10
0.0
 20
0.0
  9
$LIMMAX
 10
12.0
 20
9.0
  9
$ORTHOMODE
 70
     0
  9
$REGENMODE
 70
     1
  9
$FILLMODE
 70
     1
  9
$QTEXTMODE
 70
     0
  9
$MIRRTEXT
 70
     1
  9
$DRAGMODE
 70
     2
  9
$LTSCALE
 40
1.0
  9
$OSMODE
 70
    37
  9
$ATTMODE
 70
     1
  9
$TEXTSIZE
 40
0.2
  9
$TRACEWID
 40
0.05
  9
$TEXTSTYLE
  7
STANDARD
  9
$CLAYER
  8
0
  9
$CELTYPE
  6
BYLAYER
  9
$CECOLOR
 62
   256
  9
$CELTSCALE
 40
1.0
  9
$DELOBJ
 70
     1
  9
$DISPSILH
 70
     0
  9
$DIMSCALE
 40
1.0
  9
$DIMASZ
 40
0.18
  9
$DIMEXO
 40
0.0625
  9
$DIMDLI
 40
0.38
  9
$DIMRND
 40
0.0
  9
$DIMDLE
 40
0.0
  9
$DIMEXE
 40
0.18
  9
$DIMTP
 40
0.0
  9
$DIMTM
 40
0.0
  9
$DIMTXT
 40
0.18
  9
$DIMCEN
 40
0.09
  9
$DIMTSZ
 40
0.0
  9
$DIMTOL
 70
     0
  9
$DIMLIM
 70
     0
  9
$DIMTIH
 70
     1
  9
$DIMTOH
 70
     1
  9
$DIMSE1
 70
     0
  9
$DIMSE2
 70
     0
  9
$DIMTAD
 70
     0
  9
$DIMZIN
 70
     0
  9
$DIMBLK
  1

  9
$DIMASO
 70
     1
  9
$DIMSHO
 70
     1
  9
$DIMPOST
  1

  9
$DIMAPOST
  1

  9
$DIMALT
 70
     0
  9
$DIMALTD
 70
     2
  9
$DIMALTF
 40
25.4
  9
$DIMLFAC
 40
1.0
  9
$DIMTOFL
 70
     0
  9
$DIMTVP
 40
0.0
  9
$DIMTIX
 70
     0
  9
$DIMSOXD
 70
     0
  9
$DIMSAH
 70
     0
  9
$DIMBLK1
  1

  9
$DIMBLK2
  1

  9
$DIMSTYLE
  2
STANDARD
  9
$DIMCLRD
 70
     0
  9
$DIMCLRE
 70
     0
  9
$DIMCLRT
 70
     0
  9
$DIMTFAC
 40
1.0
  9
$DIMGAP
 40
0.09
  9
$DIMJUST
 70
     0
  9
$DIMSD1
 70
     0
  9
$DIMSD2
 70
     0
  9
$DIMTOLJ
 70
     1
  9
$DIMTZIN
 70
     0
  9
$DIMALTZ
 70
     0
  9
$DIMALTTZ
 70
     0
  9
$DIMFIT
 70
     3
  9
$DIMUPT
 70
     0
  9
$DIMUNIT
 70
     2
  9
$DIMDEC
 70
     4
  9
$DIMTDEC
 70
     4
  9
$DIMALTU
 70
     2
  9
$DIMALTTD
 70
     2
  9
$DIMTXSTY
  7
STANDARD
  9
$DIMAUNIT
 70
     0
  9
$LUNITS
 70
     2
  9
$LUPREC
 70
     4
  9
$SKETCHINC
 40
0.1
  9
$FILLETRAD
 40
0.5
  9
$AUNITS
 70
     0
  9
$AUPREC
 70
     0
  9
$MENU
  1
.
  9
$ELEVATION
 40
0.0
  9
$PELEVATION
 40
0.0
  9
$THICKNESS
 40
0.0
  9
$LIMCHECK
 70
     0
  9
$CHAMFERA
 40
0.5
  9
$CHAMFERB
 40
0.5
  9
$CHAMFERC
 40
1.0
  9
$CHAMFERD
 40
0.0
  9
$SKPOLY
 70
     0
  9
$TDCREATE
 40
2457354.487677963
  9
$TDUPDATE
 40
2457354.487677975
  9
$TDINDWG
 40
0.0000000116
  9
$TDUSRTIMER
 40
0.0000000116
  9
$USRTIMER
 70
     1
  9
$ANGBASE
 50
0.0
  9
$ANGDIR
 70
     0
  9
$PDMODE
 70
     0
  9
$PDSIZE
 40
0.0
  9
$PLINEWID
 40
0.0
  9
$COORDS
 70
     1
  9
$SPLFRAME
 70
     0
  9
$SPLINETYPE
 70
     6
  9
$SPLINESEGS
 70
     8
  9
$ATTDIA
 70
     0
  9
$ATTREQ
 70
     1
  9
$HANDLING
 70
     1
  9
$HANDSEED
  5
62
  9
$SURFTAB1
 70
     6
  9
$SURFTAB2
 70
     6
  9
$SURFTYPE
 70
     6
  9
$SURFU
 70
     6
  9
$SURFV
 70
     6
  9
$UCSNAME
  2

  9
$UCSORG
 10
0.0
 20
0.0
 30
0.0
  9
$UCSXDIR
 10
1.0
 20
0.0
 30
0.0
  9
$UCSYDIR
 10
0.0
 20
1.0
 30
0.0
  9
$PUCSNAME
  2

  9
$PUCSORG
 10
0.0
 20
0.0
 30
0.0
  9
$PUCSXDIR
 10
1.0
 20
0.0
 30
0.0
  9
$PUCSYDIR
 10
0.0
 20
1.0
 30
0.0
  9
$USERI1
 70
     0
  9
$USERI2
 70
     0
  9
$USERI3
 70
     0
  9
$USERI4
 70
     0
  9
$USERI5
 70
     0
  9
$USERR1
 40
0.0
  9
$USERR2
 40
0.0
  9
$USERR3
 40
0.0
  9
$USERR4
 40
0.0
  9
$USERR5
 40
0.0
  9
$WORLDVIEW
 70
     1
  9
$SHADEDGE
 70
     3
  9
$SHADEDIF
 70
    70
  9
$TILEMODE
 70
     1
  9
$MAXACTVP
 70
    64
  9
$PINSBASE
 10
0.0
 20
0.0
 30
0.0
  9
$PLIMCHECK
 70
     0
  9
$PEXTMIN
 10
1.000000000000000E+20
 20
1.000000000000000E+20
 30
1.000000000000000E+20
  9
$PEXTMAX
 10
-1.000000000000000E+20
 20
-1.000000000000000E+20
 30
-1.000000000000000E+20
  9
$PLIMMIN
 10
0.0
 20
0.0
  9
$PLIMMAX
 10
12.0
 20
9.0
  9
$UNITMODE
 70
     0
  9
$VISRETAIN
 70
     1
  9
$PLINEGEN
 70
     0
  9
$PSLTSCALE
 70
     1
  9
$TREEDEPTH
 70
  3020
  9
$PICKSTYLE
 70
     1
  9
$CMLSTYLE
  2
STANDARD
  9
$CMLJUST
 70
     0
  9
$CMLSCALE
 40
1.0
  9
$SAVEIMAGES
 70
     1
  0
ENDSEC
  0
SECTION
  2
CLASSES
  0
CLASS
  1
ACDBDICTIONARYWDFLT
  2
AcDbDictionaryWithDefault
  3
ObjectDBX Classes
 90
    32768
280
     0
281
     0
  0
CLASS
  1
VISUALSTYLE
  2
AcDbVisualStyle
  3
ObjectDBX Classes
 90
     4095
280
     0
281
     0
  0
CLASS
  1
XRECORD
  2
AcDbXrecord
  3
AutoCAD 2000
 90
    32768
280
     0
281
     0
  0
CLASS
  1
LWPOLYLINE
  2
AcDbPolyline
  3
AutoCAD 2000
 90
    32768
280
     0
281
     1
  0
CLASS
  1
HATCH
  2
AcDbHatch
  3
AutoCAD 2000
 90
    32768
280
     0
281
     1
  0
CLASS
  1
ACDBPLACEHOLDER
  2
AcDbPlaceHolder
  3
ObjectDBX Classes
 90
        0
280
     0
281
     0
  0
CLASS
  1
LAYOUT
  2
AcDbLayout
  3
ObjectDBX Classes
 90
        0
280
     0
281
     0
  0
ENDSEC
  0
SECTION
  2
TABLES
  0
TABLE
  2
VPORT
  5
8
330
0
100
AcDbSymbolTable
 70
     1
  0
VPORT
  5
29
330
8
100
AcDbSymbolTableRecord
100
AcDbViewportTableRecord
  2
*ACTIVE
 70
     0
 10
0.0
 20
0.0
 11
1.0
 21
1.0
 12
0.0
 22
0.0
 13
0.0
 23
0.0
 14
0.5
 24
0.5
 15
0.5
 25
0.5
 16
0.0
 26
0.0
 36
1.0
 17
148.5053195158251
 27
105.007802301222
 37
0.0
 40
210.015604602444
 41
1.414231288164926
 42
50.0
 43
0.0
 44
0.0
 50
0.0
 51
0.0
 71
     0
 72
   100
 73
     1
 74
     3
 75
     0
 76
     0
 77
     0
 78
     0
  0
ENDTAB
  0
TABLE
  2
LTYPE
  5
5
330
0
100
AcDbSymbolTable
 70
     1
  0
LTYPE
  5
14
330
5
100
AcDbSymbolTableRecord
100
AcDbLinetypeTableRecord
  2
BYBLOCK
 70
     0
  3

 72
    65
 73
     0
 40
0.0
  0
LTYPE
  5
15
330
5
100
AcDbSymbolTableRecord
100
AcDbLinetypeTableRecord
  2
BYLAYER
 70
     0
  3

 72
    65
 73
     0
 40
0.0
  0
LTYPE
  5
16
330
5
100
AcDbSymbolTableRecord
100
AcDbLinetypeTableRecord
  2
CONTINUOUS
 70
     0
  3
Solid line
 72
    65
 73
     0
 40
0.0
  0
ENDTAB
  0
TABLE
  2
LAYER
  5
2
330
0
100
AcDbSymbolTable
 70
     3
  0
LAYER
  5
10
330
2
100
AcDbSymbolTableRecord
100
AcDbLayerTableRecord
  2
0
 70
     0
 62
     7
  6
CONTINUOUS
  0
LAYER
  5
3B
330
2
100
AcDbSymbolTableRecord
100
AcDbLayerTableRecord
  2
LAYER_1
 70
     0
 62
     7
  6
CONTINUOUS
  0
LAYER
  5
5F
330
2
100
AcDbSymbolTableRecord
100
AcDbLayerTableRecord
  2
LAYER_2
 70
     0
 62
     7
  6
CONTINUOUS
  0
ENDTAB
  0
TABLE
  2
STYLE
  5
3
330
0
100
AcDbSymbolTable
 70
     1
  0
STYLE
  5
11
330
3
100
AcDbSymbolTableRecord
100
AcDbTextStyleTableRecord
  2
STANDARD
 70
     0
 40
0.0
 41
1.0
 50
0.0
 71
     0
 42
0.2
  3
txt
  4

  0
ENDTAB
  0
TABLE
  2
VIEW
  5
6
330
0
100
AcDbSymbolTable
 70
     0
  0
ENDTAB
  0
TABLE
  2
UCS
  5
7
330
0
100
AcDbSymbolTable
 70
     0
  0
ENDTAB
  0
TABLE
  2
APPID
  5
9
330
0
100
AcDbSymbolTable
 70
     1
  0
APPID
  5
12
330
9
100
AcDbSymbolTableRecord
100
AcDbRegAppTableRecord
  2
ACAD
 70
     0
  0
ENDTAB
  0
TABLE
  2
DIMSTYLE
  5
A
330
0
100
AcDbSymbolTable
 70
     1
  0
DIMSTYLE
105
27
330
A
100
AcDbSymbolTableRecord
100
AcDbDimStyleTableRecord
  2
STANDARD
 70
     0
  3

  4

  5

  6

  7

 40
1.0
 41
0.18
 42
0.0625
 43
0.38
 44
0.18
 45
0.0
 46
0.0
 47
0.0
 48
0.0
140
0.18
141
0.09
142
0.0
143
25.4
144
1.0
145
0.0
146
1.0
147
0.09
 71
     0
 72
     0
 73
     1
 74
     1
 75
     0
 76
     0
 77
     0
 78
     0
170
     0
171
     2
172
     0
173
     0
174
     0
175
     0
176
     0
177
     0
178
     0
270
     2
271
     4
272
     4
273
     2
274
     2
340
11
275
     0
280
     0
281
     0
282
     0
283
     1
284
     0
285
     0
286
     0
287
     3
288
     0
  0
ENDTAB
  0
TABLE
  2
BLOCK_RECORD
  5
1
330
0
100
AcDbSymbolTable
 70
     1
  0
BLOCK_RECORD
  5
1F
330
1
100
AcDbSymbolTableRecord
100
AcDbBlockTableRecord
  2
*MODEL_SPACE
  0
BLOCK_RECORD
  5
1B
330
1
100
AcDbSymbolTableRecord
100
AcDbBlockTableRecord
  2
*PAPER_SPACE
  0
ENDTAB
  0
ENDSEC
  0
SECTION
  2
BLOCKS
  0
BLOCK
  5
20
330
1F
100
AcDbEntity
  8
0
100
AcDbBlockBegin
  2
*MODEL_SPACE
 70
     0
 71
     0
 10
0.0
 20
0.0
 30
0.0
  3
*MODEL_SPACE
  1

  0
ENDBLK
  5
21
330
1F
100
AcDbEntity
  8
0
100
AcDbBlockEnd
  0
BLOCK
  5
1C
330
1B
100
AcDbEntity
 67
     1
  8
0
100
AcDbBlockBegin
  2
*PAPER_SPACE
 70
     0
 71
     0
 10
0.0
 20
0.0
 30
0.0
  3
*PAPER_SPACE
  1

  0
ENDBLK
  5
1D
330
1B
100
AcDbEntity
 67
     1
  8
0
100
AcDbBlockEnd
  0
ENDSEC
  0
SECTION
  2
ENTITIES
  0
SPLINE
  5
3C
330
1F
100
AcDbEntity
  8
LAYER_1
 62
     7
100
AcDbSpline
210
0.0
220
0.0
230
1.0
 70
    11
 71
     3
 72
    62
 73
    58
 74
     0
 42
0.0000000001
 43
0.0000000001
 40
0.0
 40
0.0
 40
0.0
 40
0.0
 40
1.0
 40
1.0
 40
1.0
 40
2.0
 40
2.0
 40
2.0
 40
3.0
 40
3.0
 40
3.0
 40
4.0
 40
4.0
 40
4.0
 40
5.0
 40
5.0
 40
5.0
 40
6.0
 40
6.0
 40
6.0
 40
7.0
 40
7.0
 40
7.0
 40
8.0
 40
8.0
 40
8.0
 40
9.0
 40
9.0
 40
9.0
 40
10.0
 40
10.0
 40
10.0
 40
11.0
 40
11.0
 40
11.0
 40
12.0
 40
12.0
 40
12.0
 40
13.0
 40
13.0
 40
13.0
 40
14.0
 40
14.0
 40
14.0
 40
15.0
 40
15.0
 40
15.0
 40
16.0
 40
16.0
 40
16.0
 40
17.0
 40
17.0
 40
17.0
 40
18.0
 40
18.0
 40
18.0
 40
19.0
 40
19.0
 40
19.0
 40
19.0
 10
211.8192843437466
 20
210.0169826406381
 30
0.0
 10
211.8192843437466
 20
210.0169826406381
 30
0.0
 10
18.10173746292248
 20
210.0169826406381
 30
0.0
 10
18.10173746292248
 20
210.0169826406381
 30
0.0
 10
18.10173746292248
 20
210.0169826406381
 30
0.0
 10
18.00406900591565
 20
210.0597018246552
 30
0.0
 10
18.00372449636713
 20
210.0597018246552
 30
0.0
 10
16.37195501977854
 20
210.0597018246552
 30
0.0
 10
15.02457817549733
 20
211.3853745673794
 30
0.0
 10
15.00097927142337
 20
213.015249241451
 30
0.0
 10
15.00097927142337
 20
213.015249241451
 30
0.0
 10
15.00080701664911
 20
332.0183213145649
 30
0.0
 10
15.00080701664911
 20
332.0183213145649
 30
0.0
 10
15.01114230310485
 20
333.678685083681
 30
0.0
 10
16.35955267603164
 20
335.0270954566078
 30
0.0
 10
18.00648057275533
 20
335.0270954566078
 30
0.0
 10
18.00648057275533
 20
335.0270954566078
 30
0.0
 10
212.0170328245999
 20
335.0270954566078
 30
0.0
 10
212.0170328245999
 20
335.0270954566078
 30
0.0
 10
213.6310600594395
 20
335.0165879153778
 30
0.0
 10
214.94122987248
 20
333.6872978223942
 30
0.0
 10
214.94122987248
 20
332.0637965749702
 30
0.0
 10
214.94122987248
 20
332.0637965749702
 30
0.0
 10
214.94122987248
 20
332.0122923974657
 30
0.0
 10
214.94122987248
 20
332.0122923974657
 30
0.0
 10
214.94122987248
 20
332.0122923974657
 30
0.0
 10
214.9839490564971
 20
331.9158297238787
 30
0.0
 10
214.9839490564971
 20
331.9158297238787
 30
0.0
 10
214.9839490564971
 20
331.9158297238787
 30
0.0
 10
214.9836045469486
 20
314.9029146890694
 30
0.0
 10
214.9836045469486
 20
314.9029146890694
 30
0.0
 10
214.9836045469486
 20
314.9029146890694
 30
0.0
 10
237.3274603356334
 20
314.9029146890694
 30
0.0
 10
237.3274603356334
 20
314.9029146890694
 30
0.0
 10
237.3274603356334
 20
314.9029146890694
 30
0.0
 10
237.3274603356334
 20
254.6099540921635
 30
0.0
 10
237.3274603356334
 20
254.6099540921635
 30
0.0
 10
237.3274603356334
 20
254.6099540921635
 30
0.0
 10
214.9836045469486
 20
254.6099540921635
 30
0.0
 10
214.9836045469486
 20
254.6099540921635
 30
0.0
 10
214.9836045469486
 20
254.6099540921635
 30
0.0
 10
214.9836045469486
 20
213.1399616980171
 30
0.0
 10
214.9836045469486
 20
213.1399616980171
 30
0.0
 10
214.9836045469486
 20
213.1399616980171
 30
0.0
 10
214.94122987248
 20
213.0434990244301
 30
0.0
 10
214.94122987248
 20
213.0434990244301
 30
0.0
 10
214.94122987248
 20
213.0434990244301
 30
0.0
 10
214.94122987248
 20
213.0014688595101
 30
0.0
 10
214.94122987248
 20
213.0014688595101
 30
0.0
 10
214.94122987248
 20
211.3898531915102
 30
0.0
 10
213.6307155498909
 20
210.0696926015625
 30
0.0
 10
212.0201334105366
 20
210.0590128055582
 30
0.0
 10
212.0201334105366
 20
210.0590128055582
 30
0.0
 10
211.9229817178526
 20
210.015604602444
 30
0.0
 10
211.9229817178526
 20
210.015604602444
 30
0.0
 10
211.9229817178526
 20
210.015604602444
 30
0.0
 10
211.8192843437466
 20
210.0169826406381
 30
0.0
 10
211.8192843437466
 20
210.0169826406381
 30
0.0
  0
SPLINE
  5
3D
330
1F
100
AcDbEntity
  8
LAYER_1
 62
     7
100
AcDbSpline
210
0.0
220
0.0
230
1.0
 70
    11
 71
     3
 72
    17
 73
    13
 74
     0
 42
0.0000000001
 43
0.0000000001
 40
0.0
 40
0.0
 40
0.0
 40
0.0
 40
1.0
 40
1.0
 40
1.0
 40
2.0
 40
2.0
 40
2.0
 40
3.0
 40
3.0
 40
3.0
 40
4.0
 40
4.0
 40
4.0
 40
4.0
 10
212.4435356456738
 20
330.0318792577698
 30
0.0
 10
212.4435356456738
 20
330.8494004164196
 30
0.0
 10
211.7820773125059
 20
331.5134425712015
 30
0.0
 10
210.9618000774679
 20
331.5134425712015
 30
0.0
 10
210.1415228424299
 20
331.5134425712015
 30
0.0
 10
209.480064509262
 20
330.8494004164196
 30
0.0
 10
209.480064509262
 20
330.0318792577698
 30
0.0
 10
209.480064509262
 20
329.2141858443458
 30
0.0
 10
210.1415228424299
 20
328.5501436895639
 30
0.0
 10
210.9618000774679
 20
328.5501436895639
 30
0.0
 10
211.7820773125059
 20
328.5501436895639
 30
0.0
 10
212.4435356456738
 20
329.2141858443458
 30
0.0
 10
212.4435356456738
 20
330.0318792577698
 30
0.0
  0
SPLINE
  5
3E
330
1F
100
AcDbEntity
  8
LAYER_1
 62
     7
100
AcDbSpline
210
0.0
220
0.0
230
1.0
 70
    11
 71
     3
 72
    17
 73
    13
 74
     0
 42
0.0000000001
 43
0.0000000001
 40
0.0
 40
0.0
 40
0.0
 40
0.0
 40
1.0
 40
1.0
 40
1.0
 40
2.0
 40
2.0
 40
2.0
 40
3.0
 40
3.0
 40
3.0
 40
4.0
 40
4.0
 40
4.0
 40
4.0
 10
20.46180012509289
 20
330.0318792577698
 30
0.0
 10
20.46180012509289
 20
330.8494004164196
 30
0.0
 10
19.80034179192491
 20
331.5134425712015
 30
0.0
 10
18.98006455688693
 20
331.5134425712015
 30
0.0
 10
18.1599595766232
 20
331.5134425712015
 30
0.0
 10
17.49850124345524
 20
330.8494004164196
 30
0.0
 10
17.49850124345524
 20
330.0318792577698
 30
0.0
 10
17.49850124345524
 20
329.2141858443458
 30
0.0
 10
18.1599595766232
 20
328.5501436895639
 30
0.0
 10
18.98006455688693
 20
328.5501436895639
 30
0.0
 10
19.80034179192491
 20
328.5501436895639
 30
0.0
 10
20.46180012509289
 20
329.2141858443458
 30
0.0
 10
20.46180012509289
 20
330.0318792577698
 30
0.0
  0
SPLINE
  5
3F
330
1F
100
AcDbEntity
  8
LAYER_1
 62
     7
100
AcDbSpline
210
0.0
220
0.0
230
1.0
 70
    11
 71
     3
 72
    17
 73
    13
 74
     0
 42
0.0000000001
 43
0.0000000001
 40
0.0
 40
0.0
 40
0.0
 40
0.0
 40
1.0
 40
1.0
 40
1.0
 40
2.0
 40
2.0
 40
2.0
 40
3.0
 40
3.0
 40
3.0
 40
4.0
 40
4.0
 40
4.0
 40
4.0
 10
95.9421196591742
 20
236.5173461322769
 30
0.0
 10
95.9421196591742
 20
237.3352118004752
 30
0.0
 10
95.28066132600622
 20
237.9990817004829
 30
0.0
 10
94.46038409096825
 20
237.9990817004829
 30
0.0
 10
93.64027911070451
 20
237.9990817004829
 30
0.0
 10
92.97882077753655
 20
237.3352118004752
 30
0.0
 10
92.97882077753655
 20
236.5173461322769
 30
0.0
 10
92.97882077753655
 20
235.6998249736271
 30
0.0
 10
93.64027911070451
 20
235.0359550736195
 30
0.0
 10
94.46038409096825
 20
235.0359550736195
 30
0.0
 10
95.28066132600622
 20
235.0359550736195
 30
0.0
 10
95.9421196591742
 20
235.6998249736271
 30
0.0
 10
95.9421196591742
 20
236.5173461322769
 30
0.0
  0
SPLINE
  5
40
330
1F
100
AcDbEntity
  8
LAYER_1
 62
     7
100
AcDbSpline
210
0.0
220
0.0
230
1.0
 70
    11
 71
     3
 72
    17
 73
    13
 74
     0
 42
0.0000000001
 43
0.0000000001
 40
0.0
 40
0.0
 40
0.0
 40
0.0
 40
1.0
 40
1.0
 40
1.0
 40
2.0
 40
2.0
 40
2.0
 40
3.0
 40
3.0
 40
3.0
 40
4.0
 40
4.0
 40
4.0
 40
4.0
 10
20.46180012509289
 20
286.8519137195197
 30
0.0
 10
20.46180012509289
 20
287.6694348781695
 30
0.0
 10
19.80034179192491
 20
288.3334770329514
 30
0.0
 10
18.98006455688693
 20
288.3334770329514
 30
0.0
 10
18.1599595766232
 20
288.3334770329514
 30
0.0
 10
17.49850124345524
 20
287.6694348781695
 30
0.0
 10
17.49850124345524
 20
286.8519137195197
 30
0.0
 10
17.49850124345524
 20
286.0342203060956
 30
0.0
 10
18.1599595766232
 20
285.3701781513137
 30
0.0
 10
18.98006455688693
 20
285.3701781513137
 30
0.0
 10
19.80034179192491
 20
285.3701781513137
 30
0.0
 10
20.46180012509289
 20
286.0342203060956
 30
0.0
 10
20.46180012509289
 20
286.8519137195197
 30
0.0
  0
SPLINE
  5
41
330
1F
100
AcDbEntity
  8
LAYER_1
 62
     7
100
AcDbSpline
210
0.0
220
0.0
230
1.0
 70
    11
 71
     3
 72
    17
 73
    13
 74
     0
 42
0.0000000001
 43
0.0000000001
 40
0.0
 40
0.0
 40
0.0
 40
0.0
 40
1.0
 40
1.0
 40
1.0
 40
2.0
 40
2.0
 40
2.0
 40
3.0
 40
3.0
 40
3.0
 40
4.0
 40
4.0
 40
4.0
 40
4.0
 10
20.46180012509289
 20
214.4618448357075
 30
0.0
 10
20.46180012509289
 20
215.2793659943572
 30
0.0
 10
19.80034179192491
 20
215.9435804039134
 30
0.0
 10
18.98006455688693
 20
215.9435804039134
 30
0.0
 10
18.1599595766232
 20
215.9435804039134
 30
0.0
 10
17.49850124345524
 20
215.2793659943572
 30
0.0
 10
17.49850124345524
 20
214.4618448357075
 30
0.0
 10
17.49850124345524
 20
213.6443236770577
 30
0.0
 10
18.1599595766232
 20
212.9801092675015
 30
0.0
 10
18.98006455688693
 20
212.9801092675015
 30
0.0
 10
19.80034179192491
 20
212.9801092675015
 30
0.0
 10
20.46180012509289
 20
213.6443236770577
 30
0.0
 10
20.46180012509289
 20
214.4618448357075
 30
0.0
  0
SPLINE
  5
42
330
1F
100
AcDbEntity
  8
LAYER_1
 62
     7
100
AcDbSpline
210
0.0
220
0.0
230
1.0
 70
    11
 71
     3
 72
    17
 73
    13
 74
     0
 42
0.0000000001
 43
0.0000000001
 40
0.0
 40
0.0
 40
0.0
 40
0.0
 40
1.0
 40
1.0
 40
1.0
 40
2.0
 40
2.0
 40
2.0
 40
3.0
 40
3.0
 40
3.0
 40
4.0
 40
4.0
 40
4.0
 40
4.0
 10
212.4435356456738
 20
214.4618448357075
 30
0.0
 10
212.4435356456738
 20
215.2793659943572
 30
0.0
 10
211.7820773125059
 20
215.9435804039134
 30
0.0
 10
210.9618000774679
 20
215.9435804039134
 30
0.0
 10
210.1415228424299
 20
215.9435804039134
 30
0.0
 10
209.480064509262
 20
215.2793659943572
 30
0.0
 10
209.480064509262
 20
214.4618448357075
 30
0.0
 10
209.480064509262
 20
213.6443236770577
 30
0.0
 10
210.1415228424299
 20
212.9801092675015
 30
0.0
 10
210.9618000774679
 20
212.9801092675015
 30
0.0
 10
211.7820773125059
 20
212.9801092675015
 30
0.0
 10
212.4435356456738
 20
213.6443236770577
 30
0.0
 10
212.4435356456738
 20
214.4618448357075
 30
0.0
  0
SPLINE
  5
43
330
1F
100
AcDbEntity
  8
LAYER_1
 62
     7
100
AcDbSpline
210
0.0
220
0.0
230
1.0
 70
    11
 71
     3
 72
    17
 73
    13
 74
     0
 42
0.0000000001
 43
0.0000000001
 40
0.0
 40
0.0
 40
0.0
 40
0.0
 40
1.0
 40
1.0
 40
1.0
 40
2.0
 40
2.0
 40
2.0
 40
3.0
 40
3.0
 40
3.0
 40
4.0
 40
4.0
 40
4.0
 40
4.0
 10
74.94477944089923
 20
236.5173461322769
 30
0.0
 10
74.94477944089923
 20
237.3352118004752
 30
0.0
 10
74.28332110773125
 20
237.9990817004829
 30
0.0
 10
73.46321612746753
 20
237.9990817004829
 30
0.0
 10
72.64293889242954
 20
237.9990817004829
 30
0.0
 10
71.98148055926158
 20
237.3352118004752
 30
0.0
 10
71.98148055926158
 20
236.5173461322769
 30
0.0
 10
71.98148055926158
 20
235.6998249736271
 30
0.0
 10
72.64293889242954
 20
235.0359550736195
 30
0.0
 10
73.46321612746753
 20
235.0359550736195
 30
0.0
 10
74.28332110773125
 20
235.0359550736195
 30
0.0
 10
74.94477944089923
 20
235.6998249736271
 30
0.0
 10
74.94477944089923
 20
236.5173461322769
 30
0.0
  0
SPLINE
  5
44
330
1F
100
AcDbEntity
  8
LAYER_1
 62
     7
100
AcDbSpline
210
0.0
220
0.0
230
1.0
 70
    11
 71
     3
 72
    17
 73
    13
 74
     0
 42
0.0000000001
 43
0.0000000001
 40
0.0
 40
0.0
 40
0.0
 40
0.0
 40
1.0
 40
1.0
 40
1.0
 40
2.0
 40
2.0
 40
2.0
 40
3.0
 40
3.0
 40
3.0
 40
4.0
 40
4.0
 40
4.0
 40
4.0
 10
212.4435356456738
 20
251.7574150303766
 30
0.0
 10
212.4435356456738
 20
252.5749361890264
 30
0.0
 10
211.7820773125059
 20
253.2391505985826
 30
0.0
 10
210.9618000774679
 20
253.2391505985826
 30
0.0
 10
210.1415228424299
 20
253.2391505985826
 30
0.0
 10
209.480064509262
 20
252.5749361890264
 30
0.0
 10
209.480064509262
 20
251.7574150303766
 30
0.0
 10
209.480064509262
 20
250.9398938717268
 30
0.0
 10
210.1415228424299
 20
250.2756794621707
 30
0.0
 10
210.9618000774679
 20
250.2756794621707
 30
0.0
 10
211.7820773125059
 20
250.2756794621707
 30
0.0
 10
212.4435356456738
 20
250.9398938717268
 30
0.0
 10
212.4435356456738
 20
251.7574150303766
 30
0.0
  0
SPLINE
  5
45
330
1F
100
AcDbEntity
  8
LAYER_1
 62
     7
100
AcDbSpline
210
0.0
220
0.0
230
1.0
 70
    11
 71
     3
 72
    17
 73
    13
 74
     0
 42
0.0000000001
 43
0.0000000001
 40
0.0
 40
0.0
 40
0.0
 40
0.0
 40
1.0
 40
1.0
 40
1.0
 40
2.0
 40
2.0
 40
2.0
 40
3.0
 40
3.0
 40
3.0
 40
4.0
 40
4.0
 40
4.0
 40
4.0
 10
118.4633978653494
 20
236.5173461322769
 30
0.0
 10
118.4633978653494
 20
237.3352118004752
 30
0.0
 10
117.8019395321815
 20
237.9990817004829
 30
0.0
 10
116.9816622971435
 20
237.9990817004829
 30
0.0
 10
116.161729571654
 20
237.9990817004829
 30
0.0
 10
115.5002712384861
 20
237.3352118004752
 30
0.0
 10
115.5002712384861
 20
236.5173461322769
 30
0.0
 10
115.5002712384861
 20
235.6998249736271
 30
0.0
 10
116.161729571654
 20
235.0359550736195
 30
0.0
 10
116.9816622971435
 20
235.0359550736195
 30
0.0
 10
117.8019395321815
 20
235.0359550736195
 30
0.0
 10
118.4633978653494
 20
235.6998249736271
 30
0.0
 10
118.4633978653494
 20
236.5173461322769
 30
0.0
  0
SPLINE
  5
46
330
1F
100
AcDbEntity
  8
LAYER_1
 62
     7
100
AcDbSpline
210
0.0
220
0.0
230
1.0
 70
    11
 71
     3
 72
    17
 73
    13
 74
     0
 42
0.0000000001
 43
0.0000000001
 40
0.0
 40
0.0
 40
0.0
 40
0.0
 40
1.0
 40
1.0
 40
1.0
 40
2.0
 40
2.0
 40
2.0
 40
3.0
 40
3.0
 40
3.0
 40
4.0
 40
4.0
 40
4.0
 40
4.0
 10
141.4504529811304
 20
236.5173461322769
 30
0.0
 10
141.4504529811304
 20
237.3352118004752
 30
0.0
 10
140.7889946479625
 20
237.9990817004829
 30
0.0
 10
139.9687174129245
 20
237.9990817004829
 30
0.0
 10
139.1484401778865
 20
237.9990817004829
 30
0.0
 10
138.4869818447185
 20
237.3352118004752
 30
0.0
 10
138.4869818447185
 20
236.5173461322769
 30
0.0
 10
138.4869818447185
 20
235.6998249736271
 30
0.0
 10
139.1484401778865
 20
235.0359550736195
 30
0.0
 10
139.9687174129245
 20
235.0359550736195
 30
0.0
 10
140.7889946479625
 20
235.0359550736195
 30
0.0
 10
141.4504529811304
 20
235.6998249736271
 30
0.0
 10
141.4504529811304
 20
236.5173461322769
 30
0.0
  0
SPLINE
  5
47
330
1F
100
AcDbEntity
  8
LAYER_1
 62
     7
100
AcDbSpline
210
0.0
220
0.0
230
1.0
 70
    11
 71
     3
 72
    17
 73
    13
 74
     0
 42
0.0000000001
 43
0.0000000001
 40
0.0
 40
0.0
 40
0.0
 40
0.0
 40
1.0
 40
1.0
 40
1.0
 40
2.0
 40
2.0
 40
2.0
 40
3.0
 40
3.0
 40
3.0
 40
4.0
 40
4.0
 40
4.0
 40
4.0
 10
164.4375080969115
 20
236.5173461322769
 30
0.0
 10
164.4375080969115
 20
237.3352118004752
 30
0.0
 10
163.7760497637435
 20
237.9990817004829
 30
0.0
 10
162.9557725287055
 20
237.9990817004829
 30
0.0
 10
162.1354952936675
 20
237.9990817004829
 30
0.0
 10
161.4740369604995
 20
237.3352118004752
 30
0.0
 10
161.4740369604995
 20
236.5173461322769
 30
0.0
 10
161.4740369604995
 20
235.6998249736271
 30
0.0
 10
162.1354952936675
 20
235.0359550736195
 30
0.0
 10
162.9557725287055
 20
235.0359550736195
 30
0.0
 10
163.7760497637435
 20
235.0359550736195
 30
0.0
 10
164.4375080969115
 20
235.6998249736271
 30
0.0
 10
164.4375080969115
 20
236.5173461322769
 30
0.0
  0
SPLINE
  5
48
330
1F
100
AcDbEntity
  8
LAYER_1
 62
     7
100
AcDbSpline
210
0.0
220
0.0
230
1.0
 70
    11
 71
     3
 72
    17
 73
    13
 74
     0
 42
0.0000000001
 43
0.0000000001
 40
0.0
 40
0.0
 40
0.0
 40
0.0
 40
1.0
 40
1.0
 40
1.0
 40
2.0
 40
2.0
 40
2.0
 40
3.0
 40
3.0
 40
3.0
 40
4.0
 40
4.0
 40
4.0
 40
4.0
 10
186.4506347190124
 20
236.5173461322769
 30
0.0
 10
186.4506347190124
 20
237.3352118004752
 30
0.0
 10
185.7891763858444
 20
237.9990817004829
 30
0.0
 10
184.9692436603549
 20
237.9990817004829
 30
0.0
 10
184.1489664253169
 20
237.9990817004829
 30
0.0
 10
183.487508092149
 20
237.3352118004752
 30
0.0
 10
183.487508092149
 20
236.5173461322769
 30
0.0
 10
183.487508092149
 20
235.6998249736271
 30
0.0
 10
184.1489664253169
 20
235.0359550736195
 30
0.0
 10
184.9692436603549
 20
235.0359550736195
 30
0.0
 10
185.7891763858444
 20
235.0359550736195
 30
0.0
 10
186.4506347190124
 20
235.6998249736271
 30
0.0
 10
186.4506347190124
 20
236.5173461322769
 30
0.0
  0
SPLINE
  5
49
330
1F
100
AcDbEntity
  8
LAYER_1
 62
     7
100
AcDbSpline
210
0.0
220
0.0
230
1.0
 70
    11
 71
     3
 72
    17
 73
    13
 74
     0
 42
0.0000000001
 43
0.0000000001
 40
0.0
 40
0.0
 40
0.0
 40
0.0
 40
1.0
 40
1.0
 40
1.0
 40
2.0
 40
2.0
 40
2.0
 40
3.0
 40
3.0
 40
3.0
 40
4.0
 40
4.0
 40
4.0
 40
4.0
 10
97.96042884920782
 20
236.5173461322769
 30
0.0
 10
97.96042884920782
 20
238.4490111708565
 30
0.0
 10
96.39807804664702
 20
240.0168741261937
 30
0.0
 10
94.46038409096825
 20
240.0168741261937
 30
0.0
 10
92.52337915438652
 20
240.0168741261937
 30
0.0
 10
90.96051158750294
 20
238.4490111708565
 30
0.0
 10
90.96051158750294
 20
236.5173461322769
 30
0.0
 10
90.96051158750294
 20
234.5860256032459
 30
0.0
 10
92.52337915438652
 20
233.0181626479087
 30
0.0
 10
94.46038409096825
 20
233.0181626479087
 30
0.0
 10
96.39807804664702
 20
233.0181626479087
 30
0.0
 10
97.96042884920782
 20
234.5860256032459
 30
0.0
 10
97.96042884920782
 20
236.5173461322769
 30
0.0
  0
SPLINE
  5
4A
330
1F
100
AcDbEntity
  8
LAYER_1
 62
     7
100
AcDbSpline
210
0.0
220
0.0
230
1.0
 70
    11
 71
     3
 72
    17
 73
    13
 74
     0
 42
0.0000000001
 43
0.0000000001
 40
0.0
 40
0.0
 40
0.0
 40
0.0
 40
1.0
 40
1.0
 40
1.0
 40
2.0
 40
2.0
 40
2.0
 40
3.0
 40
3.0
 40
3.0
 40
4.0
 40
4.0
 40
4.0
 40
4.0
 10
76.9632608857071
 20
236.5173461322769
 30
0.0
 10
76.9632608857071
 20
238.4490111708565
 30
0.0
 10
75.40056557359777
 20
240.0168741261937
 30
0.0
 10
73.46321612746753
 20
240.0168741261937
 30
0.0
 10
71.52552217178877
 20
240.0168741261937
 30
0.0
 10
69.96317136922796
 20
238.4490111708565
 30
0.0
 10
69.96317136922796
 20
236.5173461322769
 30
0.0
 10
69.96317136922796
 20
234.5860256032459
 30
0.0
 10
71.52552217178877
 20
233.0181626479087
 30
0.0
 10
73.46321612746753
 20
233.0181626479087
 30
0.0
 10
75.40056557359777
 20
233.0181626479087
 30
0.0
 10
76.9632608857071
 20
234.5860256032459
 30
0.0
 10
76.9632608857071
 20
236.5173461322769
 30
0.0
  0
SPLINE
  5
4B
330
1F
100
AcDbEntity
  8
LAYER_1
 62
     7
100
AcDbSpline
210
0.0
220
0.0
230
1.0
 70
    11
 71
     3
 72
    17
 73
    13
 74
     0
 42
0.0000000001
 43
0.0000000001
 40
0.0
 40
0.0
 40
0.0
 40
0.0
 40
1.0
 40
1.0
 40
1.0
 40
2.0
 40
2.0
 40
2.0
 40
3.0
 40
3.0
 40
3.0
 40
4.0
 40
4.0
 40
4.0
 40
4.0
 10
120.4815348006088
 20
236.5173461322769
 30
0.0
 10
120.4815348006088
 20
238.449355680405
 30
0.0
 10
118.9202175266936
 20
240.0172186357422
 30
0.0
 10
116.9816622971435
 20
240.0172186357422
 30
0.0
 10
115.044829615336
 20
240.0172186357422
 30
0.0
 10
113.4814452841296
 20
238.449355680405
 30
0.0
 10
113.4814452841296
 20
236.5173461322769
 30
0.0
 10
113.4814452841296
 20
234.5856810936973
 30
0.0
 10
115.044829615336
 20
233.0181626479087
 30
0.0
 10
116.9816622971435
 20
233.0181626479087
 30
0.0
 10
118.9202175266936
 20
233.0181626479087
 30
0.0
 10
120.4815348006088
 20
234.5856810936973
 30
0.0
 10
120.4815348006088
 20
236.5173461322769
 30
0.0
  0
SPLINE
  5
4C
330
1F
100
AcDbEntity
  8
LAYER_1
 62
     7
100
AcDbSpline
210
0.0
220
0.0
230
1.0
 70
    11
 71
     3
 72
    17
 73
    13
 74
     0
 42
0.0000000001
 43
0.0000000001
 40
0.0
 40
0.0
 40
0.0
 40
0.0
 40
1.0
 40
1.0
 40
1.0
 40
2.0
 40
2.0
 40
2.0
 40
3.0
 40
3.0
 40
3.0
 40
4.0
 40
4.0
 40
4.0
 40
4.0
 10
143.4685899163898
 20
236.5173461322769
 30
0.0
 10
143.4685899163898
 20
238.4490111708565
 30
0.0
 10
141.905550094732
 20
240.0172186357422
 30
0.0
 10
139.9687174129245
 20
240.0172186357422
 30
0.0
 10
138.031884731117
 20
240.0172186357422
 30
0.0
 10
136.4688449094592
 20
238.4490111708565
 30
0.0
 10
136.4688449094592
 20
236.5173461322769
 30
0.0
 10
136.4688449094592
 20
234.5860256032459
 30
0.0
 10
138.031884731117
 20
233.0178181383601
 30
0.0
 10
139.9687174129245
 20
233.0178181383601
 30
0.0
 10
141.905550094732
 20
233.0178181383601
 30
0.0
 10
143.4685899163898
 20
234.5860256032459
 30
0.0
 10
143.4685899163898
 20
236.5173461322769
 30
0.0
  0
SPLINE
  5
4D
330
1F
100
AcDbEntity
  8
LAYER_1
 62
     7
100
AcDbSpline
210
0.0
220
0.0
230
1.0
 70
    11
 71
     3
 72
    17
 73
    13
 74
     0
 42
0.0000000001
 43
0.0000000001
 40
0.0
 40
0.0
 40
0.0
 40
0.0
 40
1.0
 40
1.0
 40
1.0
 40
2.0
 40
2.0
 40
2.0
 40
3.0
 40
3.0
 40
3.0
 40
4.0
 40
4.0
 40
4.0
 40
4.0
 10
166.4556450321708
 20
236.5173461322769
 30
0.0
 10
166.4556450321708
 20
238.4490111708565
 30
0.0
 10
164.892605210513
 20
240.0172186357422
 30
0.0
 10
162.9557725287055
 20
240.0172186357422
 30
0.0
 10
161.0189398468981
 20
240.0172186357422
 30
0.0
 10
159.4559000252402
 20
238.4490111708565
 30
0.0
 10
159.4559000252402
 20
236.5173461322769
 30
0.0
 10
159.4559000252402
 20
234.5860256032459
 30
0.0
 10
161.0189398468981
 20
233.0178181383601
 30
0.0
 10
162.9557725287055
 20
233.0178181383601
 30
0.0
 10
164.892605210513
 20
233.0178181383601
 30
0.0
 10
166.4556450321708
 20
234.5860256032459
 30
0.0
 10
166.4556450321708
 20
236.5173461322769
 30
0.0
  0
SPLINE
  5
4E
330
1F
100
AcDbEntity
  8
LAYER_1
 62
     7
100
AcDbSpline
210
0.0
220
0.0
230
1.0
 70
    11
 71
     3
 72
    17
 73
    13
 74
     0
 42
0.0000000001
 43
0.0000000001
 40
0.0
 40
0.0
 40
0.0
 40
0.0
 40
1.0
 40
1.0
 40
1.0
 40
2.0
 40
2.0
 40
2.0
 40
3.0
 40
3.0
 40
3.0
 40
4.0
 40
4.0
 40
4.0
 40
4.0
 10
188.4691161638202
 20
236.5173461322769
 30
0.0
 10
188.4691161638202
 20
238.449355680405
 30
0.0
 10
186.9060763421624
 20
240.0172186357422
 30
0.0
 10
184.9692436603549
 20
240.0172186357422
 30
0.0
 10
183.0320664689989
 20
240.0172186357422
 30
0.0
 10
181.4690266473411
 20
238.449355680405
 30
0.0
 10
181.4690266473411
 20
236.5173461322769
 30
0.0
 10
181.4690266473411
 20
234.5856810936973
 30
0.0
 10
183.0320664689989
 20
233.0181626479087
 30
0.0
 10
184.9692436603549
 20
233.0181626479087
 30
0.0
 10
186.9060763421624
 20
233.0181626479087
 30
0.0
 10
188.4691161638202
 20
234.5856810936973
 30
0.0
 10
188.4691161638202
 20
236.5173461322769
 30
0.0
  0
SPLINE
  5
4F
330
1F
100
AcDbEntity
  8
LAYER_1
 62
     7
100
AcDbSpline
210
0.0
220
0.0
230
1.0
 70
    11
 71
     3
 72
    26
 73
    22
 74
     0
 42
0.0000000001
 43
0.0000000001
 40
0.0
 40
0.0
 40
0.0
 40
0.0
 40
1.0
 40
1.0
 40
1.0
 40
2.0
 40
2.0
 40
2.0
 40
3.0
 40
3.0
 40
3.0
 40
4.0
 40
4.0
 40
4.0
 40
5.0
 40
5.0
 40
5.0
 40
6.0
 40
6.0
 40
6.0
 40
7.0
 40
7.0
 40
7.0
 40
7.0
 10
62.35760632121616
 20
333.52710088233
 30
0.0
 10
62.35760632121616
 20
333.52710088233
 30
0.0
 10
22.4801093151265
 20
333.52710088233
 30
0.0
 10
22.4801093151265
 20
333.52710088233
 30
0.0
 10
22.4801093151265
 20
333.52710088233
 30
0.0
 10
22.4801093151265
 20
330.0318792577698
 30
0.0
 10
22.4801093151265
 20
330.0318792577698
 30
0.0
 10
22.4801093151265
 20
328.1005587287387
 30
0.0
 10
20.9177585125657
 20
326.5318344995302
 30
0.0
 10
18.98006455688693
 20
326.5318344995302
 30
0.0
 10
18.98006455688693
 20
326.5318344995302
 30
0.0
 10
16.50080159092688
 20
326.5318344995302
 30
0.0
 10
16.50080159092688
 20
326.5318344995302
 30
0.0
 10
16.50080159092688
 20
326.5318344995302
 30
0.0
 10
16.50080159092688
 20
297.3646225927595
 30
0.0
 10
16.50080159092688
 20
297.3646225927595
 30
0.0
 10
16.50080159092688
 20
297.3646225927595
 30
0.0
 10
62.35760632121616
 20
297.3646225927595
 30
0.0
 10
62.35760632121616
 20
297.3646225927595
 30
0.0
 10
62.35760632121616
 20
297.3646225927595
 30
0.0
 10
62.35760632121616
 20
333.52710088233
 30
0.0
 10
62.35760632121616
 20
333.52710088233
 30
0.0
  0
SPLINE
  5
50
330
1F
100
AcDbEntity
  8
LAYER_1
 62
     7
100
AcDbSpline
210
0.0
220
0.0
230
1.0
 70
    11
 71
     3
 72
   101
 73
    97
 74
     0
 42
0.0000000001
 43
0.0000000001
 40
0.0
 40
0.0
 40
0.0
 40
0.0
 40
1.0
 40
1.0
 40
1.0
 40
2.0
 40
2.0
 40
2.0
 40
3.0
 40
3.0
 40
3.0
 40
4.0
 40
4.0
 40
4.0
 40
5.0
 40
5.0
 40
5.0
 40
6.0
 40
6.0
 40
6.0
 40
7.0
 40
7.0
 40
7.0
 40
8.0
 40
8.0
 40
8.0
 40
9.0
 40
9.0
 40
9.0
 40
10.0
 40
10.0
 40
10.0
 40
11.0
 40
11.0
 40
11.0
 40
12.0
 40
12.0
 40
12.0
 40
13.0
 40
13.0
 40
13.0
 40
14.0
 40
14.0
 40
14.0
 40
15.0
 40
15.0
 40
15.0
 40
16.0
 40
16.0
 40
16.0
 40
17.0
 40
17.0
 40
17.0
 40
18.0
 40
18.0
 40
18.0
 40
19.0
 40
19.0
 40
19.0
 40
20.0
 40
20.0
 40
20.0
 40
21.0
 40
21.0
 40
21.0
 40
22.0
 40
22.0
 40
22.0
 40
23.0
 40
23.0
 40
23.0
 40
24.0
 40
24.0
 40
24.0
 40
25.0
 40
25.0
 40
25.0
 40
26.0
 40
26.0
 40
26.0
 40
27.0
 40
27.0
 40
27.0
 40
28.0
 40
28.0
 40
28.0
 40
29.0
 40
29.0
 40
29.0
 40
30.0
 40
30.0
 40
30.0
 40
31.0
 40
31.0
 40
31.0
 40
32.0
 40
32.0
 40
32.0
 40
32.0
 10
210.9618000774679
 20
247.757314662453
 30
0.0
 10
208.7483262281949
 20
247.757314662453
 30
0.0
 10
206.9616997095443
 20
249.550142352977
 30
0.0
 10
206.9616997095443
 20
251.7574150303766
 30
0.0
 10
206.9616997095443
 20
253.9646877077762
 30
0.0
 10
208.7483262281949
 20
255.7575153983002
 30
0.0
 10
210.9618000774679
 20
255.7575153983002
 30
0.0
 10
210.9618000774679
 20
255.7575153983002
 30
0.0
 10
216.7536946072699
 20
255.7575153983002
 30
0.0
 10
216.7536946072699
 20
255.7575153983002
 30
0.0
 10
216.7536946072699
 20
255.7575153983002
 30
0.0
 10
216.7536946072699
 20
255.7571708887517
 30
0.0
 10
216.7536946072699
 20
255.7571708887517
 30
0.0
 10
216.7536946072699
 20
255.7571708887517
 30
0.0
 10
237.238576872114
 20
255.7571708887517
 30
0.0
 10
237.238576872114
 20
255.7571708887517
 30
0.0
 10
237.238576872114
 20
255.7571708887517
 30
0.0
 10
237.238576872114
 20
314.1084756701708
 30
0.0
 10
237.238576872114
 20
314.1084756701708
 30
0.0
 10
237.238576872114
 20
314.1084756701708
 30
0.0
 10
213.4836099726708
 20
314.1084756701708
 30
0.0
 10
213.4836099726708
 20
314.1084756701708
 30
0.0
 10
213.4836099726708
 20
314.1084756701708
 30
0.0
 10
213.4836099726708
 20
326.531662244756
 30
0.0
 10
213.4836099726708
 20
326.531662244756
 30
0.0
 10
213.4836099726708
 20
326.531662244756
 30
0.0
 10
210.9618000774679
 20
326.531662244756
 30
0.0
 10
210.9618000774679
 20
326.531662244756
 30
0.0
 10
209.0249673956604
 20
326.531662244756
 30
0.0
 10
207.4619275740026
 20
328.1005587287387
 30
0.0
 10
207.4619275740026
 20
330.0318792577698
 30
0.0
 10
207.4619275740026
 20
330.0318792577698
 30
0.0
 10
207.4619275740026
 20
333.52710088233
 30
0.0
 10
207.4619275740026
 20
333.52710088233
 30
0.0
 10
207.4619275740026
 20
333.52710088233
 30
0.0
 10
65.5326063204224
 20
333.52710088233
 30
0.0
 10
65.5326063204224
 20
333.52710088233
 30
0.0
 10
65.5326063204224
 20
333.52710088233
 30
0.0
 10
65.5326063204224
 20
297.3646225927595
 30
0.0
 10
65.5326063204224
 20
297.3646225927595
 30
0.0
 10
65.5326063204224
 20
297.3646225927595
 30
0.0
 10
65.5326063204224
 20
294.1896225935533
 30
0.0
 10
65.5326063204224
 20
294.1896225935533
 30
0.0
 10
65.5326063204224
 20
294.1896225935533
 30
0.0
 10
62.35760632121616
 20
294.1896225935533
 30
0.0
 10
62.35760632121616
 20
294.1896225935533
 30
0.0
 10
62.35760632121616
 20
294.1896225935533
 30
0.0
 10
22.96070013531885
 20
294.1911728865217
 30
0.0
 10
22.96070013531885
 20
294.1911728865217
 30
0.0
 10
22.96070013531885
 20
294.1911728865217
 30
0.0
 10
22.96070013531885
 20
290.8533921256374
 30
0.0
 10
22.96070013531885
 20
290.8533921256374
 30
0.0
 10
22.96070013531885
 20
290.8533921256374
 30
0.0
 10
22.98016492481052
 20
289.0591863969192
 30
0.0
 10
22.98016492481052
 20
286.8519137195197
 30
0.0
 10
22.98016492481052
 20
284.6442965325716
 30
0.0
 10
21.19457193480552
 20
282.8518133515961
 30
0.0
 10
18.98006455688693
 20
282.8518133515961
 30
0.0
 10
18.98006455688693
 20
282.8518133515961
 30
0.0
 10
16.50080159092688
 20
282.8518133515961
 30
0.0
 10
16.50080159092688
 20
282.8518133515961
 30
0.0
 10
16.50080159092688
 20
282.8518133515961
 30
0.0
 10
16.50080159092688
 20
218.461256184534
 30
0.0
 10
16.50080159092688
 20
218.461256184534
 30
0.0
 10
16.50080159092688
 20
218.461256184534
 30
0.0
 10
18.98006455688693
 20
218.461256184534
 30
0.0
 10
18.98006455688693
 20
218.461256184534
 30
0.0
 10
21.19457193480552
 20
218.461256184534
 30
0.0
 10
22.98016492481052
 20
216.669117513107
 30
0.0
 10
22.98016492481052
 20
214.4618448357075
 30
0.0
 10
22.98016492481052
 20
214.4618448357075
 30
0.0
 10
22.98016492481052
 20
211.5169772149159
 30
0.0
 10
22.98016492481052
 20
211.5169772149159
 30
0.0
 10
22.98016492481052
 20
211.5169772149159
 30
0.0
 10
206.9616997095443
 20
211.5169772149159
 30
0.0
 10
206.9616997095443
 20
211.5169772149159
 30
0.0
 10
206.9616997095443
 20
211.5169772149159
 30
0.0
 10
206.9616997095443
 20
214.2124199225754
 30
0.0
 10
206.9616997095443
 20
214.2124199225754
 30
0.0
 10
206.9616997095443
 20
214.2124199225754
 30
0.0
 10
206.9744465628397
 20
214.2124199225754
 30
0.0
 10
206.9744465628397
 20
214.2124199225754
 30
0.0
 10
206.9692789196119
 20
214.2954467237699
 30
0.0
 10
206.9616997095443
 20
214.3777845058674
 30
0.0
 10
206.9616997095443
 20
214.4618448357075
 30
0.0
 10
206.9616997095443
 20
216.669117513107
 30
0.0
 10
208.7483262281949
 20
218.461945203631
 30
0.0
 10
210.9618000774679
 20
218.461945203631
 30
0.0
 10
210.9618000774679
 20
218.461945203631
 30
0.0
 10
213.4836099726708
 20
218.461945203631
 30
0.0
 10
213.4836099726708
 20
218.461945203631
 30
0.0
 10
213.4836099726708
 20
218.461945203631
 30
0.0
 10
213.4836099726708
 20
247.757314662453
 30
0.0
 10
213.4836099726708
 20
247.757314662453
 30
0.0
 10
213.4836099726708
 20
247.757314662453
 30
0.0
 10
210.9618000774679
 20
247.757314662453
 30
0.0
 10
210.9618000774679
 20
247.757314662453
 30
0.0
  0
SPLINE
  5
51
330
1F
100
AcDbEntity
  8
LAYER_1
 62
     7
100
AcDbSpline
210
0.0
220
0.0
230
1.0
 70
    11
 71
     3
 72
    17
 73
    13
 74
     0
 42
0.0000000001
 43
0.0000000001
 40
0.0
 40
0.0
 40
0.0
 40
0.0
 40
1.0
 40
1.0
 40
1.0
 40
2.0
 40
2.0
 40
2.0
 40
3.0
 40
3.0
 40
3.0
 40
4.0
 40
4.0
 40
4.0
 40
4.0
 10
9.761850312229678
 20
328.8324692645801
 30
0.0
 10
9.761850312229678
 20
329.9359333485056
 30
0.0
 10
8.868881562452918
 20
330.8323471937676
 30
0.0
 10
7.761800128267883
 20
330.8323471937676
 30
0.0
 10
6.654718694082848
 20
330.8323471937676
 30
0.0
 10
5.76174994430609
 20
329.9359333485056
 30
0.0
 10
5.76174994430609
 20
328.8324692645801
 30
0.0
 10
5.76174994430609
 20
327.7288329258803
 30
0.0
 10
6.654718694082848
 20
326.8324190806183
 30
0.0
 10
7.761800128267883
 20
326.8324190806183
 30
0.0
 10
8.868881562452918
 20
326.8324190806183
 30
0.0
 10
9.761850312229678
 20
327.7288329258803
 30
0.0
 10
9.761850312229678
 20
328.8324692645801
 30
0.0
  0
SPLINE
  5
52
330
1F
100
AcDbEntity
  8
LAYER_1
 62
     7
100
AcDbSpline
210
0.0
220
0.0
230
1.0
 70
    11
 71
     3
 72
    17
 73
    13
 74
     0
 42
0.0000000001
 43
0.0000000001
 40
0.0
 40
0.0
 40
0.0
 40
0.0
 40
1.0
 40
1.0
 40
1.0
 40
2.0
 40
2.0
 40
2.0
 40
3.0
 40
3.0
 40
3.0
 40
4.0
 40
4.0
 40
4.0
 40
4.0
 10
11.76172824141721
 20
328.8324692645801
 30
0.0
 10
11.76172824141721
 20
331.0393974324311
 30
0.0
 10
9.976135251412217
 20
332.8322251229552
 30
0.0
 10
7.761800128267883
 20
332.8322251229552
 30
0.0
 10
5.54746500512355
 20
332.8322251229552
 30
0.0
 10
3.76187201511856
 20
331.0393974324311
 30
0.0
 10
3.76187201511856
 20
328.8324692645801
 30
0.0
 10
3.76187201511856
 20
326.6251965871805
 30
0.0
 10
5.54746500512355
 20
324.8323688966565
 30
0.0
 10
7.761800128267883
 20
324.8323688966565
 30
0.0
 10
9.976135251412217
 20
324.8323688966565
 30
0.0
 10
11.76172824141721
 20
326.6251965871805
 30
0.0
 10
11.76172824141721
 20
328.8324692645801
 30
0.0
  0
SPLINE
  5
53
330
1F
100
AcDbEntity
  8
LAYER_1
 62
     7
100
AcDbSpline
210
0.0
220
0.0
230
1.0
 70
    11
 71
     3
 72
    17
 73
    13
 74
     0
 42
0.0000000001
 43
0.0000000001
 40
0.0
 40
0.0
 40
0.0
 40
0.0
 40
1.0
 40
1.0
 40
1.0
 40
2.0
 40
2.0
 40
2.0
 40
3.0
 40
3.0
 40
3.0
 40
4.0
 40
4.0
 40
4.0
 40
4.0
 10
9.261794702545663
 20
320.0130248223405
 30
0.0
 10
9.261794702545663
 20
320.8405367578975
 30
0.0
 10
8.592068140213094
 20
321.512847141844
 30
0.0
 10
7.761800128267883
 20
321.512847141844
 30
0.0
 10
6.931532116322673
 20
321.512847141844
 30
0.0
 10
6.261805553990104
 20
320.8405367578975
 30
0.0
 10
6.261805553990104
 20
320.0130248223405
 30
0.0
 10
6.261805553990104
 20
319.1853406320092
 30
0.0
 10
6.931532116322673
 20
318.5130302480627
 30
0.0
 10
7.761800128267883
 20
318.5130302480627
 30
0.0
 10
8.592068140213094
 20
318.5130302480627
 30
0.0
 10
9.261794702545663
 20
319.1853406320092
 30
0.0
 10
9.261794702545663
 20
320.0130248223405
 30
0.0
  0
SPLINE
  5
54
330
1F
100
AcDbEntity
  8
LAYER_1
 62
     7
100
AcDbSpline
210
0.0
220
0.0
230
1.0
 70
    11
 71
     3
 72
    17
 73
    13
 74
     0
 42
0.0000000001
 43
0.0000000001
 40
0.0
 40
0.0
 40
0.0
 40
0.0
 40
1.0
 40
1.0
 40
1.0
 40
2.0
 40
2.0
 40
2.0
 40
3.0
 40
3.0
 40
3.0
 40
4.0
 40
4.0
 40
4.0
 40
4.0
 10
224.2509114022706
 20
328.8324692645801
 30
0.0
 10
224.2509114022706
 20
329.9359333485056
 30
0.0
 10
223.3579426524938
 20
330.8323471937676
 30
0.0
 10
222.2506889635346
 20
330.8323471937676
 30
0.0
 10
221.1434352745753
 20
330.8323471937676
 30
0.0
 10
220.2504665247985
 20
329.9359333485056
 30
0.0
 10
220.2504665247985
 20
328.8324692645801
 30
0.0
 10
220.2504665247985
 20
327.7288329258803
 30
0.0
 10
221.1434352745753
 20
326.8324190806183
 30
0.0
 10
222.2506889635346
 20
326.8324190806183
 30
0.0
 10
223.3579426524938
 20
326.8324190806183
 30
0.0
 10
224.2509114022706
 20
327.7288329258803
 30
0.0
 10
224.2509114022706
 20
328.8324692645801
 30
0.0
  0
SPLINE
  5
55
330
1F
100
AcDbEntity
  8
LAYER_1
 62
     7
100
AcDbSpline
210
0.0
220
0.0
230
1.0
 70
    11
 71
     3
 72
    17
 73
    13
 74
     0
 42
0.0000000001
 43
0.0000000001
 40
0.0
 40
0.0
 40
0.0
 40
0.0
 40
1.0
 40
1.0
 40
1.0
 40
2.0
 40
2.0
 40
2.0
 40
3.0
 40
3.0
 40
3.0
 40
4.0
 40
4.0
 40
4.0
 40
4.0
 10
226.2507893314582
 20
328.8324692645801
 30
0.0
 10
226.2507893314582
 20
331.0393974324311
 30
0.0
 10
224.4645073223561
 20
332.8322251229552
 30
0.0
 10
222.2506889635346
 20
332.8322251229552
 30
0.0
 10
220.036870604713
 20
332.8322251229552
 30
0.0
 10
218.250588595611
 20
331.0393974324311
 30
0.0
 10
218.250588595611
 20
328.8324692645801
 30
0.0
 10
218.250588595611
 20
326.625541096729
 30
0.0
 10
220.036870604713
 20
324.8323688966565
 30
0.0
 10
222.2506889635346
 20
324.8323688966565
 30
0.0
 10
224.4645073223561
 20
324.8323688966565
 30
0.0
 10
226.2507893314582
 20
326.625541096729
 30
0.0
 10
226.2507893314582
 20
328.8324692645801
 30
0.0
  0
SPLINE
  5
56
330
1F
100
AcDbEntity
  8
LAYER_1
 62
     7
100
AcDbSpline
210
0.0
220
0.0
230
1.0
 70
    11
 71
     3
 72
    17
 73
    13
 74
     0
 42
0.0000000001
 43
0.0000000001
 40
0.0
 40
0.0
 40
0.0
 40
0.0
 40
1.0
 40
1.0
 40
1.0
 40
2.0
 40
2.0
 40
2.0
 40
3.0
 40
3.0
 40
3.0
 40
4.0
 40
4.0
 40
4.0
 40
4.0
 10
9.761850312229678
 20
217.3546915146717
 30
0.0
 10
9.761850312229678
 20
218.4581555985973
 30
0.0
 10
8.868881562452918
 20
219.3545694438593
 30
0.0
 10
7.761800128267883
 20
219.3545694438593
 30
0.0
 10
6.654718694082848
 20
219.3545694438593
 30
0.0
 10
5.76174994430609
 20
218.4581555985973
 30
0.0
 10
5.76174994430609
 20
217.3546915146717
 30
0.0
 10
5.76174994430609
 20
216.2508829211977
 30
0.0
 10
6.654718694082848
 20
215.3544690759357
 30
0.0
 10
7.761800128267883
 20
215.3544690759357
 30
0.0
 10
8.868881562452918
 20
215.3544690759357
 30
0.0
 10
9.761850312229678
 20
216.2508829211977
 30
0.0
 10
9.761850312229678
 20
217.3546915146717
 30
0.0
  0
SPLINE
  5
57
330
1F
100
AcDbEntity
  8
LAYER_1
 62
     7
100
AcDbSpline
210
0.0
220
0.0
230
1.0
 70
    11
 71
     3
 72
    17
 73
    13
 74
     0
 42
0.0000000001
 43
0.0000000001
 40
0.0
 40
0.0
 40
0.0
 40
0.0
 40
1.0
 40
1.0
 40
1.0
 40
2.0
 40
2.0
 40
2.0
 40
3.0
 40
3.0
 40
3.0
 40
4.0
 40
4.0
 40
4.0
 40
4.0
 10
11.76172824141721
 20
217.3546915146717
 30
0.0
 10
11.76172824141721
 20
219.5619641920713
 30
0.0
 10
9.976135251412217
 20
221.3544473730468
 30
0.0
 10
7.761800128267883
 20
221.3544473730468
 30
0.0
 10
5.54746500512355
 20
221.3544473730468
 30
0.0
 10
3.76187201511856
 20
219.5619641920713
 30
0.0
 10
3.76187201511856
 20
217.3546915146717
 30
0.0
 10
3.76187201511856
 20
215.1470743277237
 30
0.0
 10
5.54746500512355
 20
213.3549356562967
 30
0.0
 10
7.761800128267883
 20
213.3549356562967
 30
0.0
 10
9.976135251412217
 20
213.3549356562967
 30
0.0
 10
11.76172824141721
 20
215.1470743277237
 30
0.0
 10
11.76172824141721
 20
217.3546915146717
 30
0.0
  0
SPLINE
  5
58
330
1F
100
AcDbEntity
  8
LAYER_1
 62
     7
100
AcDbSpline
210
0.0
220
0.0
230
1.0
 70
    11
 71
     3
 72
    17
 73
    13
 74
     0
 42
0.0000000001
 43
0.0000000001
 40
0.0
 40
0.0
 40
0.0
 40
0.0
 40
1.0
 40
1.0
 40
1.0
 40
2.0
 40
2.0
 40
2.0
 40
3.0
 40
3.0
 40
3.0
 40
4.0
 40
4.0
 40
4.0
 40
4.0
 10
9.261794702545663
 20
226.1741359569113
 30
0.0
 10
9.261794702545663
 20
227.0016478924684
 30
0.0
 10
8.592068140213094
 20
227.6741305311891
 30
0.0
 10
7.761800128267883
 20
227.6741305311891
 30
0.0
 10
6.931532116322673
 20
227.6741305311891
 30
0.0
 10
6.261805553990104
 20
227.0016478924684
 30
0.0
 10
6.261805553990104
 20
226.1741359569113
 30
0.0
 10
6.261805553990104
 20
225.3462795118058
 30
0.0
 10
6.931532116322673
 20
224.6741413826336
 30
0.0
 10
7.761800128267883
 20
224.6741413826336
 30
0.0
 10
8.592068140213094
 20
224.6741413826336
 30
0.0
 10
9.261794702545663
 20
225.3462795118058
 30
0.0
 10
9.261794702545663
 20
226.1741359569113
 30
0.0
  0
SPLINE
  5
59
330
1F
100
AcDbEntity
  8
LAYER_1
 62
     7
100
AcDbSpline
210
0.0
220
0.0
230
1.0
 70
    11
 71
     3
 72
    17
 73
    13
 74
     0
 42
0.0000000001
 43
0.0000000001
 40
0.0
 40
0.0
 40
0.0
 40
0.0
 40
1.0
 40
1.0
 40
1.0
 40
2.0
 40
2.0
 40
2.0
 40
3.0
 40
3.0
 40
3.0
 40
4.0
 40
4.0
 40
4.0
 40
4.0
 10
9.261794702545663
 20
320.0130248223405
 30
0.0
 10
9.261794702545663
 20
320.8405367578975
 30
0.0
 10
8.592068140213094
 20
321.512847141844
 30
0.0
 10
7.761800128267883
 20
321.512847141844
 30
0.0
 10
6.931532116322673
 20
321.512847141844
 30
0.0
 10
6.261805553990104
 20
320.8405367578975
 30
0.0
 10
6.261805553990104
 20
320.0130248223405
 30
0.0
 10
6.261805553990104
 20
319.1853406320092
 30
0.0
 10
6.931532116322673
 20
318.5130302480627
 30
0.0
 10
7.761800128267883
 20
318.5130302480627
 30
0.0
 10
8.592068140213094
 20
318.5130302480627
 30
0.0
 10
9.261794702545663
 20
319.1853406320092
 30
0.0
 10
9.261794702545663
 20
320.0130248223405
 30
0.0
  0
SPLINE
  5
5A
330
1F
100
AcDbEntity
  8
LAYER_1
 62
     7
100
AcDbSpline
210
0.0
220
0.0
230
1.0
 70
    11
 71
     3
 72
    17
 73
    13
 74
     0
 42
0.0000000001
 43
0.0000000001
 40
0.0
 40
0.0
 40
0.0
 40
0.0
 40
1.0
 40
1.0
 40
1.0
 40
2.0
 40
2.0
 40
2.0
 40
3.0
 40
3.0
 40
3.0
 40
4.0
 40
4.0
 40
4.0
 40
4.0
 10
9.261794702545663
 20
226.1741359569113
 30
0.0
 10
9.261794702545663
 20
227.0016478924684
 30
0.0
 10
8.592068140213094
 20
227.6741305311891
 30
0.0
 10
7.761800128267883
 20
227.6741305311891
 30
0.0
 10
6.931532116322673
 20
227.6741305311891
 30
0.0
 10
6.261805553990104
 20
227.0016478924684
 30
0.0
 10
6.261805553990104
 20
226.1741359569113
 30
0.0
 10
6.261805553990104
 20
225.3462795118058
 30
0.0
 10
6.931532116322673
 20
224.6741413826336
 30
0.0
 10
7.761800128267883
 20
224.6741413826336
 30
0.0
 10
8.592068140213094
 20
224.6741413826336
 30
0.0
 10
9.261794702545663
 20
225.3462795118058
 30
0.0
 10
9.261794702545663
 20
226.1741359569113
 30
0.0
  0
SPLINE
  5
5B
330
1F
100
AcDbEntity
  8
LAYER_1
 62
     7
100
AcDbSpline
210
0.0
220
0.0
230
1.0
 70
    11
 71
     3
 72
    17
 73
    13
 74
     0
 42
0.0000000001
 43
0.0000000001
 40
0.0
 40
0.0
 40
0.0
 40
0.0
 40
1.0
 40
1.0
 40
1.0
 40
2.0
 40
2.0
 40
2.0
 40
3.0
 40
3.0
 40
3.0
 40
4.0
 40
4.0
 40
4.0
 40
4.0
 10
223.7506835378123
 20
320.0130248223405
 30
0.0
 10
223.7506835378123
 20
320.8405367578975
 30
0.0
 10
223.0809569754798
 20
321.512847141844
 30
0.0
 10
222.2506889635346
 20
321.512847141844
 30
0.0
 10
221.4204209515893
 20
321.512847141844
 30
0.0
 10
220.7506943892568
 20
320.8405367578975
 30
0.0
 10
220.7506943892568
 20
320.0130248223405
 30
0.0
 10
220.7506943892568
 20
319.1853406320092
 30
0.0
 10
221.4204209515893
 20
318.5130302480627
 30
0.0
 10
222.2506889635346
 20
318.5130302480627
 30
0.0
 10
223.0809569754798
 20
318.5130302480627
 30
0.0
 10
223.7506835378123
 20
319.1853406320092
 30
0.0
 10
223.7506835378123
 20
320.0130248223405
 30
0.0
  0
SPLINE
  5
5C
330
1F
100
AcDbEntity
  8
LAYER_1
 62
     7
100
AcDbSpline
210
0.0
220
0.0
230
1.0
 70
    11
 71
     3
 72
    17
 73
    13
 74
     0
 42
0.0000000001
 43
0.0000000001
 40
0.0
 40
0.0
 40
0.0
 40
0.0
 40
1.0
 40
1.0
 40
1.0
 40
2.0
 40
2.0
 40
2.0
 40
3.0
 40
3.0
 40
3.0
 40
4.0
 40
4.0
 40
4.0
 40
4.0
 10
223.7506835378123
 20
226.1741359569113
 30
0.0
 10
223.7506835378123
 20
227.0016478924684
 30
0.0
 10
223.0809569754798
 20
227.6741305311891
 30
0.0
 10
222.2506889635346
 20
227.6741305311891
 30
0.0
 10
221.4204209515893
 20
227.6741305311891
 30
0.0
 10
220.7506943892568
 20
227.0016478924684
 30
0.0
 10
220.7506943892568
 20
226.1741359569113
 30
0.0
 10
220.7506943892568
 20
225.3462795118058
 30
0.0
 10
221.4204209515893
 20
224.6741413826336
 30
0.0
 10
222.2506889635346
 20
224.6741413826336
 30
0.0
 10
223.0809569754798
 20
224.6741413826336
 30
0.0
 10
223.7506835378123
 20
225.3462795118058
 30
0.0
 10
223.7506835378123
 20
226.1741359569113
 30
0.0
  0
SPLINE
  5
5D
330
1F
100
AcDbEntity
  8
LAYER_1
 62
     7
100
AcDbSpline
210
0.0
220
0.0
230
1.0
 70
    11
 71
     3
 72
    17
 73
    13
 74
     0
 42
0.0000000001
 43
0.0000000001
 40
0.0
 40
0.0
 40
0.0
 40
0.0
 40
1.0
 40
1.0
 40
1.0
 40
2.0
 40
2.0
 40
2.0
 40
3.0
 40
3.0
 40
3.0
 40
4.0
 40
4.0
 40
4.0
 40
4.0
 10
224.2509114022706
 20
217.3546915146717
 30
0.0
 10
224.2509114022706
 20
218.4581555985973
 30
0.0
 10
223.3579426524938
 20
219.3545694438593
 30
0.0
 10
222.2506889635346
 20
219.3545694438593
 30
0.0
 10
221.1434352745753
 20
219.3545694438593
 30
0.0
 10
220.2504665247985
 20
218.4581555985973
 30
0.0
 10
220.2504665247985
 20
217.3546915146717
 30
0.0
 10
220.2504665247985
 20
216.2508829211977
 30
0.0
 10
221.1434352745753
 20
215.3544690759357
 30
0.0
 10
222.2506889635346
 20
215.3544690759357
 30
0.0
 10
223.3579426524938
 20
215.3544690759357
 30
0.0
 10
224.2509114022706
 20
216.2508829211977
 30
0.0
 10
224.2509114022706
 20
217.3546915146717
 30
0.0
  0
SPLINE
  5
5E
330
1F
100
AcDbEntity
  8
LAYER_1
 62
     7
100
AcDbSpline
210
0.0
220
0.0
230
1.0
 70
    11
 71
     3
 72
    17
 73
    13
 74
     0
 42
0.0000000001
 43
0.0000000001
 40
0.0
 40
0.0
 40
0.0
 40
0.0
 40
1.0
 40
1.0
 40
1.0
 40
2.0
 40
2.0
 40
2.0
 40
3.0
 40
3.0
 40
3.0
 40
4.0
 40
4.0
 40
4.0
 40
4.0
 10
226.2507893314582
 20
217.3546915146717
 30
0.0
 10
226.2507893314582
 20
219.5619641920713
 30
0.0
 10
224.4645073223561
 20
221.3544473730468
 30
0.0
 10
222.2506889635346
 20
221.3544473730468
 30
0.0
 10
220.036870604713
 20
221.3544473730468
 30
0.0
 10
218.250588595611
 20
219.5619641920713
 30
0.0
 10
218.250588595611
 20
217.3546915146717
 30
0.0
 10
218.250588595611
 20
215.1470743277237
 30
0.0
 10
220.036870604713
 20
213.3545911467482
 30
0.0
 10
222.2506889635346
 20
213.3545911467482
 30
0.0
 10
224.4645073223561
 20
213.3545911467482
 30
0.0
 10
226.2507893314582
 20
215.1470743277237
 30
0.0
 10
226.2507893314582
 20
217.3546915146717
 30
0.0
  0
SPLINE
  5
60
330
1F
100
AcDbEntity
  8
LAYER_2
 62
     7
100
AcDbSpline
210
0.0
220
0.0
230
1.0
 70
    11
 71
     3
 72
    53
 73
    49
 74
     0
 42
0.0000000001
 43
0.0000000001
 40
0.0
 40
0.0
 40
0.0
 40
0.0
 40
1.0
 40
1.0
 40
1.0
 40
2.0
 40
2.0
 40
2.0
 40
3.0
 40
3.0
 40
3.0
 40
4.0
 40
4.0
 40
4.0
 40
5.0
 40
5.0
 40
5.0
 40
6.0
 40
6.0
 40
6.0
 40
7.0
 40
7.0
 40
7.0
 40
8.0
 40
8.0
 40
8.0
 40
9.0
 40
9.0
 40
9.0
 40
10.0
 40
10.0
 40
10.0
 40
11.0
 40
11.0
 40
11.0
 40
12.0
 40
12.0
 40
12.0
 40
13.0
 40
13.0
 40
13.0
 40
14.0
 40
14.0
 40
14.0
 40
15.0
 40
15.0
 40
15.0
 40
16.0
 40
16.0
 40
16.0
 40
16.0
 10
226.8044161759378
 20
210.0169826406381
 30
0.0
 10
226.8044161759378
 20
210.0169826406381
 30
0.0
 10
3.100930446273379
 20
210.0169826406381
 30
0.0
 10
3.100930446273379
 20
210.0169826406381
 30
0.0
 10
3.100930446273379
 20
210.0169826406381
 30
0.0
 10
3.003261989266546
 20
210.0597018246552
 30
0.0
 10
3.002917479718021
 20
210.0597018246552
 30
0.0
 10
1.371148003129435
 20
210.0597018246552
 30
0.0
 10
0.0237711588482239
 20
211.3853745673794
 30
0.0
 10
0.0001722547742625
 20
213.015249241451
 30
0.0
 10
0.0001722547742625
 20
213.015249241451
 30
0.0
 10
0.0
 20
332.0183213145649
 30
0.0
 10
0.0
 20
332.0183213145649
 30
0.0
 10
0.0103352864557495
 20
333.678685083681
 30
0.0
 10
1.358745659382536
 20
335.0270954566078
 30
0.0
 10
3.00567355610622
 20
335.0270954566078
 30
0.0
 10
3.00567355610622
 20
335.0270954566078
 30
0.0
 10
227.0021646567911
 20
335.0270954566078
 30
0.0
 10
227.0021646567911
 20
335.0270954566078
 30
0.0
 10
228.6165364011792
 20
335.0165879153778
 30
0.0
 10
229.9263617046712
 20
333.6872978223942
 30
0.0
 10
229.9263617046712
 20
332.0637965749702
 30
0.0
 10
229.9263617046712
 20
332.0637965749702
 30
0.0
 10
229.9263617046712
 20
332.0122923974657
 30
0.0
 10
229.9263617046712
 20
332.0122923974657
 30
0.0
 10
229.9263617046712
 20
332.0122923974657
 30
0.0
 10
229.9690808886883
 20
331.9158297238787
 30
0.0
 10
229.9690808886883
 20
331.9158297238787
 30
0.0
 10
229.9690808886883
 20
331.9158297238787
 30
0.0
 10
229.9690808886883
 20
314.9029146890694
 30
0.0
 10
229.9690808886883
 20
314.9029146890694
 30
0.0
 10
229.9690808886883
 20
314.9029146890694
 30
0.0
 10
229.9690808886883
 20
213.1399616980171
 30
0.0
 10
229.9690808886883
 20
213.1399616980171
 30
0.0
 10
229.9690808886883
 20
213.1399616980171
 30
0.0
 10
229.9263617046712
 20
213.0434990244301
 30
0.0
 10
229.9263617046712
 20
213.0434990244301
 30
0.0
 10
229.9263617046712
 20
213.0434990244301
 30
0.0
 10
229.9263617046712
 20
213.0014688595101
 30
0.0
 10
229.9263617046712
 20
213.0014688595101
 30
0.0
 10
229.9263617046712
 20
211.3898531915102
 30
0.0
 10
228.6158473820822
 20
210.0696926015625
 30
0.0
 10
227.0056097522764
 20
210.0590128055582
 30
0.0
 10
227.0056097522764
 20
210.0590128055582
 30
0.0
 10
226.9084580595923
 20
210.015604602444
 30
0.0
 10
226.9084580595923
 20
210.015604602444
 30
0.0
 10
226.9084580595923
 20
210.015604602444
 30
0.0
 10
226.8044161759378
 20
210.0169826406381
 30
0.0
 10
226.8044161759378
 20
210.0169826406381
 30
0.0
  0
ENDSEC
  0
SECTION
  2
OBJECTS
  0
DICTIONARY
  5
C
330
0
100
AcDbDictionary
  3
ACAD_GROUP
350
D
  3
ACAD_LAYOUT
350
1A
  3
ACAD_MLINESTYLE
350
17
  3
ACAD_PLOTSETTINGS
350
19
  3
ACAD_TABLESTYLE
350
61
  3
ACAD_VISUALSTYLE
350
2A
1001
ACAD
1000
TREAT_AS_HARD
1070
     0
  0
DICTIONARY
  5
D
102
{ACAD_REACTORS
330
C
102
}
330
C
100
AcDbDictionary
1001
ACAD
1000
TREAT_AS_HARD
1070
     0
  0
DICTIONARY
  5
1A
102
{ACAD_REACTORS
330
C
102
}
330
C
100
AcDbDictionary
1001
ACAD
1000
TREAT_AS_HARD
1070
     0
  0
DICTIONARY
  5
17
102
{ACAD_REACTORS
330
C
102
}
330
C
100
AcDbDictionary
  3
STANDARD
350
18
1001
ACAD
1000
TREAT_AS_HARD
1070
     0
  0
DICTIONARY
  5
19
102
{ACAD_REACTORS
330
C
102
}
330
C
100
AcDbDictionary
1001
ACAD
1000
TREAT_AS_HARD
1070
     0
  0
DICTIONARY
  5
61
102
{ACAD_REACTORS
330
C
102
}
330
C
100
AcDbDictionary
1001
ACAD
1000
TREAT_AS_HARD
1070
     0
  0
DICTIONARY
  5
2A
102
{ACAD_REACTORS
330
C
102
}
330
C
100
AcDbDictionary
  3
2DWIREFRAME
350
2F
  3
3D_HIDDEN
350
31
  3
3DWIREFRAME
350
30
  3
BASIC
350
32
  3
BRIGHTEN
350
36
  3
COLORCHANGE
350
3A
  3
CONCEPTUAL
350
34
  3
DIM
350
35
  3
FACEPATTERN
350
39
  3
FLAT
350
2B
  3
FLATWITHEDGES
350
2C
  3
GOURAUD
350
2D
  3
GOURAUDWITHEDGES
350
2E
  3
LINEPATTERN
350
38
  3
REALISTIC
350
33
  3
THICKEN
350
37
1001
ACAD
1000
TREAT_AS_HARD
1070
     0
  0
MLINESTYLE
  5
18
102
{ACAD_REACTORS
330
17
102
}
330
17
100
AcDbMlineStyle
  2
Standard
 70
     0
  3

 62
   256
 51
90.0
 52
90.0
 71
     2
 49
0.5
 62
   256
  6
BYLAYER
 49
-0.5
 62
   256
  6
BYLAYER
  0
VISUALSTYLE
  5
2F
102
{ACAD_REACTORS
330
2A
102
}
330
2A
100
AcDbVisualStyle
  2
2dWireframe
 70
     4
 71
     0
 72
     2
 73
     0
 90
        0
 40
-0.6
 41
-30.0
 62
     5
 63
     7
 74
     1
 91
        4
 64
     7
 65
   257
 75
     1
175
     1
 42
1.0
 92
        0
 66
   257
 43
1.0
 76
     1
 77
     6
 78
     2
 67
     7
 79
     5
170
     0
171
     0
290
     0
174
     0
 93
        1
 44
0.0
173
     0
291
     0
 45
0.0
1001
ACAD
1000
AcDbSavedByObjectVersion
1070
     0
  0
VISUALSTYLE
  5
31
102
{ACAD_REACTORS
330
2A
102
}
330
2A
100
AcDbVisualStyle
  2
3D Hidden
 70
     6
 71
     1
 72
     2
 73
     2
 90
        0
 40
-0.6
 41
-30.0
 62
     5
 63
     7
 74
     2
 91
        2
 64
     7
 65
   257
 75
     2
175
     1
 42
40.0
 92
        0
 66
   257
 43
1.0
 76
     1
 77
     6
 78
     2
 67
     7
 79
     3
170
     0
171
     0
290
     0
174
     0
 93
        1
 44
0.0
173
     0
291
     0
 45
0.0
1001
ACAD
1000
AcDbSavedByObjectVersion
1070
     0
  0
VISUALSTYLE
  5
30
102
{ACAD_REACTORS
330
2A
102
}
330
2A
100
AcDbVisualStyle
  2
3dWireframe
 70
     5
 71
     0
 72
     2
 73
     0
 90
        0
 40
-0.6
 41
-30.0
 62
     5
 63
     7
 74
     1
 91
        4
 64
     7
 65
   257
 75
     1
175
     1
 42
1.0
 92
        0
 66
   257
 43
1.0
 76
     1
 77
     6
 78
     2
 67
     7
 79
     5
170
     0
171
     0
290
     0
174
     0
 93
        1
 44
0.0
173
     0
291
     0
 45
0.0
1001
ACAD
1000
AcDbSavedByObjectVersion
1070
     0
  0
VISUALSTYLE
  5
32
102
{ACAD_REACTORS
330
2A
102
}
330
2A
100
AcDbVisualStyle
  2
Basic
 70
     7
 71
     1
 72
     0
 73
     1
 90
        0
 40
-0.6
 41
-30.0
 62
     5
 63
     7
 74
     0
 91
        4
 64
     7
 65
   257
 75
     1
175
     1
 42
1.0
 92
        8
 66
     7
 43
1.0
 76
     1
 77
     6
 78
     2
 67
     7
 79
     5
170
     0
171
     0
290
     0
174
     0
 93
        1
 44
0.0
173
     0
291
     1
 45
0.0
1001
ACAD
1000
AcDbSavedByObjectVersion
1070
     0
  0
VISUALSTYLE
  5
36
102
{ACAD_REACTORS
330
2A
102
}
330
2A
100
AcDbVisualStyle
  2
Brighten
 70
    12
 71
     2
 72
     2
 73
     0
 90
        0
 40
-0.6
 41
-30.0
 62
     5
 63
     7
 74
     1
 91
        4
 64
     7
 65
   257
 75
     1
175
     1
 42
1.0
 92
        8
 66
     7
 43
1.0
 76
     1
 77
     6
 78
     2
 67
     7
 79
     5
170
     0
171
     0
290
     0
174
     0
 93
        1
 44
50.0
173
     0
291
     1
 45
0.0
1001
ACAD
1000
AcDbSavedByObjectVersion
1070
     0
  0
VISUALSTYLE
  5
3A
102
{ACAD_REACTORS
330
2A
102
}
330
2A
100
AcDbVisualStyle
  2
ColorChange
 70
    16
 71
     2
 72
     2
 73
     3
 90
        0
 40
-0.6
 41
-30.0
 62
     5
 63
     8
 74
     1
 91
        4
 64
     7
 65
   257
 75
     1
175
     1
 42
1.0
 92
        8
 66
     8
 43
1.0
 76
     1
 77
     6
 78
     2
 67
     7
 79
     5
170
     0
171
     0
290
     0
174
     0
 93
        1
 44
0.0
173
     0
291
     1
 45
0.0
1001
ACAD
1000
AcDbSavedByObjectVersion
1070
     0
  0
VISUALSTYLE
  5
34
102
{ACAD_REACTORS
330
2A
102
}
330
2A
100
AcDbVisualStyle
  2
Conceptual
 70
     9
 71
     3
 72
     2
 73
     0
 90
        0
 40
-0.6
 41
-30.0
 62
     5
 63
     7
 74
     2
 91
        2
 64
     7
 65
   257
 75
     1
175
     1
 42
40.0
 92
        8
 66
     7
 43
1.0
 76
     1
 77
     6
 78
     2
 67
     7
 79
     3
170
     0
171
     0
290
     0
174
     0
 93
        1
 44
0.0
173
     0
291
     0
 45
0.0
1001
ACAD
1000
AcDbSavedByObjectVersion
1070
     0
  0
VISUALSTYLE
  5
35
102
{ACAD_REACTORS
330
2A
102
}
330
2A
100
AcDbVisualStyle
  2
Dim
 70
    11
 71
     2
 72
     2
 73
     0
 90
        0
 40
-0.6
 41
-30.0
 62
     5
 63
     7
 74
     1
 91
        4
 64
     7
 65
   257
 75
     1
175
     1
 42
1.0
 92
        8
 66
     7
 43
1.0
 76
     1
 77
     6
 78
     2
 67
     7
 79
     5
170
     0
171
     0
290
     0
174
     0
 93
        1
 44
-50.0
173
     0
291
     1
 45
0.0
1001
ACAD
1000
AcDbSavedByObjectVersion
1070
     0
  0
VISUALSTYLE
  5
39
102
{ACAD_REACTORS
330
2A
102
}
330
2A
100
AcDbVisualStyle
  2
Facepattern
 70
    15
 71
     2
 72
     2
 73
     0
 90
        0
 40
-0.6
 41
-30.0
 62
     5
 63
     7
 74
     1
 91
        4
 64
     7
 65
   257
 75
     1
175
     1
 42
1.0
 92
        8
 66
     7
 43
1.0
 76
     1
 77
     6
 78
     2
 67
     7
 79
     5
170
     0
171
     0
290
     0
174
     0
 93
        1
 44
0.0
173
     0
291
     1
 45
0.0
1001
ACAD
1000
AcDbSavedByObjectVersion
1070
     0
  0
VISUALSTYLE
  5
2B
102
{ACAD_REACTORS
330
2A
102
}
330
2A
100
AcDbVisualStyle
  2
Flat
 70
     0
 71
     2
 72
     1
 73
     1
 90
        2
 40
-0.6
 41
30.0
 62
     5
 63
     7
 74
     0
 91
        4
 64
     7
 65
   257
 75
     1
175
     1
 42
1.0
 92
        8
 66
     7
 43
1.0
 76
     1
 77
     6
 78
     2
 67
     7
 79
     5
170
     0
171
     0
290
     0
174
     0
 93
       13
 44
0.0
173
     0
291
     1
 45
0.0
1001
ACAD
1000
AcDbSavedByObjectVersion
1070
     0
  0
VISUALSTYLE
  5
2C
102
{ACAD_REACTORS
330
2A
102
}
330
2A
100
AcDbVisualStyle
  2
FlatWithEdges
 70
     1
 71
     2
 72
     1
 73
     1
 90
        2
 40
-0.6
 41
30.0
 62
     5
 63
     7
 74
     1
 91
        4
 64
     7
 65
   257
 75
     1
175
     1
 42
1.0
 92
        0
 66
   257
 43
1.0
 76
     1
 77
     6
 78
     2
 67
     7
 79
     5
170
     0
171
     0
290
     0
174
     0
 93
       13
 44
0.0
173
     0
291
     1
 45
0.0
1001
ACAD
1000
AcDbSavedByObjectVersion
1070
     0
  0
VISUALSTYLE
  5
2D
102
{ACAD_REACTORS
330
2A
102
}
330
2A
100
AcDbVisualStyle
  2
Gouraud
 70
     2
 71
     2
 72
     2
 73
     1
 90
        2
 40
-0.6
 41
30.0
 62
     5
 63
     7
 74
     0
 91
        4
 64
     7
 65
   257
 75
     1
175
     1
 42
1.0
 92
        0
 66
     7
 43
1.0
 76
     1
 77
     6
 78
     2
 67
     7
 79
     5
170
     0
171
     0
290
     0
174
     0
 93
       13
 44
0.0
173
     0
291
     1
 45
0.0
1001
ACAD
1000
AcDbSavedByObjectVersion
1070
     0
  0
VISUALSTYLE
  5
2E
102
{ACAD_REACTORS
330
2A
102
}
330
2A
100
AcDbVisualStyle
  2
GouraudWithEdges
 70
     3
 71
     2
 72
     2
 73
     1
 90
        2
 40
-0.6
 41
30.0
 62
     5
 63
     7
 74
     1
 91
        4
 64
     7
 65
   257
 75
     1
175
     1
 42
1.0
 92
        0
 66
   257
 43
1.0
 76
     1
 77
     6
 78
     2
 67
     7
 79
     5
170
     0
171
     0
290
     0
174
     0
 93
       13
 44
0.0
173
     0
291
     1
 45
0.0
1001
ACAD
1000
AcDbSavedByObjectVersion
1070
     0
  0
VISUALSTYLE
  5
38
102
{ACAD_REACTORS
330
2A
102
}
330
2A
100
AcDbVisualStyle
  2
Linepattern
 70
    14
 71
     2
 72
     2
 73
     0
 90
        0
 40
-0.6
 41
-30.0
 62
     5
 63
     7
 74
     1
 91
        4
 64
     7
 65
   257
 75
     7
175
     7
 42
1.0
 92
        8
 66
     7
 43
1.0
 76
     1
 77
     6
 78
     2
 67
     7
 79
     5
170
     0
171
     0
290
     0
174
     0
 93
        1
 44
0.0
173
     0
291
     1
 45
0.0
1001
ACAD
1000
AcDbSavedByObjectVersion
1070
     0
  0
VISUALSTYLE
  5
33
102
{ACAD_REACTORS
330
2A
102
}
330
2A
100
AcDbVisualStyle
  2
Realistic
 70
     8
 71
     2
 72
     2
 73
     0
 90
        0
 40
-0.6
 41
-30.0
 62
     5
 63
     7
 74
     1
 91
        0
 64
     7
 65
   257
 75
     1
175
     1
 42
1.0
 92
        8
 66
     8
 43
1.0
 76
     1
 77
     6
 78
     2
 67
     7
 79
     5
170
     0
171
     0
290
     0
174
     0
 93
       13
 44
0.0
173
     0
291
     0
 45
0.0
1001
ACAD
1000
AcDbSavedByObjectVersion
1070
     0
  0
VISUALSTYLE
  5
37
102
{ACAD_REACTORS
330
2A
102
}
330
2A
100
AcDbVisualStyle
  2
Thicken
 70
    13
 71
     2
 72
     2
 73
     0
 90
        0
 40
-0.6
 41
-30.0
 62
     5
 63
     7
 74
     1
 91
        4
 64
     7
 65
   257
 75
     1
175
     1
 42
1.0
 92
       12
 66
     7
 43
1.0
 76
     1
 77
     6
 78
     2
 67
     7
 79
     5
170
     0
171
     0
290
     0
174
     0
 93
        1
 44
0.0
173
     0
291
     1
 45
0.0
1001
ACAD
1000
AcDbSavedByObjectVersion
1070
     0
  0
ENDSEC
  0
EOF
